G04 #@! TF.FileFunction,Copper,L1,Top,Signal*
%FSLAX46Y46*%
G04 Gerber Fmt 4.6, Leading zero omitted, Abs format (unit mm)*
G04 Created by KiCad (PCBNEW 4.0.4+e1-6308~48~ubuntu16.04.1-stable) date Sat Nov 26 13:58:56 2016*
%MOMM*%
%LPD*%
G01*
G04 APERTURE LIST*
%ADD10C,0.100000*%
%ADD11R,1.500000X1.250000*%
%ADD12R,1.700000X0.650000*%
%ADD13O,1.250000X3.000000*%
%ADD14R,1.500000X1.300000*%
%ADD15R,1.200000X1.500000*%
%ADD16R,1.600000X1.700000*%
%ADD17C,0.750000*%
%ADD18C,1.000000*%
%ADD19C,0.500000*%
%ADD20C,0.250000*%
G04 APERTURE END LIST*
D10*
D11*
X141250000Y-96000000D03*
X138750000Y-96000000D03*
D12*
X136350000Y-86095000D03*
X136350000Y-87365000D03*
X136350000Y-88635000D03*
X136350000Y-89905000D03*
X143650000Y-89905000D03*
X143650000Y-88635000D03*
X143650000Y-87365000D03*
X143650000Y-86095000D03*
D13*
X137460000Y-108000000D03*
X140000000Y-108000000D03*
X142540000Y-108000000D03*
D14*
X141350000Y-102000000D03*
X138650000Y-102000000D03*
X147650000Y-96000000D03*
X150350000Y-96000000D03*
X150350000Y-90000000D03*
X147650000Y-90000000D03*
X150350000Y-87000000D03*
X147650000Y-87000000D03*
D15*
X132000000Y-84200000D03*
D16*
X131000000Y-87500000D03*
D15*
X130000000Y-84200000D03*
D11*
X143750000Y-83000000D03*
X146250000Y-83000000D03*
X141250000Y-99000000D03*
X138750000Y-99000000D03*
D14*
X150350000Y-93000000D03*
X147650000Y-93000000D03*
D17*
X156650000Y-100200000D03*
X143825000Y-78025000D03*
D18*
X147650000Y-96000000D02*
X141250000Y-96000000D01*
X132000000Y-84200000D02*
X138805000Y-84200000D01*
X138805000Y-84200000D02*
X141250000Y-86645000D01*
X143750000Y-83000000D02*
X143750000Y-85995000D01*
X143750000Y-85995000D02*
X143650000Y-86095000D01*
X141250000Y-96000000D02*
X141250000Y-86645000D01*
X141250000Y-86645000D02*
X141800000Y-86095000D01*
X141800000Y-86095000D02*
X143650000Y-86095000D01*
X141250000Y-96000000D02*
X141250000Y-99000000D01*
X141250000Y-99000000D02*
X141250000Y-101900000D01*
X141250000Y-101900000D02*
X141350000Y-102000000D01*
X142540000Y-108000000D02*
X142540000Y-103190000D01*
X142540000Y-103190000D02*
X141350000Y-102000000D01*
D19*
X150350000Y-93000000D02*
X150350000Y-96000000D01*
X147650000Y-93000000D02*
X147550000Y-93000000D01*
X147550000Y-93000000D02*
X144455000Y-89905000D01*
X144455000Y-89905000D02*
X143650000Y-89905000D01*
X144175000Y-89905000D02*
X143650000Y-89905000D01*
X131000000Y-87500000D02*
X136215000Y-87500000D01*
X136215000Y-87500000D02*
X136350000Y-87365000D01*
X140000000Y-108000000D02*
X140000000Y-103250000D01*
X140000000Y-103250000D02*
X138750000Y-102000000D01*
X138750000Y-102000000D02*
X138650000Y-102000000D01*
X140000000Y-90935000D02*
X140000000Y-100750000D01*
X137700000Y-88635000D02*
X140000000Y-90935000D01*
X136350000Y-88635000D02*
X137700000Y-88635000D01*
X140000000Y-100750000D02*
X138750000Y-102000000D01*
X147650000Y-90000000D02*
X146285000Y-88635000D01*
X146285000Y-88635000D02*
X143650000Y-88635000D01*
X147650000Y-87000000D02*
X147285000Y-87365000D01*
X147285000Y-87365000D02*
X143650000Y-87365000D01*
X145600000Y-78000000D02*
X145575000Y-78025000D01*
X145575000Y-78025000D02*
X143825000Y-78025000D01*
X150350000Y-82750000D02*
X145600000Y-78000000D01*
X150350000Y-87000000D02*
X150350000Y-82750000D01*
X156650000Y-100200000D02*
X156650000Y-94150000D01*
X156650000Y-94150000D02*
X152500000Y-90000000D01*
X150350000Y-90000000D02*
X152500000Y-90000000D01*
D20*
G36*
X143880804Y-76094198D02*
X147479051Y-77208041D01*
X150792423Y-78999575D01*
X153694715Y-81400560D01*
X156075380Y-84319543D01*
X157843738Y-87645342D01*
X158932434Y-91251277D01*
X159300000Y-95000000D01*
X159292475Y-95538888D01*
X158820383Y-99275886D01*
X157631427Y-102850017D01*
X155770897Y-106125144D01*
X153309657Y-108976517D01*
X150341457Y-111295529D01*
X146979354Y-112993849D01*
X143351410Y-114006790D01*
X139595811Y-114295767D01*
X135855608Y-113849775D01*
X132273264Y-112685801D01*
X128985228Y-110848180D01*
X126116742Y-108406907D01*
X125893306Y-108125000D01*
X136210000Y-108125000D01*
X136210000Y-109000000D01*
X136258405Y-109241461D01*
X136352986Y-109468839D01*
X136490109Y-109673396D01*
X136664505Y-109847271D01*
X136869471Y-109983782D01*
X137097130Y-110077684D01*
X137141976Y-110083867D01*
X137335000Y-109961584D01*
X137335000Y-108125000D01*
X137585000Y-108125000D01*
X137585000Y-109961584D01*
X137778024Y-110083867D01*
X137822870Y-110077684D01*
X138050529Y-109983782D01*
X138255495Y-109847271D01*
X138429891Y-109673396D01*
X138567014Y-109468839D01*
X138661595Y-109241461D01*
X138710000Y-109000000D01*
X138710000Y-108125000D01*
X137585000Y-108125000D01*
X137335000Y-108125000D01*
X136210000Y-108125000D01*
X125893306Y-108125000D01*
X125001643Y-107000000D01*
X136210000Y-107000000D01*
X136210000Y-107875000D01*
X137335000Y-107875000D01*
X137335000Y-106038416D01*
X137585000Y-106038416D01*
X137585000Y-107875000D01*
X138710000Y-107875000D01*
X138710000Y-107000000D01*
X138661595Y-106758539D01*
X138567014Y-106531161D01*
X138429891Y-106326604D01*
X138255495Y-106152729D01*
X138050529Y-106016218D01*
X137822870Y-105922316D01*
X137778024Y-105916133D01*
X137585000Y-106038416D01*
X137335000Y-106038416D01*
X137141976Y-105916133D01*
X137097130Y-105922316D01*
X136869471Y-106016218D01*
X136664505Y-106152729D01*
X136490109Y-106326604D01*
X136352986Y-106531161D01*
X136258405Y-106758539D01*
X136210000Y-107000000D01*
X125001643Y-107000000D01*
X123777065Y-105454968D01*
X122611531Y-103187084D01*
X123915669Y-103187084D01*
X123994438Y-103616261D01*
X124155067Y-104021964D01*
X124391439Y-104388741D01*
X124694550Y-104702621D01*
X125052854Y-104951650D01*
X125452704Y-105126340D01*
X125878870Y-105220039D01*
X126315120Y-105229177D01*
X126744836Y-105153406D01*
X127151651Y-104995613D01*
X127520069Y-104761808D01*
X127836058Y-104460896D01*
X128087581Y-104104338D01*
X128265059Y-103705717D01*
X128361730Y-103280216D01*
X128368690Y-102781827D01*
X128283936Y-102353793D01*
X128117658Y-101950371D01*
X127876189Y-101586930D01*
X127568725Y-101277313D01*
X127206978Y-101033312D01*
X126804728Y-100864221D01*
X126377295Y-100776482D01*
X125940961Y-100773436D01*
X125512345Y-100855198D01*
X125107772Y-101018656D01*
X124742655Y-101257583D01*
X124430898Y-101562877D01*
X124184377Y-101922912D01*
X124012483Y-102323972D01*
X123921761Y-102750782D01*
X123915669Y-103187084D01*
X122611531Y-103187084D01*
X122055314Y-102104804D01*
X121245674Y-99281250D01*
X137375000Y-99281250D01*
X137375000Y-99686557D01*
X137399018Y-99807306D01*
X137446132Y-99921049D01*
X137514531Y-100023414D01*
X137601586Y-100110469D01*
X137703952Y-100178868D01*
X137817694Y-100225982D01*
X137938443Y-100250000D01*
X138468750Y-100250000D01*
X138625000Y-100093750D01*
X138625000Y-99125000D01*
X137531250Y-99125000D01*
X137375000Y-99281250D01*
X121245674Y-99281250D01*
X121017071Y-98484020D01*
X121002748Y-98313443D01*
X137375000Y-98313443D01*
X137375000Y-98718750D01*
X137531250Y-98875000D01*
X138625000Y-98875000D01*
X138625000Y-97906250D01*
X138468750Y-97750000D01*
X137938443Y-97750000D01*
X137817694Y-97774018D01*
X137703952Y-97821132D01*
X137601586Y-97889531D01*
X137514531Y-97976586D01*
X137446132Y-98078951D01*
X137399018Y-98192694D01*
X137375000Y-98313443D01*
X121002748Y-98313443D01*
X120832100Y-96281250D01*
X137375000Y-96281250D01*
X137375000Y-96686557D01*
X137399018Y-96807306D01*
X137446132Y-96921049D01*
X137514531Y-97023414D01*
X137601586Y-97110469D01*
X137703952Y-97178868D01*
X137817694Y-97225982D01*
X137938443Y-97250000D01*
X138468750Y-97250000D01*
X138625000Y-97093750D01*
X138625000Y-96125000D01*
X137531250Y-96125000D01*
X137375000Y-96281250D01*
X120832100Y-96281250D01*
X120750831Y-95313443D01*
X137375000Y-95313443D01*
X137375000Y-95718750D01*
X137531250Y-95875000D01*
X138625000Y-95875000D01*
X138625000Y-94906250D01*
X138468750Y-94750000D01*
X137938443Y-94750000D01*
X137817694Y-94774018D01*
X137703952Y-94821132D01*
X137601586Y-94889531D01*
X137514531Y-94976586D01*
X137446132Y-95078951D01*
X137399018Y-95192694D01*
X137375000Y-95313443D01*
X120750831Y-95313443D01*
X120701881Y-94730530D01*
X121121751Y-90987304D01*
X121375860Y-90186250D01*
X134875000Y-90186250D01*
X134875000Y-90291557D01*
X134899018Y-90412306D01*
X134946132Y-90526049D01*
X135014531Y-90628414D01*
X135101586Y-90715469D01*
X135203952Y-90783868D01*
X135317694Y-90830982D01*
X135438443Y-90855000D01*
X136068750Y-90855000D01*
X136225000Y-90698750D01*
X136225000Y-90030000D01*
X135031250Y-90030000D01*
X134875000Y-90186250D01*
X121375860Y-90186250D01*
X122260688Y-87396921D01*
X122671311Y-86650000D01*
X129571976Y-86650000D01*
X129571976Y-88350000D01*
X129579913Y-88449529D01*
X129632191Y-88618341D01*
X129729429Y-88765905D01*
X129863927Y-88880537D01*
X130025037Y-88953160D01*
X130200000Y-88978024D01*
X131800000Y-88978024D01*
X131899529Y-88970087D01*
X132068341Y-88917809D01*
X132215905Y-88820571D01*
X132330537Y-88686073D01*
X132403160Y-88524963D01*
X132424471Y-88375000D01*
X134871976Y-88375000D01*
X134871976Y-88960000D01*
X134879913Y-89059529D01*
X134932191Y-89228341D01*
X134957563Y-89266844D01*
X134946132Y-89283951D01*
X134899018Y-89397694D01*
X134875000Y-89518443D01*
X134875000Y-89623750D01*
X135031250Y-89780000D01*
X136225000Y-89780000D01*
X136225000Y-89760000D01*
X136475000Y-89760000D01*
X136475000Y-89780000D01*
X136495000Y-89780000D01*
X136495000Y-90030000D01*
X136475000Y-90030000D01*
X136475000Y-90698750D01*
X136631250Y-90855000D01*
X137261557Y-90855000D01*
X137382306Y-90830982D01*
X137496048Y-90783868D01*
X137598414Y-90715469D01*
X137685469Y-90628414D01*
X137753868Y-90526049D01*
X137800982Y-90412306D01*
X137825000Y-90291557D01*
X137825000Y-90186250D01*
X137668752Y-90030002D01*
X137825000Y-90030002D01*
X137825000Y-89997436D01*
X139125000Y-91297437D01*
X139125000Y-94750000D01*
X139031250Y-94750000D01*
X138875000Y-94906250D01*
X138875000Y-95875000D01*
X138895000Y-95875000D01*
X138895000Y-96125000D01*
X138875000Y-96125000D01*
X138875000Y-97093750D01*
X139031250Y-97250000D01*
X139125000Y-97250000D01*
X139125000Y-97750000D01*
X139031250Y-97750000D01*
X138875000Y-97906250D01*
X138875000Y-98875000D01*
X138895000Y-98875000D01*
X138895000Y-99125000D01*
X138875000Y-99125000D01*
X138875000Y-100093750D01*
X139031250Y-100250000D01*
X139125000Y-100250000D01*
X139125000Y-100387564D01*
X138790588Y-100721976D01*
X137900000Y-100721976D01*
X137800471Y-100729913D01*
X137631659Y-100782191D01*
X137484095Y-100879429D01*
X137369463Y-101013927D01*
X137296840Y-101175037D01*
X137271976Y-101350000D01*
X137271976Y-102650000D01*
X137279913Y-102749529D01*
X137332191Y-102918341D01*
X137429429Y-103065905D01*
X137563927Y-103180537D01*
X137725037Y-103253160D01*
X137900000Y-103278024D01*
X138790588Y-103278024D01*
X139125000Y-103612436D01*
X139125000Y-106222129D01*
X138968608Y-106408509D01*
X138851081Y-106622291D01*
X138777315Y-106854828D01*
X138750122Y-107097265D01*
X138750000Y-107114718D01*
X138750000Y-108885282D01*
X138773806Y-109128075D01*
X138844317Y-109361620D01*
X138958848Y-109577021D01*
X139113037Y-109766075D01*
X139301009Y-109921579D01*
X139515606Y-110037611D01*
X139748653Y-110109751D01*
X139991273Y-110135252D01*
X140234227Y-110113141D01*
X140468258Y-110044262D01*
X140684454Y-109931237D01*
X140874579Y-109778373D01*
X141031392Y-109591491D01*
X141148919Y-109377709D01*
X141222685Y-109145172D01*
X141249878Y-108902735D01*
X141250000Y-108885282D01*
X141250000Y-107114718D01*
X141226194Y-106871925D01*
X141155683Y-106638380D01*
X141041152Y-106422979D01*
X140886963Y-106233925D01*
X140875000Y-106224028D01*
X140875000Y-103278024D01*
X141037034Y-103278024D01*
X141415000Y-103655990D01*
X141415000Y-106578782D01*
X141391081Y-106622291D01*
X141317315Y-106854828D01*
X141290122Y-107097265D01*
X141290000Y-107114718D01*
X141290000Y-108885282D01*
X141313806Y-109128075D01*
X141384317Y-109361620D01*
X141498848Y-109577021D01*
X141653037Y-109766075D01*
X141841009Y-109921579D01*
X142055606Y-110037611D01*
X142288653Y-110109751D01*
X142531273Y-110135252D01*
X142774227Y-110113141D01*
X143008258Y-110044262D01*
X143224454Y-109931237D01*
X143414579Y-109778373D01*
X143571392Y-109591491D01*
X143688919Y-109377709D01*
X143762685Y-109145172D01*
X143789878Y-108902735D01*
X143790000Y-108885282D01*
X143790000Y-107114718D01*
X143766194Y-106871925D01*
X143695683Y-106638380D01*
X143665000Y-106580674D01*
X143665000Y-103190000D01*
X143664715Y-103187084D01*
X151628481Y-103187084D01*
X151707250Y-103616261D01*
X151867879Y-104021964D01*
X152104251Y-104388741D01*
X152407362Y-104702621D01*
X152765666Y-104951650D01*
X153165516Y-105126340D01*
X153591682Y-105220039D01*
X154027932Y-105229177D01*
X154457648Y-105153406D01*
X154864463Y-104995613D01*
X155232881Y-104761808D01*
X155548870Y-104460896D01*
X155800393Y-104104338D01*
X155977871Y-103705717D01*
X156074542Y-103280216D01*
X156081502Y-102781827D01*
X155996748Y-102353793D01*
X155830470Y-101950371D01*
X155589001Y-101586930D01*
X155281537Y-101277313D01*
X154919790Y-101033312D01*
X154517540Y-100864221D01*
X154090107Y-100776482D01*
X153653773Y-100773436D01*
X153225157Y-100855198D01*
X152820584Y-101018656D01*
X152455467Y-101257583D01*
X152143710Y-101562877D01*
X151897189Y-101922912D01*
X151725295Y-102323972D01*
X151634573Y-102750782D01*
X151628481Y-103187084D01*
X143664715Y-103187084D01*
X143654855Y-103086531D01*
X143645802Y-102983054D01*
X143644153Y-102977377D01*
X143643575Y-102971486D01*
X143613538Y-102871999D01*
X143584547Y-102772212D01*
X143581823Y-102766957D01*
X143580114Y-102761296D01*
X143531362Y-102669606D01*
X143483505Y-102577281D01*
X143479810Y-102572653D01*
X143477036Y-102567435D01*
X143411396Y-102486953D01*
X143346524Y-102405689D01*
X143338404Y-102397454D01*
X143338267Y-102397287D01*
X143338112Y-102397159D01*
X143335495Y-102394505D01*
X142728024Y-101787034D01*
X142728024Y-101350000D01*
X142720087Y-101250471D01*
X142667809Y-101081659D01*
X142570571Y-100934095D01*
X142436073Y-100819463D01*
X142375000Y-100791933D01*
X142375000Y-100122526D01*
X142415905Y-100095571D01*
X142530537Y-99961073D01*
X142603160Y-99799963D01*
X142628024Y-99625000D01*
X142628024Y-98375000D01*
X142620087Y-98275471D01*
X142567809Y-98106659D01*
X142470571Y-97959095D01*
X142375000Y-97877640D01*
X142375000Y-97125000D01*
X146498765Y-97125000D01*
X146563927Y-97180537D01*
X146725037Y-97253160D01*
X146900000Y-97278024D01*
X148400000Y-97278024D01*
X148499529Y-97270087D01*
X148668341Y-97217809D01*
X148815905Y-97120571D01*
X148930537Y-96986073D01*
X149003160Y-96824963D01*
X149003196Y-96824712D01*
X149032191Y-96918341D01*
X149129429Y-97065905D01*
X149263927Y-97180537D01*
X149425037Y-97253160D01*
X149600000Y-97278024D01*
X151100000Y-97278024D01*
X151199529Y-97270087D01*
X151368341Y-97217809D01*
X151515905Y-97120571D01*
X151630537Y-96986073D01*
X151703160Y-96824963D01*
X151728024Y-96650000D01*
X151728024Y-95350000D01*
X151720087Y-95250471D01*
X151667809Y-95081659D01*
X151570571Y-94934095D01*
X151436073Y-94819463D01*
X151274963Y-94746840D01*
X151225000Y-94739740D01*
X151225000Y-94262199D01*
X151368341Y-94217809D01*
X151515905Y-94120571D01*
X151630537Y-93986073D01*
X151703160Y-93824963D01*
X151728024Y-93650000D01*
X151728024Y-92350000D01*
X151720087Y-92250471D01*
X151667809Y-92081659D01*
X151570571Y-91934095D01*
X151436073Y-91819463D01*
X151274963Y-91746840D01*
X151100000Y-91721976D01*
X149600000Y-91721976D01*
X149500471Y-91729913D01*
X149331659Y-91782191D01*
X149184095Y-91879429D01*
X149069463Y-92013927D01*
X148996840Y-92175037D01*
X148996804Y-92175288D01*
X148967809Y-92081659D01*
X148870571Y-91934095D01*
X148736073Y-91819463D01*
X148574963Y-91746840D01*
X148400000Y-91721976D01*
X147509412Y-91721976D01*
X147065460Y-91278024D01*
X148400000Y-91278024D01*
X148499529Y-91270087D01*
X148668341Y-91217809D01*
X148815905Y-91120571D01*
X148930537Y-90986073D01*
X149003160Y-90824963D01*
X149003196Y-90824712D01*
X149032191Y-90918341D01*
X149129429Y-91065905D01*
X149263927Y-91180537D01*
X149425037Y-91253160D01*
X149600000Y-91278024D01*
X151100000Y-91278024D01*
X151199529Y-91270087D01*
X151368341Y-91217809D01*
X151515905Y-91120571D01*
X151630537Y-90986073D01*
X151680605Y-90875000D01*
X152137564Y-90875000D01*
X155775000Y-94512437D01*
X155775000Y-99707814D01*
X155769453Y-99715915D01*
X155692197Y-99896167D01*
X155651423Y-100087992D01*
X155648685Y-100284083D01*
X155684087Y-100476971D01*
X155756280Y-100659310D01*
X155862514Y-100824154D01*
X155998744Y-100965223D01*
X156159780Y-101077146D01*
X156339488Y-101155659D01*
X156531023Y-101197770D01*
X156727090Y-101201877D01*
X156920221Y-101167823D01*
X157103059Y-101096905D01*
X157268641Y-100991824D01*
X157410658Y-100856583D01*
X157523702Y-100696332D01*
X157603468Y-100517176D01*
X157646916Y-100325940D01*
X157650043Y-100101945D01*
X157611952Y-99909570D01*
X157537220Y-99728257D01*
X157525000Y-99709864D01*
X157525000Y-94150000D01*
X157517110Y-94069529D01*
X157510068Y-93989042D01*
X157508785Y-93984627D01*
X157508336Y-93980045D01*
X157484949Y-93902585D01*
X157462424Y-93825053D01*
X157460310Y-93820974D01*
X157458978Y-93816563D01*
X157421006Y-93745147D01*
X157383837Y-93673441D01*
X157380966Y-93669845D01*
X157378806Y-93665782D01*
X157327743Y-93603173D01*
X157277297Y-93539980D01*
X157270978Y-93533573D01*
X157270874Y-93533445D01*
X157270755Y-93533347D01*
X157268718Y-93531281D01*
X153118718Y-89381282D01*
X153056248Y-89329967D01*
X152994346Y-89278026D01*
X152990319Y-89275812D01*
X152986759Y-89272888D01*
X152915469Y-89234663D01*
X152844699Y-89195757D01*
X152840315Y-89194366D01*
X152836258Y-89192191D01*
X152758959Y-89168558D01*
X152681923Y-89144121D01*
X152677349Y-89143608D01*
X152672950Y-89142263D01*
X152592594Y-89134101D01*
X152512217Y-89125085D01*
X152503215Y-89125022D01*
X152503054Y-89125006D01*
X152502904Y-89125020D01*
X152500000Y-89125000D01*
X151681231Y-89125000D01*
X151667809Y-89081659D01*
X151570571Y-88934095D01*
X151436073Y-88819463D01*
X151274963Y-88746840D01*
X151100000Y-88721976D01*
X149600000Y-88721976D01*
X149500471Y-88729913D01*
X149331659Y-88782191D01*
X149184095Y-88879429D01*
X149069463Y-89013927D01*
X148996840Y-89175037D01*
X148996804Y-89175288D01*
X148967809Y-89081659D01*
X148870571Y-88934095D01*
X148736073Y-88819463D01*
X148574963Y-88746840D01*
X148400000Y-88721976D01*
X147609413Y-88721976D01*
X147165460Y-88278024D01*
X148400000Y-88278024D01*
X148499529Y-88270087D01*
X148668341Y-88217809D01*
X148815905Y-88120571D01*
X148930537Y-87986073D01*
X149003160Y-87824963D01*
X149003196Y-87824712D01*
X149032191Y-87918341D01*
X149129429Y-88065905D01*
X149263927Y-88180537D01*
X149425037Y-88253160D01*
X149600000Y-88278024D01*
X151100000Y-88278024D01*
X151199529Y-88270087D01*
X151368341Y-88217809D01*
X151515905Y-88120571D01*
X151630537Y-87986073D01*
X151703160Y-87824963D01*
X151728024Y-87650000D01*
X151728024Y-86350000D01*
X151720087Y-86250471D01*
X151667809Y-86081659D01*
X151570571Y-85934095D01*
X151436073Y-85819463D01*
X151274963Y-85746840D01*
X151225000Y-85739740D01*
X151225000Y-82750000D01*
X151217110Y-82669529D01*
X151210068Y-82589042D01*
X151208785Y-82584627D01*
X151208336Y-82580045D01*
X151184949Y-82502585D01*
X151162424Y-82425053D01*
X151160310Y-82420974D01*
X151158978Y-82416563D01*
X151121006Y-82345147D01*
X151083837Y-82273441D01*
X151080966Y-82269845D01*
X151078806Y-82265782D01*
X151027743Y-82203173D01*
X150977297Y-82139980D01*
X150970978Y-82133573D01*
X150970874Y-82133445D01*
X150970755Y-82133347D01*
X150968718Y-82131281D01*
X146218718Y-77381282D01*
X146155040Y-77328975D01*
X146091822Y-77276305D01*
X146089136Y-77274841D01*
X146086759Y-77272888D01*
X146014089Y-77233923D01*
X145941889Y-77194558D01*
X145938961Y-77193641D01*
X145936258Y-77192191D01*
X145857539Y-77168124D01*
X145778934Y-77143491D01*
X145775882Y-77143159D01*
X145772950Y-77142263D01*
X145691098Y-77133949D01*
X145609163Y-77125048D01*
X145606103Y-77125316D01*
X145603054Y-77125006D01*
X145521075Y-77132755D01*
X145439042Y-77139932D01*
X145436099Y-77140787D01*
X145433042Y-77141076D01*
X145403108Y-77150000D01*
X144316128Y-77150000D01*
X144302926Y-77141095D01*
X144122139Y-77065099D01*
X143930034Y-77025666D01*
X143733929Y-77024297D01*
X143541292Y-77061044D01*
X143359462Y-77134508D01*
X143195364Y-77241891D01*
X143055249Y-77379102D01*
X142944453Y-77540915D01*
X142867197Y-77721167D01*
X142826423Y-77912992D01*
X142823685Y-78109083D01*
X142859087Y-78301971D01*
X142931280Y-78484310D01*
X143037514Y-78649154D01*
X143173744Y-78790223D01*
X143334780Y-78902146D01*
X143514488Y-78980659D01*
X143706023Y-79022770D01*
X143902090Y-79026877D01*
X144095221Y-78992823D01*
X144278059Y-78921905D01*
X144312576Y-78900000D01*
X145262564Y-78900000D01*
X149475000Y-83112437D01*
X149475000Y-85737801D01*
X149331659Y-85782191D01*
X149184095Y-85879429D01*
X149069463Y-86013927D01*
X148996840Y-86175037D01*
X148996804Y-86175288D01*
X148967809Y-86081659D01*
X148870571Y-85934095D01*
X148736073Y-85819463D01*
X148574963Y-85746840D01*
X148400000Y-85721976D01*
X146900000Y-85721976D01*
X146800471Y-85729913D01*
X146631659Y-85782191D01*
X146484095Y-85879429D01*
X146369463Y-86013927D01*
X146296840Y-86175037D01*
X146271976Y-86350000D01*
X146271976Y-86490000D01*
X145118076Y-86490000D01*
X145128024Y-86420000D01*
X145128024Y-85770000D01*
X145120087Y-85670471D01*
X145067809Y-85501659D01*
X144970571Y-85354095D01*
X144875000Y-85272640D01*
X144875000Y-84122526D01*
X144915905Y-84095571D01*
X144998215Y-83998996D01*
X145014531Y-84023414D01*
X145101586Y-84110469D01*
X145203952Y-84178868D01*
X145317694Y-84225982D01*
X145438443Y-84250000D01*
X145968750Y-84250000D01*
X146125000Y-84093750D01*
X146125000Y-83125000D01*
X146375000Y-83125000D01*
X146375000Y-84093750D01*
X146531250Y-84250000D01*
X147061557Y-84250000D01*
X147182306Y-84225982D01*
X147296048Y-84178868D01*
X147398414Y-84110469D01*
X147485469Y-84023414D01*
X147553868Y-83921049D01*
X147600982Y-83807306D01*
X147625000Y-83686557D01*
X147625000Y-83281250D01*
X147468750Y-83125000D01*
X146375000Y-83125000D01*
X146125000Y-83125000D01*
X146105000Y-83125000D01*
X146105000Y-82875000D01*
X146125000Y-82875000D01*
X146125000Y-81906250D01*
X146375000Y-81906250D01*
X146375000Y-82875000D01*
X147468750Y-82875000D01*
X147625000Y-82718750D01*
X147625000Y-82313443D01*
X147600982Y-82192694D01*
X147553868Y-82078951D01*
X147485469Y-81976586D01*
X147398414Y-81889531D01*
X147296048Y-81821132D01*
X147182306Y-81774018D01*
X147061557Y-81750000D01*
X146531250Y-81750000D01*
X146375000Y-81906250D01*
X146125000Y-81906250D01*
X145968750Y-81750000D01*
X145438443Y-81750000D01*
X145317694Y-81774018D01*
X145203952Y-81821132D01*
X145101586Y-81889531D01*
X145014531Y-81976586D01*
X144998201Y-82001025D01*
X144970571Y-81959095D01*
X144836073Y-81844463D01*
X144674963Y-81771840D01*
X144500000Y-81746976D01*
X143000000Y-81746976D01*
X142900471Y-81754913D01*
X142731659Y-81807191D01*
X142584095Y-81904429D01*
X142469463Y-82038927D01*
X142396840Y-82200037D01*
X142371976Y-82375000D01*
X142371976Y-83625000D01*
X142379913Y-83724529D01*
X142432191Y-83893341D01*
X142529429Y-84040905D01*
X142625000Y-84122360D01*
X142625000Y-84970000D01*
X141800000Y-84970000D01*
X141696531Y-84980145D01*
X141593054Y-84989198D01*
X141587377Y-84990847D01*
X141581486Y-84991425D01*
X141481966Y-85021472D01*
X141382211Y-85050454D01*
X141376960Y-85053176D01*
X141371296Y-85054886D01*
X141292678Y-85096688D01*
X139600495Y-83404505D01*
X139520190Y-83338541D01*
X139440588Y-83271747D01*
X139435405Y-83268898D01*
X139430833Y-83265142D01*
X139339254Y-83216038D01*
X139248185Y-83165973D01*
X139242544Y-83164183D01*
X139237332Y-83161389D01*
X139138015Y-83131025D01*
X139038901Y-83099584D01*
X139033017Y-83098924D01*
X139027365Y-83097196D01*
X138924015Y-83086698D01*
X138820707Y-83075110D01*
X138809144Y-83075029D01*
X138808927Y-83075007D01*
X138808725Y-83075026D01*
X138805000Y-83075000D01*
X133097526Y-83075000D01*
X133070571Y-83034095D01*
X132936073Y-82919463D01*
X132774963Y-82846840D01*
X132600000Y-82821976D01*
X131400000Y-82821976D01*
X131300471Y-82829913D01*
X131131659Y-82882191D01*
X131001707Y-82967824D01*
X130998414Y-82964531D01*
X130896048Y-82896132D01*
X130782306Y-82849018D01*
X130661557Y-82825000D01*
X130281250Y-82825000D01*
X130125000Y-82981250D01*
X130125000Y-84075000D01*
X130145000Y-84075000D01*
X130145000Y-84325000D01*
X130125000Y-84325000D01*
X130125000Y-85418750D01*
X130281250Y-85575000D01*
X130661557Y-85575000D01*
X130782306Y-85550982D01*
X130896048Y-85503868D01*
X130998414Y-85435469D01*
X131004228Y-85429655D01*
X131063927Y-85480537D01*
X131225037Y-85553160D01*
X131400000Y-85578024D01*
X132600000Y-85578024D01*
X132699529Y-85570087D01*
X132868341Y-85517809D01*
X133015905Y-85420571D01*
X133097360Y-85325000D01*
X135062301Y-85325000D01*
X134969463Y-85433927D01*
X134896840Y-85595037D01*
X134871976Y-85770000D01*
X134871976Y-86420000D01*
X134879913Y-86519529D01*
X134912575Y-86625000D01*
X132426030Y-86625000D01*
X132420087Y-86550471D01*
X132367809Y-86381659D01*
X132270571Y-86234095D01*
X132136073Y-86119463D01*
X131974963Y-86046840D01*
X131800000Y-86021976D01*
X130200000Y-86021976D01*
X130100471Y-86029913D01*
X129931659Y-86082191D01*
X129784095Y-86179429D01*
X129669463Y-86313927D01*
X129596840Y-86475037D01*
X129571976Y-86650000D01*
X122671311Y-86650000D01*
X123863591Y-84481250D01*
X128775000Y-84481250D01*
X128775000Y-85011557D01*
X128799018Y-85132306D01*
X128846132Y-85246049D01*
X128914531Y-85348414D01*
X129001586Y-85435469D01*
X129103952Y-85503868D01*
X129217694Y-85550982D01*
X129338443Y-85575000D01*
X129718750Y-85575000D01*
X129875000Y-85418750D01*
X129875000Y-84325000D01*
X128931250Y-84325000D01*
X128775000Y-84481250D01*
X123863591Y-84481250D01*
X124075309Y-84096137D01*
X124669134Y-83388443D01*
X128775000Y-83388443D01*
X128775000Y-83918750D01*
X128931250Y-84075000D01*
X129875000Y-84075000D01*
X129875000Y-82981250D01*
X129718750Y-82825000D01*
X129338443Y-82825000D01*
X129217694Y-82849018D01*
X129103952Y-82896132D01*
X129001586Y-82964531D01*
X128914531Y-83051586D01*
X128846132Y-83153951D01*
X128799018Y-83267694D01*
X128775000Y-83388443D01*
X124669134Y-83388443D01*
X126496498Y-81210677D01*
X129013340Y-79187084D01*
X137772075Y-79187084D01*
X137850844Y-79616261D01*
X138011473Y-80021964D01*
X138247845Y-80388741D01*
X138550956Y-80702621D01*
X138909260Y-80951650D01*
X139309110Y-81126340D01*
X139735276Y-81220039D01*
X140171526Y-81229177D01*
X140601242Y-81153406D01*
X141008057Y-80995613D01*
X141376475Y-80761808D01*
X141692464Y-80460896D01*
X141943987Y-80104338D01*
X142121465Y-79705717D01*
X142218136Y-79280216D01*
X142225096Y-78781827D01*
X142140342Y-78353793D01*
X141974064Y-77950371D01*
X141732595Y-77586930D01*
X141425131Y-77277313D01*
X141063384Y-77033312D01*
X140661134Y-76864221D01*
X140233701Y-76776482D01*
X139797367Y-76773436D01*
X139368751Y-76855198D01*
X138964178Y-77018656D01*
X138599061Y-77257583D01*
X138287304Y-77562877D01*
X138040783Y-77922912D01*
X137868889Y-78323972D01*
X137778167Y-78750782D01*
X137772075Y-79187084D01*
X129013340Y-79187084D01*
X129432030Y-78850449D01*
X132770093Y-77105352D01*
X136383541Y-76041856D01*
X140134738Y-75700470D01*
X143880804Y-76094198D01*
X143880804Y-76094198D01*
G37*
X143880804Y-76094198D02*
X147479051Y-77208041D01*
X150792423Y-78999575D01*
X153694715Y-81400560D01*
X156075380Y-84319543D01*
X157843738Y-87645342D01*
X158932434Y-91251277D01*
X159300000Y-95000000D01*
X159292475Y-95538888D01*
X158820383Y-99275886D01*
X157631427Y-102850017D01*
X155770897Y-106125144D01*
X153309657Y-108976517D01*
X150341457Y-111295529D01*
X146979354Y-112993849D01*
X143351410Y-114006790D01*
X139595811Y-114295767D01*
X135855608Y-113849775D01*
X132273264Y-112685801D01*
X128985228Y-110848180D01*
X126116742Y-108406907D01*
X125893306Y-108125000D01*
X136210000Y-108125000D01*
X136210000Y-109000000D01*
X136258405Y-109241461D01*
X136352986Y-109468839D01*
X136490109Y-109673396D01*
X136664505Y-109847271D01*
X136869471Y-109983782D01*
X137097130Y-110077684D01*
X137141976Y-110083867D01*
X137335000Y-109961584D01*
X137335000Y-108125000D01*
X137585000Y-108125000D01*
X137585000Y-109961584D01*
X137778024Y-110083867D01*
X137822870Y-110077684D01*
X138050529Y-109983782D01*
X138255495Y-109847271D01*
X138429891Y-109673396D01*
X138567014Y-109468839D01*
X138661595Y-109241461D01*
X138710000Y-109000000D01*
X138710000Y-108125000D01*
X137585000Y-108125000D01*
X137335000Y-108125000D01*
X136210000Y-108125000D01*
X125893306Y-108125000D01*
X125001643Y-107000000D01*
X136210000Y-107000000D01*
X136210000Y-107875000D01*
X137335000Y-107875000D01*
X137335000Y-106038416D01*
X137585000Y-106038416D01*
X137585000Y-107875000D01*
X138710000Y-107875000D01*
X138710000Y-107000000D01*
X138661595Y-106758539D01*
X138567014Y-106531161D01*
X138429891Y-106326604D01*
X138255495Y-106152729D01*
X138050529Y-106016218D01*
X137822870Y-105922316D01*
X137778024Y-105916133D01*
X137585000Y-106038416D01*
X137335000Y-106038416D01*
X137141976Y-105916133D01*
X137097130Y-105922316D01*
X136869471Y-106016218D01*
X136664505Y-106152729D01*
X136490109Y-106326604D01*
X136352986Y-106531161D01*
X136258405Y-106758539D01*
X136210000Y-107000000D01*
X125001643Y-107000000D01*
X123777065Y-105454968D01*
X122611531Y-103187084D01*
X123915669Y-103187084D01*
X123994438Y-103616261D01*
X124155067Y-104021964D01*
X124391439Y-104388741D01*
X124694550Y-104702621D01*
X125052854Y-104951650D01*
X125452704Y-105126340D01*
X125878870Y-105220039D01*
X126315120Y-105229177D01*
X126744836Y-105153406D01*
X127151651Y-104995613D01*
X127520069Y-104761808D01*
X127836058Y-104460896D01*
X128087581Y-104104338D01*
X128265059Y-103705717D01*
X128361730Y-103280216D01*
X128368690Y-102781827D01*
X128283936Y-102353793D01*
X128117658Y-101950371D01*
X127876189Y-101586930D01*
X127568725Y-101277313D01*
X127206978Y-101033312D01*
X126804728Y-100864221D01*
X126377295Y-100776482D01*
X125940961Y-100773436D01*
X125512345Y-100855198D01*
X125107772Y-101018656D01*
X124742655Y-101257583D01*
X124430898Y-101562877D01*
X124184377Y-101922912D01*
X124012483Y-102323972D01*
X123921761Y-102750782D01*
X123915669Y-103187084D01*
X122611531Y-103187084D01*
X122055314Y-102104804D01*
X121245674Y-99281250D01*
X137375000Y-99281250D01*
X137375000Y-99686557D01*
X137399018Y-99807306D01*
X137446132Y-99921049D01*
X137514531Y-100023414D01*
X137601586Y-100110469D01*
X137703952Y-100178868D01*
X137817694Y-100225982D01*
X137938443Y-100250000D01*
X138468750Y-100250000D01*
X138625000Y-100093750D01*
X138625000Y-99125000D01*
X137531250Y-99125000D01*
X137375000Y-99281250D01*
X121245674Y-99281250D01*
X121017071Y-98484020D01*
X121002748Y-98313443D01*
X137375000Y-98313443D01*
X137375000Y-98718750D01*
X137531250Y-98875000D01*
X138625000Y-98875000D01*
X138625000Y-97906250D01*
X138468750Y-97750000D01*
X137938443Y-97750000D01*
X137817694Y-97774018D01*
X137703952Y-97821132D01*
X137601586Y-97889531D01*
X137514531Y-97976586D01*
X137446132Y-98078951D01*
X137399018Y-98192694D01*
X137375000Y-98313443D01*
X121002748Y-98313443D01*
X120832100Y-96281250D01*
X137375000Y-96281250D01*
X137375000Y-96686557D01*
X137399018Y-96807306D01*
X137446132Y-96921049D01*
X137514531Y-97023414D01*
X137601586Y-97110469D01*
X137703952Y-97178868D01*
X137817694Y-97225982D01*
X137938443Y-97250000D01*
X138468750Y-97250000D01*
X138625000Y-97093750D01*
X138625000Y-96125000D01*
X137531250Y-96125000D01*
X137375000Y-96281250D01*
X120832100Y-96281250D01*
X120750831Y-95313443D01*
X137375000Y-95313443D01*
X137375000Y-95718750D01*
X137531250Y-95875000D01*
X138625000Y-95875000D01*
X138625000Y-94906250D01*
X138468750Y-94750000D01*
X137938443Y-94750000D01*
X137817694Y-94774018D01*
X137703952Y-94821132D01*
X137601586Y-94889531D01*
X137514531Y-94976586D01*
X137446132Y-95078951D01*
X137399018Y-95192694D01*
X137375000Y-95313443D01*
X120750831Y-95313443D01*
X120701881Y-94730530D01*
X121121751Y-90987304D01*
X121375860Y-90186250D01*
X134875000Y-90186250D01*
X134875000Y-90291557D01*
X134899018Y-90412306D01*
X134946132Y-90526049D01*
X135014531Y-90628414D01*
X135101586Y-90715469D01*
X135203952Y-90783868D01*
X135317694Y-90830982D01*
X135438443Y-90855000D01*
X136068750Y-90855000D01*
X136225000Y-90698750D01*
X136225000Y-90030000D01*
X135031250Y-90030000D01*
X134875000Y-90186250D01*
X121375860Y-90186250D01*
X122260688Y-87396921D01*
X122671311Y-86650000D01*
X129571976Y-86650000D01*
X129571976Y-88350000D01*
X129579913Y-88449529D01*
X129632191Y-88618341D01*
X129729429Y-88765905D01*
X129863927Y-88880537D01*
X130025037Y-88953160D01*
X130200000Y-88978024D01*
X131800000Y-88978024D01*
X131899529Y-88970087D01*
X132068341Y-88917809D01*
X132215905Y-88820571D01*
X132330537Y-88686073D01*
X132403160Y-88524963D01*
X132424471Y-88375000D01*
X134871976Y-88375000D01*
X134871976Y-88960000D01*
X134879913Y-89059529D01*
X134932191Y-89228341D01*
X134957563Y-89266844D01*
X134946132Y-89283951D01*
X134899018Y-89397694D01*
X134875000Y-89518443D01*
X134875000Y-89623750D01*
X135031250Y-89780000D01*
X136225000Y-89780000D01*
X136225000Y-89760000D01*
X136475000Y-89760000D01*
X136475000Y-89780000D01*
X136495000Y-89780000D01*
X136495000Y-90030000D01*
X136475000Y-90030000D01*
X136475000Y-90698750D01*
X136631250Y-90855000D01*
X137261557Y-90855000D01*
X137382306Y-90830982D01*
X137496048Y-90783868D01*
X137598414Y-90715469D01*
X137685469Y-90628414D01*
X137753868Y-90526049D01*
X137800982Y-90412306D01*
X137825000Y-90291557D01*
X137825000Y-90186250D01*
X137668752Y-90030002D01*
X137825000Y-90030002D01*
X137825000Y-89997436D01*
X139125000Y-91297437D01*
X139125000Y-94750000D01*
X139031250Y-94750000D01*
X138875000Y-94906250D01*
X138875000Y-95875000D01*
X138895000Y-95875000D01*
X138895000Y-96125000D01*
X138875000Y-96125000D01*
X138875000Y-97093750D01*
X139031250Y-97250000D01*
X139125000Y-97250000D01*
X139125000Y-97750000D01*
X139031250Y-97750000D01*
X138875000Y-97906250D01*
X138875000Y-98875000D01*
X138895000Y-98875000D01*
X138895000Y-99125000D01*
X138875000Y-99125000D01*
X138875000Y-100093750D01*
X139031250Y-100250000D01*
X139125000Y-100250000D01*
X139125000Y-100387564D01*
X138790588Y-100721976D01*
X137900000Y-100721976D01*
X137800471Y-100729913D01*
X137631659Y-100782191D01*
X137484095Y-100879429D01*
X137369463Y-101013927D01*
X137296840Y-101175037D01*
X137271976Y-101350000D01*
X137271976Y-102650000D01*
X137279913Y-102749529D01*
X137332191Y-102918341D01*
X137429429Y-103065905D01*
X137563927Y-103180537D01*
X137725037Y-103253160D01*
X137900000Y-103278024D01*
X138790588Y-103278024D01*
X139125000Y-103612436D01*
X139125000Y-106222129D01*
X138968608Y-106408509D01*
X138851081Y-106622291D01*
X138777315Y-106854828D01*
X138750122Y-107097265D01*
X138750000Y-107114718D01*
X138750000Y-108885282D01*
X138773806Y-109128075D01*
X138844317Y-109361620D01*
X138958848Y-109577021D01*
X139113037Y-109766075D01*
X139301009Y-109921579D01*
X139515606Y-110037611D01*
X139748653Y-110109751D01*
X139991273Y-110135252D01*
X140234227Y-110113141D01*
X140468258Y-110044262D01*
X140684454Y-109931237D01*
X140874579Y-109778373D01*
X141031392Y-109591491D01*
X141148919Y-109377709D01*
X141222685Y-109145172D01*
X141249878Y-108902735D01*
X141250000Y-108885282D01*
X141250000Y-107114718D01*
X141226194Y-106871925D01*
X141155683Y-106638380D01*
X141041152Y-106422979D01*
X140886963Y-106233925D01*
X140875000Y-106224028D01*
X140875000Y-103278024D01*
X141037034Y-103278024D01*
X141415000Y-103655990D01*
X141415000Y-106578782D01*
X141391081Y-106622291D01*
X141317315Y-106854828D01*
X141290122Y-107097265D01*
X141290000Y-107114718D01*
X141290000Y-108885282D01*
X141313806Y-109128075D01*
X141384317Y-109361620D01*
X141498848Y-109577021D01*
X141653037Y-109766075D01*
X141841009Y-109921579D01*
X142055606Y-110037611D01*
X142288653Y-110109751D01*
X142531273Y-110135252D01*
X142774227Y-110113141D01*
X143008258Y-110044262D01*
X143224454Y-109931237D01*
X143414579Y-109778373D01*
X143571392Y-109591491D01*
X143688919Y-109377709D01*
X143762685Y-109145172D01*
X143789878Y-108902735D01*
X143790000Y-108885282D01*
X143790000Y-107114718D01*
X143766194Y-106871925D01*
X143695683Y-106638380D01*
X143665000Y-106580674D01*
X143665000Y-103190000D01*
X143664715Y-103187084D01*
X151628481Y-103187084D01*
X151707250Y-103616261D01*
X151867879Y-104021964D01*
X152104251Y-104388741D01*
X152407362Y-104702621D01*
X152765666Y-104951650D01*
X153165516Y-105126340D01*
X153591682Y-105220039D01*
X154027932Y-105229177D01*
X154457648Y-105153406D01*
X154864463Y-104995613D01*
X155232881Y-104761808D01*
X155548870Y-104460896D01*
X155800393Y-104104338D01*
X155977871Y-103705717D01*
X156074542Y-103280216D01*
X156081502Y-102781827D01*
X155996748Y-102353793D01*
X155830470Y-101950371D01*
X155589001Y-101586930D01*
X155281537Y-101277313D01*
X154919790Y-101033312D01*
X154517540Y-100864221D01*
X154090107Y-100776482D01*
X153653773Y-100773436D01*
X153225157Y-100855198D01*
X152820584Y-101018656D01*
X152455467Y-101257583D01*
X152143710Y-101562877D01*
X151897189Y-101922912D01*
X151725295Y-102323972D01*
X151634573Y-102750782D01*
X151628481Y-103187084D01*
X143664715Y-103187084D01*
X143654855Y-103086531D01*
X143645802Y-102983054D01*
X143644153Y-102977377D01*
X143643575Y-102971486D01*
X143613538Y-102871999D01*
X143584547Y-102772212D01*
X143581823Y-102766957D01*
X143580114Y-102761296D01*
X143531362Y-102669606D01*
X143483505Y-102577281D01*
X143479810Y-102572653D01*
X143477036Y-102567435D01*
X143411396Y-102486953D01*
X143346524Y-102405689D01*
X143338404Y-102397454D01*
X143338267Y-102397287D01*
X143338112Y-102397159D01*
X143335495Y-102394505D01*
X142728024Y-101787034D01*
X142728024Y-101350000D01*
X142720087Y-101250471D01*
X142667809Y-101081659D01*
X142570571Y-100934095D01*
X142436073Y-100819463D01*
X142375000Y-100791933D01*
X142375000Y-100122526D01*
X142415905Y-100095571D01*
X142530537Y-99961073D01*
X142603160Y-99799963D01*
X142628024Y-99625000D01*
X142628024Y-98375000D01*
X142620087Y-98275471D01*
X142567809Y-98106659D01*
X142470571Y-97959095D01*
X142375000Y-97877640D01*
X142375000Y-97125000D01*
X146498765Y-97125000D01*
X146563927Y-97180537D01*
X146725037Y-97253160D01*
X146900000Y-97278024D01*
X148400000Y-97278024D01*
X148499529Y-97270087D01*
X148668341Y-97217809D01*
X148815905Y-97120571D01*
X148930537Y-96986073D01*
X149003160Y-96824963D01*
X149003196Y-96824712D01*
X149032191Y-96918341D01*
X149129429Y-97065905D01*
X149263927Y-97180537D01*
X149425037Y-97253160D01*
X149600000Y-97278024D01*
X151100000Y-97278024D01*
X151199529Y-97270087D01*
X151368341Y-97217809D01*
X151515905Y-97120571D01*
X151630537Y-96986073D01*
X151703160Y-96824963D01*
X151728024Y-96650000D01*
X151728024Y-95350000D01*
X151720087Y-95250471D01*
X151667809Y-95081659D01*
X151570571Y-94934095D01*
X151436073Y-94819463D01*
X151274963Y-94746840D01*
X151225000Y-94739740D01*
X151225000Y-94262199D01*
X151368341Y-94217809D01*
X151515905Y-94120571D01*
X151630537Y-93986073D01*
X151703160Y-93824963D01*
X151728024Y-93650000D01*
X151728024Y-92350000D01*
X151720087Y-92250471D01*
X151667809Y-92081659D01*
X151570571Y-91934095D01*
X151436073Y-91819463D01*
X151274963Y-91746840D01*
X151100000Y-91721976D01*
X149600000Y-91721976D01*
X149500471Y-91729913D01*
X149331659Y-91782191D01*
X149184095Y-91879429D01*
X149069463Y-92013927D01*
X148996840Y-92175037D01*
X148996804Y-92175288D01*
X148967809Y-92081659D01*
X148870571Y-91934095D01*
X148736073Y-91819463D01*
X148574963Y-91746840D01*
X148400000Y-91721976D01*
X147509412Y-91721976D01*
X147065460Y-91278024D01*
X148400000Y-91278024D01*
X148499529Y-91270087D01*
X148668341Y-91217809D01*
X148815905Y-91120571D01*
X148930537Y-90986073D01*
X149003160Y-90824963D01*
X149003196Y-90824712D01*
X149032191Y-90918341D01*
X149129429Y-91065905D01*
X149263927Y-91180537D01*
X149425037Y-91253160D01*
X149600000Y-91278024D01*
X151100000Y-91278024D01*
X151199529Y-91270087D01*
X151368341Y-91217809D01*
X151515905Y-91120571D01*
X151630537Y-90986073D01*
X151680605Y-90875000D01*
X152137564Y-90875000D01*
X155775000Y-94512437D01*
X155775000Y-99707814D01*
X155769453Y-99715915D01*
X155692197Y-99896167D01*
X155651423Y-100087992D01*
X155648685Y-100284083D01*
X155684087Y-100476971D01*
X155756280Y-100659310D01*
X155862514Y-100824154D01*
X155998744Y-100965223D01*
X156159780Y-101077146D01*
X156339488Y-101155659D01*
X156531023Y-101197770D01*
X156727090Y-101201877D01*
X156920221Y-101167823D01*
X157103059Y-101096905D01*
X157268641Y-100991824D01*
X157410658Y-100856583D01*
X157523702Y-100696332D01*
X157603468Y-100517176D01*
X157646916Y-100325940D01*
X157650043Y-100101945D01*
X157611952Y-99909570D01*
X157537220Y-99728257D01*
X157525000Y-99709864D01*
X157525000Y-94150000D01*
X157517110Y-94069529D01*
X157510068Y-93989042D01*
X157508785Y-93984627D01*
X157508336Y-93980045D01*
X157484949Y-93902585D01*
X157462424Y-93825053D01*
X157460310Y-93820974D01*
X157458978Y-93816563D01*
X157421006Y-93745147D01*
X157383837Y-93673441D01*
X157380966Y-93669845D01*
X157378806Y-93665782D01*
X157327743Y-93603173D01*
X157277297Y-93539980D01*
X157270978Y-93533573D01*
X157270874Y-93533445D01*
X157270755Y-93533347D01*
X157268718Y-93531281D01*
X153118718Y-89381282D01*
X153056248Y-89329967D01*
X152994346Y-89278026D01*
X152990319Y-89275812D01*
X152986759Y-89272888D01*
X152915469Y-89234663D01*
X152844699Y-89195757D01*
X152840315Y-89194366D01*
X152836258Y-89192191D01*
X152758959Y-89168558D01*
X152681923Y-89144121D01*
X152677349Y-89143608D01*
X152672950Y-89142263D01*
X152592594Y-89134101D01*
X152512217Y-89125085D01*
X152503215Y-89125022D01*
X152503054Y-89125006D01*
X152502904Y-89125020D01*
X152500000Y-89125000D01*
X151681231Y-89125000D01*
X151667809Y-89081659D01*
X151570571Y-88934095D01*
X151436073Y-88819463D01*
X151274963Y-88746840D01*
X151100000Y-88721976D01*
X149600000Y-88721976D01*
X149500471Y-88729913D01*
X149331659Y-88782191D01*
X149184095Y-88879429D01*
X149069463Y-89013927D01*
X148996840Y-89175037D01*
X148996804Y-89175288D01*
X148967809Y-89081659D01*
X148870571Y-88934095D01*
X148736073Y-88819463D01*
X148574963Y-88746840D01*
X148400000Y-88721976D01*
X147609413Y-88721976D01*
X147165460Y-88278024D01*
X148400000Y-88278024D01*
X148499529Y-88270087D01*
X148668341Y-88217809D01*
X148815905Y-88120571D01*
X148930537Y-87986073D01*
X149003160Y-87824963D01*
X149003196Y-87824712D01*
X149032191Y-87918341D01*
X149129429Y-88065905D01*
X149263927Y-88180537D01*
X149425037Y-88253160D01*
X149600000Y-88278024D01*
X151100000Y-88278024D01*
X151199529Y-88270087D01*
X151368341Y-88217809D01*
X151515905Y-88120571D01*
X151630537Y-87986073D01*
X151703160Y-87824963D01*
X151728024Y-87650000D01*
X151728024Y-86350000D01*
X151720087Y-86250471D01*
X151667809Y-86081659D01*
X151570571Y-85934095D01*
X151436073Y-85819463D01*
X151274963Y-85746840D01*
X151225000Y-85739740D01*
X151225000Y-82750000D01*
X151217110Y-82669529D01*
X151210068Y-82589042D01*
X151208785Y-82584627D01*
X151208336Y-82580045D01*
X151184949Y-82502585D01*
X151162424Y-82425053D01*
X151160310Y-82420974D01*
X151158978Y-82416563D01*
X151121006Y-82345147D01*
X151083837Y-82273441D01*
X151080966Y-82269845D01*
X151078806Y-82265782D01*
X151027743Y-82203173D01*
X150977297Y-82139980D01*
X150970978Y-82133573D01*
X150970874Y-82133445D01*
X150970755Y-82133347D01*
X150968718Y-82131281D01*
X146218718Y-77381282D01*
X146155040Y-77328975D01*
X146091822Y-77276305D01*
X146089136Y-77274841D01*
X146086759Y-77272888D01*
X146014089Y-77233923D01*
X145941889Y-77194558D01*
X145938961Y-77193641D01*
X145936258Y-77192191D01*
X145857539Y-77168124D01*
X145778934Y-77143491D01*
X145775882Y-77143159D01*
X145772950Y-77142263D01*
X145691098Y-77133949D01*
X145609163Y-77125048D01*
X145606103Y-77125316D01*
X145603054Y-77125006D01*
X145521075Y-77132755D01*
X145439042Y-77139932D01*
X145436099Y-77140787D01*
X145433042Y-77141076D01*
X145403108Y-77150000D01*
X144316128Y-77150000D01*
X144302926Y-77141095D01*
X144122139Y-77065099D01*
X143930034Y-77025666D01*
X143733929Y-77024297D01*
X143541292Y-77061044D01*
X143359462Y-77134508D01*
X143195364Y-77241891D01*
X143055249Y-77379102D01*
X142944453Y-77540915D01*
X142867197Y-77721167D01*
X142826423Y-77912992D01*
X142823685Y-78109083D01*
X142859087Y-78301971D01*
X142931280Y-78484310D01*
X143037514Y-78649154D01*
X143173744Y-78790223D01*
X143334780Y-78902146D01*
X143514488Y-78980659D01*
X143706023Y-79022770D01*
X143902090Y-79026877D01*
X144095221Y-78992823D01*
X144278059Y-78921905D01*
X144312576Y-78900000D01*
X145262564Y-78900000D01*
X149475000Y-83112437D01*
X149475000Y-85737801D01*
X149331659Y-85782191D01*
X149184095Y-85879429D01*
X149069463Y-86013927D01*
X148996840Y-86175037D01*
X148996804Y-86175288D01*
X148967809Y-86081659D01*
X148870571Y-85934095D01*
X148736073Y-85819463D01*
X148574963Y-85746840D01*
X148400000Y-85721976D01*
X146900000Y-85721976D01*
X146800471Y-85729913D01*
X146631659Y-85782191D01*
X146484095Y-85879429D01*
X146369463Y-86013927D01*
X146296840Y-86175037D01*
X146271976Y-86350000D01*
X146271976Y-86490000D01*
X145118076Y-86490000D01*
X145128024Y-86420000D01*
X145128024Y-85770000D01*
X145120087Y-85670471D01*
X145067809Y-85501659D01*
X144970571Y-85354095D01*
X144875000Y-85272640D01*
X144875000Y-84122526D01*
X144915905Y-84095571D01*
X144998215Y-83998996D01*
X145014531Y-84023414D01*
X145101586Y-84110469D01*
X145203952Y-84178868D01*
X145317694Y-84225982D01*
X145438443Y-84250000D01*
X145968750Y-84250000D01*
X146125000Y-84093750D01*
X146125000Y-83125000D01*
X146375000Y-83125000D01*
X146375000Y-84093750D01*
X146531250Y-84250000D01*
X147061557Y-84250000D01*
X147182306Y-84225982D01*
X147296048Y-84178868D01*
X147398414Y-84110469D01*
X147485469Y-84023414D01*
X147553868Y-83921049D01*
X147600982Y-83807306D01*
X147625000Y-83686557D01*
X147625000Y-83281250D01*
X147468750Y-83125000D01*
X146375000Y-83125000D01*
X146125000Y-83125000D01*
X146105000Y-83125000D01*
X146105000Y-82875000D01*
X146125000Y-82875000D01*
X146125000Y-81906250D01*
X146375000Y-81906250D01*
X146375000Y-82875000D01*
X147468750Y-82875000D01*
X147625000Y-82718750D01*
X147625000Y-82313443D01*
X147600982Y-82192694D01*
X147553868Y-82078951D01*
X147485469Y-81976586D01*
X147398414Y-81889531D01*
X147296048Y-81821132D01*
X147182306Y-81774018D01*
X147061557Y-81750000D01*
X146531250Y-81750000D01*
X146375000Y-81906250D01*
X146125000Y-81906250D01*
X145968750Y-81750000D01*
X145438443Y-81750000D01*
X145317694Y-81774018D01*
X145203952Y-81821132D01*
X145101586Y-81889531D01*
X145014531Y-81976586D01*
X144998201Y-82001025D01*
X144970571Y-81959095D01*
X144836073Y-81844463D01*
X144674963Y-81771840D01*
X144500000Y-81746976D01*
X143000000Y-81746976D01*
X142900471Y-81754913D01*
X142731659Y-81807191D01*
X142584095Y-81904429D01*
X142469463Y-82038927D01*
X142396840Y-82200037D01*
X142371976Y-82375000D01*
X142371976Y-83625000D01*
X142379913Y-83724529D01*
X142432191Y-83893341D01*
X142529429Y-84040905D01*
X142625000Y-84122360D01*
X142625000Y-84970000D01*
X141800000Y-84970000D01*
X141696531Y-84980145D01*
X141593054Y-84989198D01*
X141587377Y-84990847D01*
X141581486Y-84991425D01*
X141481966Y-85021472D01*
X141382211Y-85050454D01*
X141376960Y-85053176D01*
X141371296Y-85054886D01*
X141292678Y-85096688D01*
X139600495Y-83404505D01*
X139520190Y-83338541D01*
X139440588Y-83271747D01*
X139435405Y-83268898D01*
X139430833Y-83265142D01*
X139339254Y-83216038D01*
X139248185Y-83165973D01*
X139242544Y-83164183D01*
X139237332Y-83161389D01*
X139138015Y-83131025D01*
X139038901Y-83099584D01*
X139033017Y-83098924D01*
X139027365Y-83097196D01*
X138924015Y-83086698D01*
X138820707Y-83075110D01*
X138809144Y-83075029D01*
X138808927Y-83075007D01*
X138808725Y-83075026D01*
X138805000Y-83075000D01*
X133097526Y-83075000D01*
X133070571Y-83034095D01*
X132936073Y-82919463D01*
X132774963Y-82846840D01*
X132600000Y-82821976D01*
X131400000Y-82821976D01*
X131300471Y-82829913D01*
X131131659Y-82882191D01*
X131001707Y-82967824D01*
X130998414Y-82964531D01*
X130896048Y-82896132D01*
X130782306Y-82849018D01*
X130661557Y-82825000D01*
X130281250Y-82825000D01*
X130125000Y-82981250D01*
X130125000Y-84075000D01*
X130145000Y-84075000D01*
X130145000Y-84325000D01*
X130125000Y-84325000D01*
X130125000Y-85418750D01*
X130281250Y-85575000D01*
X130661557Y-85575000D01*
X130782306Y-85550982D01*
X130896048Y-85503868D01*
X130998414Y-85435469D01*
X131004228Y-85429655D01*
X131063927Y-85480537D01*
X131225037Y-85553160D01*
X131400000Y-85578024D01*
X132600000Y-85578024D01*
X132699529Y-85570087D01*
X132868341Y-85517809D01*
X133015905Y-85420571D01*
X133097360Y-85325000D01*
X135062301Y-85325000D01*
X134969463Y-85433927D01*
X134896840Y-85595037D01*
X134871976Y-85770000D01*
X134871976Y-86420000D01*
X134879913Y-86519529D01*
X134912575Y-86625000D01*
X132426030Y-86625000D01*
X132420087Y-86550471D01*
X132367809Y-86381659D01*
X132270571Y-86234095D01*
X132136073Y-86119463D01*
X131974963Y-86046840D01*
X131800000Y-86021976D01*
X130200000Y-86021976D01*
X130100471Y-86029913D01*
X129931659Y-86082191D01*
X129784095Y-86179429D01*
X129669463Y-86313927D01*
X129596840Y-86475037D01*
X129571976Y-86650000D01*
X122671311Y-86650000D01*
X123863591Y-84481250D01*
X128775000Y-84481250D01*
X128775000Y-85011557D01*
X128799018Y-85132306D01*
X128846132Y-85246049D01*
X128914531Y-85348414D01*
X129001586Y-85435469D01*
X129103952Y-85503868D01*
X129217694Y-85550982D01*
X129338443Y-85575000D01*
X129718750Y-85575000D01*
X129875000Y-85418750D01*
X129875000Y-84325000D01*
X128931250Y-84325000D01*
X128775000Y-84481250D01*
X123863591Y-84481250D01*
X124075309Y-84096137D01*
X124669134Y-83388443D01*
X128775000Y-83388443D01*
X128775000Y-83918750D01*
X128931250Y-84075000D01*
X129875000Y-84075000D01*
X129875000Y-82981250D01*
X129718750Y-82825000D01*
X129338443Y-82825000D01*
X129217694Y-82849018D01*
X129103952Y-82896132D01*
X129001586Y-82964531D01*
X128914531Y-83051586D01*
X128846132Y-83153951D01*
X128799018Y-83267694D01*
X128775000Y-83388443D01*
X124669134Y-83388443D01*
X126496498Y-81210677D01*
X129013340Y-79187084D01*
X137772075Y-79187084D01*
X137850844Y-79616261D01*
X138011473Y-80021964D01*
X138247845Y-80388741D01*
X138550956Y-80702621D01*
X138909260Y-80951650D01*
X139309110Y-81126340D01*
X139735276Y-81220039D01*
X140171526Y-81229177D01*
X140601242Y-81153406D01*
X141008057Y-80995613D01*
X141376475Y-80761808D01*
X141692464Y-80460896D01*
X141943987Y-80104338D01*
X142121465Y-79705717D01*
X142218136Y-79280216D01*
X142225096Y-78781827D01*
X142140342Y-78353793D01*
X141974064Y-77950371D01*
X141732595Y-77586930D01*
X141425131Y-77277313D01*
X141063384Y-77033312D01*
X140661134Y-76864221D01*
X140233701Y-76776482D01*
X139797367Y-76773436D01*
X139368751Y-76855198D01*
X138964178Y-77018656D01*
X138599061Y-77257583D01*
X138287304Y-77562877D01*
X138040783Y-77922912D01*
X137868889Y-78323972D01*
X137778167Y-78750782D01*
X137772075Y-79187084D01*
X129013340Y-79187084D01*
X129432030Y-78850449D01*
X132770093Y-77105352D01*
X136383541Y-76041856D01*
X140134738Y-75700470D01*
X143880804Y-76094198D01*
M02*
