G04 #@! TF.FileFunction,Soldermask,Bot*
%FSLAX46Y46*%
G04 Gerber Fmt 4.6, Leading zero omitted, Abs format (unit mm)*
G04 Created by KiCad (PCBNEW 4.0.4+e1-6308~48~ubuntu16.04.1-stable) date Sat Nov 26 13:58:56 2016*
%MOMM*%
%LPD*%
G01*
G04 APERTURE LIST*
%ADD10C,0.100000*%
%ADD11C,0.010000*%
%ADD12C,3.600000*%
G04 APERTURE END LIST*
D10*
D11*
G36*
X136141179Y-77863026D02*
X135999815Y-77895484D01*
X135806225Y-77944590D01*
X135574798Y-78006348D01*
X135319923Y-78076766D01*
X135055989Y-78151848D01*
X134797383Y-78227600D01*
X134558496Y-78300029D01*
X134353715Y-78365139D01*
X134299063Y-78383329D01*
X133194222Y-78800314D01*
X132112905Y-79296554D01*
X131061378Y-79868418D01*
X130045905Y-80512271D01*
X129072751Y-81224482D01*
X128313717Y-81854339D01*
X127989058Y-82150907D01*
X127635476Y-82494187D01*
X127271823Y-82864527D01*
X126916951Y-83242276D01*
X126589710Y-83607786D01*
X126308952Y-83941405D01*
X126295543Y-83958052D01*
X125547418Y-84953406D01*
X124878351Y-85978893D01*
X124287865Y-87035618D01*
X123775484Y-88124686D01*
X123340731Y-89247203D01*
X122983130Y-90404272D01*
X122702203Y-91596999D01*
X122510447Y-92731166D01*
X122474943Y-93047936D01*
X122445477Y-93432102D01*
X122422302Y-93866593D01*
X122405671Y-94334335D01*
X122395836Y-94818258D01*
X122393050Y-95301289D01*
X122397565Y-95766355D01*
X122409634Y-96196385D01*
X122429510Y-96574306D01*
X122450008Y-96816333D01*
X122580238Y-97808453D01*
X122761670Y-98792215D01*
X122988915Y-99740212D01*
X123106393Y-100153551D01*
X123199318Y-100463936D01*
X123418742Y-100258490D01*
X123865098Y-99894591D01*
X124346553Y-99602311D01*
X124855421Y-99383505D01*
X125384014Y-99240028D01*
X125924644Y-99173732D01*
X126469622Y-99186473D01*
X127011262Y-99280105D01*
X127224756Y-99340464D01*
X127773307Y-99555613D01*
X128271439Y-99837485D01*
X128715658Y-100182329D01*
X129102471Y-100586395D01*
X129428385Y-101045933D01*
X129689906Y-101557192D01*
X129883541Y-102116422D01*
X129911672Y-102224953D01*
X129955936Y-102488244D01*
X129979169Y-102832576D01*
X129982961Y-103060500D01*
X129967520Y-103484394D01*
X129914903Y-103859862D01*
X129818386Y-104217478D01*
X129671244Y-104587816D01*
X129625129Y-104687301D01*
X129432613Y-105050064D01*
X129214562Y-105371587D01*
X128951240Y-105678565D01*
X128729025Y-105899455D01*
X128322669Y-106236258D01*
X127884822Y-106504981D01*
X127396587Y-106716893D01*
X127304488Y-106749001D01*
X126897833Y-106886140D01*
X127532833Y-107515595D01*
X128442948Y-108359817D01*
X129396225Y-109131658D01*
X130390608Y-109830166D01*
X131424039Y-110454391D01*
X132494459Y-111003379D01*
X133599811Y-111476181D01*
X134738037Y-111871844D01*
X135907080Y-112189417D01*
X137104882Y-112427948D01*
X138329384Y-112586485D01*
X138539500Y-112605366D01*
X138722948Y-112616554D01*
X138972845Y-112625744D01*
X139271744Y-112632843D01*
X139602200Y-112637756D01*
X139946768Y-112640389D01*
X140288000Y-112640649D01*
X140608451Y-112638441D01*
X140890674Y-112633671D01*
X141117225Y-112626246D01*
X141227667Y-112619853D01*
X142459444Y-112485691D01*
X143665213Y-112271049D01*
X144843814Y-111976381D01*
X145994090Y-111602146D01*
X147114881Y-111148798D01*
X148205031Y-110616795D01*
X149263381Y-110006593D01*
X150288771Y-109318649D01*
X151027833Y-108758055D01*
X151166515Y-108642905D01*
X151339359Y-108492314D01*
X151537500Y-108314699D01*
X151752072Y-108118476D01*
X151974209Y-107912059D01*
X152195045Y-107703865D01*
X152405714Y-107502309D01*
X152597350Y-107315807D01*
X152761087Y-107152775D01*
X152888059Y-107021629D01*
X152911363Y-106995601D01*
X152614052Y-106995601D01*
X152434776Y-107181213D01*
X152338814Y-107276846D01*
X152196747Y-107413704D01*
X152025118Y-107576061D01*
X151840473Y-107748191D01*
X151768667Y-107814426D01*
X150833894Y-108617808D01*
X149858022Y-109347373D01*
X148842658Y-110002410D01*
X147789410Y-110582207D01*
X146699884Y-111086054D01*
X145575689Y-111513239D01*
X144418432Y-111863053D01*
X143229719Y-112134784D01*
X142011159Y-112327722D01*
X141418167Y-112391946D01*
X141158040Y-112408995D01*
X140830509Y-112419568D01*
X140452500Y-112424027D01*
X140040940Y-112422734D01*
X139612755Y-112416051D01*
X139184870Y-112404339D01*
X138774212Y-112387961D01*
X138397707Y-112367278D01*
X138072281Y-112342652D01*
X137819066Y-112315019D01*
X136635068Y-112119027D01*
X135499817Y-111858272D01*
X134404117Y-111529728D01*
X133338772Y-111130365D01*
X132294587Y-110657157D01*
X131469833Y-110224243D01*
X131171181Y-110049643D01*
X130826195Y-109834151D01*
X130453909Y-109590690D01*
X130073353Y-109332183D01*
X129703560Y-109071552D01*
X129363562Y-108821720D01*
X129078653Y-108600653D01*
X128908024Y-108459415D01*
X128713572Y-108291892D01*
X128504221Y-108106471D01*
X128288897Y-107911539D01*
X128076527Y-107715483D01*
X127876035Y-107526692D01*
X127696349Y-107353550D01*
X127546392Y-107204447D01*
X127435092Y-107087769D01*
X127371374Y-107011904D01*
X127360612Y-106986276D01*
X127406319Y-106962572D01*
X127511752Y-106915993D01*
X127657904Y-106854809D01*
X127731524Y-106824864D01*
X128082564Y-106683322D01*
X128209866Y-106800299D01*
X128291927Y-106876049D01*
X128417982Y-106992811D01*
X128570048Y-107133916D01*
X128711842Y-107265672D01*
X129589328Y-108024801D01*
X130511888Y-108714321D01*
X131475273Y-109333441D01*
X132475232Y-109881369D01*
X133507517Y-110357312D01*
X134567877Y-110760478D01*
X135652063Y-111090075D01*
X136755826Y-111345310D01*
X137874914Y-111525393D01*
X139005080Y-111629529D01*
X140142073Y-111656927D01*
X141281643Y-111606795D01*
X142419541Y-111478341D01*
X143551517Y-111270772D01*
X144673322Y-110983296D01*
X145780706Y-110615121D01*
X146074833Y-110502501D01*
X147098329Y-110056093D01*
X148102341Y-109532499D01*
X149075808Y-108938778D01*
X150007671Y-108281991D01*
X150886867Y-107569196D01*
X151397594Y-107105153D01*
X151852020Y-106673533D01*
X152614052Y-106995601D01*
X152911363Y-106995601D01*
X152969400Y-106930783D01*
X152996333Y-106889532D01*
X152958857Y-106863022D01*
X152859703Y-106821949D01*
X152718784Y-106774365D01*
X152689417Y-106765398D01*
X152213198Y-106581700D01*
X152137002Y-106539501D01*
X151635736Y-106539501D01*
X151268285Y-106899971D01*
X150476374Y-107620110D01*
X149620101Y-108292113D01*
X148708047Y-108910830D01*
X147748792Y-109471112D01*
X146750918Y-109967808D01*
X145723004Y-110395768D01*
X145048959Y-110632642D01*
X143920384Y-110958396D01*
X142785276Y-111201944D01*
X141647218Y-111362807D01*
X140509796Y-111440511D01*
X139376597Y-111434579D01*
X139111000Y-111420979D01*
X137909868Y-111308717D01*
X136740175Y-111117886D01*
X135601197Y-110848234D01*
X134492209Y-110499512D01*
X133412487Y-110071470D01*
X132361308Y-109563857D01*
X131337946Y-108976424D01*
X130570646Y-108471074D01*
X130358242Y-108318195D01*
X130122527Y-108140106D01*
X129871888Y-107943971D01*
X129614718Y-107736957D01*
X129359406Y-107526228D01*
X129114342Y-107318950D01*
X128887917Y-107122287D01*
X128688521Y-106943405D01*
X128524544Y-106789469D01*
X128404376Y-106667644D01*
X128336408Y-106585095D01*
X128324785Y-106553139D01*
X128362034Y-106514531D01*
X128450626Y-106439138D01*
X128574044Y-106340806D01*
X128624557Y-106301893D01*
X128911947Y-106082465D01*
X129301890Y-106450128D01*
X130120129Y-107165459D01*
X130998697Y-107827660D01*
X131927613Y-108430772D01*
X132896897Y-108968835D01*
X133896568Y-109435887D01*
X134916645Y-109825970D01*
X135004667Y-109855618D01*
X136097922Y-110176152D01*
X137204402Y-110414990D01*
X138319539Y-110572730D01*
X139438767Y-110649972D01*
X140557519Y-110647312D01*
X141671227Y-110565350D01*
X142775325Y-110404685D01*
X143865246Y-110165913D01*
X144936422Y-109849635D01*
X145984287Y-109456448D01*
X147004274Y-108986950D01*
X147991816Y-108441741D01*
X148566725Y-108078617D01*
X148955063Y-107814984D01*
X149310972Y-107559043D01*
X149653182Y-107296024D01*
X150000422Y-107011154D01*
X150371425Y-106689662D01*
X150683944Y-106408891D01*
X151051913Y-106074283D01*
X151166873Y-106181239D01*
X151273346Y-106272229D01*
X151406399Y-106375695D01*
X151458785Y-106413848D01*
X151635736Y-106539501D01*
X152137002Y-106539501D01*
X151750838Y-106325635D01*
X151319108Y-106009455D01*
X151223137Y-105918549D01*
X150837334Y-105918549D01*
X150805928Y-105968184D01*
X150718097Y-106062396D01*
X150583419Y-106192733D01*
X150411474Y-106350746D01*
X150211841Y-106527985D01*
X149994098Y-106715997D01*
X149767826Y-106906334D01*
X149542602Y-107090545D01*
X149328006Y-107260179D01*
X149240808Y-107326972D01*
X148305477Y-107982959D01*
X147331731Y-108563681D01*
X146320916Y-109068623D01*
X145274378Y-109497270D01*
X144193462Y-109849105D01*
X143079514Y-110123615D01*
X141933880Y-110320283D01*
X141206500Y-110403062D01*
X140932416Y-110420603D01*
X140592866Y-110430184D01*
X140206632Y-110432276D01*
X139792494Y-110427350D01*
X139369232Y-110415880D01*
X138955626Y-110398335D01*
X138570458Y-110375189D01*
X138232508Y-110346913D01*
X138025290Y-110323153D01*
X136882792Y-110129055D01*
X135769676Y-109856232D01*
X134688324Y-109505814D01*
X133641116Y-109078929D01*
X132630436Y-108576705D01*
X131658665Y-108000270D01*
X130728186Y-107350753D01*
X129841380Y-106629281D01*
X129421400Y-106247850D01*
X129074732Y-105921534D01*
X129315684Y-105626593D01*
X129556635Y-105331652D01*
X130026401Y-105758776D01*
X130904644Y-106503551D01*
X131814925Y-107169998D01*
X132757115Y-107758059D01*
X133731087Y-108267679D01*
X134736713Y-108698799D01*
X135773866Y-109051363D01*
X136842418Y-109325315D01*
X137942241Y-109520596D01*
X138655585Y-109603622D01*
X138920587Y-109621338D01*
X139249231Y-109632276D01*
X139623689Y-109636790D01*
X140026131Y-109635231D01*
X140438731Y-109627950D01*
X140843660Y-109615300D01*
X141223090Y-109597634D01*
X141559193Y-109575302D01*
X141834142Y-109548657D01*
X141905000Y-109539460D01*
X142996530Y-109345189D01*
X144064138Y-109073720D01*
X145102991Y-108727357D01*
X146108258Y-108308404D01*
X147075106Y-107819165D01*
X147998703Y-107261945D01*
X148874217Y-106639047D01*
X149696817Y-105952775D01*
X149981561Y-105688265D01*
X150382829Y-105304651D01*
X150451331Y-105407841D01*
X150516983Y-105498642D01*
X150612048Y-105621055D01*
X150678583Y-105703156D01*
X150763615Y-105809708D01*
X150821227Y-105888874D01*
X150837334Y-105918549D01*
X151223137Y-105918549D01*
X150934778Y-105645410D01*
X150620274Y-105253995D01*
X150542566Y-105126259D01*
X150263928Y-105126259D01*
X150010881Y-105356580D01*
X149462570Y-105844288D01*
X148951467Y-106273554D01*
X148464151Y-106653797D01*
X147987205Y-106994440D01*
X147507210Y-107304902D01*
X147010748Y-107594607D01*
X146484401Y-107872974D01*
X146286500Y-107971497D01*
X145401495Y-108371996D01*
X144511687Y-108705496D01*
X143602857Y-108975956D01*
X142660785Y-109187335D01*
X141671249Y-109343590D01*
X141143000Y-109403403D01*
X140995447Y-109412723D01*
X140780119Y-109419294D01*
X140513859Y-109423219D01*
X140213509Y-109424602D01*
X139895914Y-109423546D01*
X139577915Y-109420155D01*
X139276357Y-109414534D01*
X139008082Y-109406785D01*
X138789934Y-109397013D01*
X138666500Y-109388154D01*
X137575107Y-109244255D01*
X136503406Y-109019036D01*
X135455608Y-108714413D01*
X134435924Y-108332300D01*
X133448566Y-107874614D01*
X132497745Y-107343268D01*
X131587673Y-106740180D01*
X130722561Y-106067263D01*
X130059415Y-105473988D01*
X129677931Y-105110957D01*
X129854216Y-104735164D01*
X130030500Y-104359370D01*
X130538500Y-104855727D01*
X131313427Y-105554620D01*
X132136009Y-106185848D01*
X133001494Y-106748242D01*
X133905127Y-107240632D01*
X134842155Y-107661850D01*
X135807825Y-108010725D01*
X136797382Y-108286090D01*
X137806073Y-108486775D01*
X138829145Y-108611611D01*
X139861844Y-108659429D01*
X140899416Y-108629059D01*
X141937108Y-108519332D01*
X142970166Y-108329079D01*
X143795912Y-108116416D01*
X144785365Y-107784498D01*
X145750807Y-107373232D01*
X146686568Y-106885929D01*
X147586977Y-106325899D01*
X148446362Y-105696450D01*
X149259054Y-105000892D01*
X149462117Y-104809520D01*
X149625634Y-104655591D01*
X149765717Y-104529956D01*
X149872324Y-104441116D01*
X149935411Y-104397572D01*
X149948333Y-104397919D01*
X149965458Y-104459624D01*
X150011158Y-104576298D01*
X150076923Y-104726793D01*
X150106131Y-104789999D01*
X150263928Y-105126259D01*
X150542566Y-105126259D01*
X150506259Y-105066578D01*
X150381355Y-104826302D01*
X150258515Y-104561550D01*
X150150689Y-104300704D01*
X150080190Y-104098932D01*
X149849580Y-104098932D01*
X149295707Y-104638764D01*
X148607157Y-105270049D01*
X147905052Y-105831623D01*
X147171499Y-106335973D01*
X146388604Y-106795586D01*
X145706452Y-107143435D01*
X144752821Y-107555493D01*
X143770553Y-107891399D01*
X142766814Y-108149779D01*
X141748770Y-108329260D01*
X140723585Y-108428469D01*
X139698425Y-108446033D01*
X139068667Y-108415516D01*
X137987480Y-108294740D01*
X136936193Y-108094805D01*
X135915738Y-107816103D01*
X134927050Y-107459027D01*
X133971060Y-107023968D01*
X133048701Y-106511319D01*
X132160906Y-105921472D01*
X131308608Y-105254819D01*
X131077171Y-105055080D01*
X130880047Y-104878087D01*
X130683198Y-104695640D01*
X130505813Y-104525895D01*
X130367080Y-104387009D01*
X130332533Y-104350484D01*
X130213302Y-104218052D01*
X130143683Y-104126645D01*
X130113480Y-104057357D01*
X130112501Y-103991279D01*
X130119407Y-103955196D01*
X130138520Y-103851960D01*
X130163065Y-103693702D01*
X130188617Y-103509494D01*
X130196182Y-103450626D01*
X130242969Y-103078752D01*
X130411452Y-103281293D01*
X130962298Y-103888911D01*
X131584693Y-104476891D01*
X132266086Y-105035400D01*
X132993929Y-105554608D01*
X133755674Y-106024682D01*
X134264332Y-106299885D01*
X135150548Y-106711889D01*
X136047832Y-107045969D01*
X136964393Y-107304164D01*
X137908440Y-107488511D01*
X138888183Y-107601048D01*
X139661333Y-107639795D01*
X140633513Y-107631554D01*
X141565169Y-107557215D01*
X142471670Y-107414274D01*
X143368386Y-107200228D01*
X144270687Y-106912573D01*
X144388830Y-106869776D01*
X144903855Y-106660596D01*
X145455271Y-106400580D01*
X146022418Y-106101447D01*
X146584634Y-105774919D01*
X147121259Y-105432716D01*
X147611631Y-105086558D01*
X147831667Y-104916736D01*
X148038008Y-104743632D01*
X148283609Y-104524310D01*
X148551088Y-104275482D01*
X148823064Y-104013860D01*
X149082156Y-103756158D01*
X149310983Y-103519086D01*
X149488151Y-103323996D01*
X149736667Y-103037159D01*
X149737549Y-103302829D01*
X149747976Y-103501256D01*
X149773691Y-103718691D01*
X149794006Y-103833716D01*
X149849580Y-104098932D01*
X150080190Y-104098932D01*
X150070830Y-104072146D01*
X150053966Y-104013000D01*
X150003431Y-103752757D01*
X149970636Y-103438592D01*
X149956328Y-103099525D01*
X149961258Y-102764578D01*
X149986174Y-102462772D01*
X150010129Y-102314094D01*
X150162165Y-101769047D01*
X150388357Y-101258035D01*
X150682838Y-100787437D01*
X151039742Y-100363633D01*
X151453203Y-99993001D01*
X151917353Y-99681920D01*
X152426326Y-99436770D01*
X152763500Y-99320189D01*
X153295664Y-99205531D01*
X153837661Y-99170386D01*
X154379023Y-99212300D01*
X154909280Y-99328820D01*
X155417965Y-99517490D01*
X155894610Y-99775859D01*
X156328746Y-100101470D01*
X156410208Y-100175058D01*
X156720867Y-100464616D01*
X156767136Y-100344391D01*
X156796076Y-100257691D01*
X156840954Y-100109736D01*
X156895708Y-99921028D01*
X156954273Y-99712070D01*
X156955955Y-99705957D01*
X157219300Y-98595813D01*
X157409071Y-97453121D01*
X157524801Y-96288044D01*
X157563028Y-95196103D01*
X157337662Y-95196103D01*
X157331970Y-95664812D01*
X157319054Y-96110467D01*
X157298912Y-96515169D01*
X157271546Y-96861014D01*
X157257743Y-96985666D01*
X157198181Y-97419995D01*
X157124451Y-97879014D01*
X157040217Y-98344447D01*
X156949142Y-98798014D01*
X156854889Y-99221439D01*
X156761122Y-99596444D01*
X156674618Y-99895013D01*
X156631140Y-100031527D01*
X156359697Y-99823478D01*
X156224284Y-99721180D01*
X156109454Y-99637116D01*
X156035979Y-99586428D01*
X156027198Y-99581131D01*
X156003968Y-99555428D01*
X155996723Y-99503683D01*
X156007074Y-99412229D01*
X156036631Y-99267399D01*
X156087006Y-99055527D01*
X156091107Y-99038833D01*
X156313469Y-97972189D01*
X156466182Y-96871146D01*
X156548531Y-95750462D01*
X156556570Y-94947598D01*
X156346163Y-94947598D01*
X156338072Y-95629368D01*
X156307193Y-96287858D01*
X156253517Y-96897382D01*
X156235250Y-97049166D01*
X156191486Y-97363790D01*
X156140144Y-97688539D01*
X156083492Y-98012895D01*
X156023798Y-98326343D01*
X155963330Y-98618364D01*
X155904354Y-98878440D01*
X155849138Y-99096054D01*
X155799949Y-99260690D01*
X155759056Y-99361829D01*
X155730648Y-99389739D01*
X155671571Y-99369198D01*
X155556061Y-99325892D01*
X155406408Y-99268215D01*
X155366280Y-99252537D01*
X155048061Y-99127864D01*
X155186304Y-98511848D01*
X155395829Y-97389049D01*
X155523443Y-96257876D01*
X155569607Y-95123660D01*
X155553626Y-94604176D01*
X155350500Y-94604176D01*
X155341705Y-95727768D01*
X155249670Y-96850994D01*
X155174014Y-97399485D01*
X155133658Y-97641785D01*
X155086022Y-97903229D01*
X155034279Y-98168856D01*
X154981604Y-98423701D01*
X154931168Y-98652802D01*
X154886147Y-98841194D01*
X154849714Y-98973916D01*
X154827778Y-99031937D01*
X154776224Y-99049829D01*
X154716639Y-99041376D01*
X154628533Y-99024157D01*
X154487911Y-99004883D01*
X154340417Y-98989215D01*
X154197460Y-98973704D01*
X154094979Y-98957963D01*
X154054690Y-98945344D01*
X154054667Y-98945115D01*
X154064406Y-98899068D01*
X154090651Y-98789391D01*
X154128938Y-98634482D01*
X154158400Y-98517338D01*
X154238334Y-98171069D01*
X154319601Y-97762713D01*
X154398089Y-97314673D01*
X154469685Y-96849353D01*
X154486202Y-96731666D01*
X154507717Y-96516664D01*
X154524102Y-96232783D01*
X154535448Y-95895651D01*
X154541849Y-95520896D01*
X154543396Y-95124144D01*
X154543078Y-95084139D01*
X154332739Y-95084139D01*
X154329182Y-95510856D01*
X154319128Y-95918825D01*
X154302575Y-96291158D01*
X154279520Y-96610971D01*
X154253569Y-96837500D01*
X154181004Y-97303876D01*
X154104286Y-97729634D01*
X154015081Y-98158721D01*
X153943026Y-98474864D01*
X153837074Y-98926895D01*
X153554287Y-98953658D01*
X153399892Y-98969372D01*
X153274117Y-98984154D01*
X153208000Y-98994133D01*
X153080107Y-99013840D01*
X153019332Y-98998982D01*
X153013902Y-98945721D01*
X153017771Y-98932146D01*
X153038576Y-98858442D01*
X153074690Y-98722505D01*
X153120891Y-98544244D01*
X153168073Y-98358970D01*
X153381941Y-97341653D01*
X153515688Y-96306957D01*
X153569844Y-95262347D01*
X153565523Y-95080666D01*
X153346798Y-95080666D01*
X153336645Y-95681282D01*
X153305764Y-96228765D01*
X153251221Y-96752757D01*
X153170082Y-97282902D01*
X153084667Y-97728369D01*
X153038056Y-97943843D01*
X152984212Y-98175991D01*
X152927054Y-98409775D01*
X152870499Y-98630158D01*
X152818466Y-98822103D01*
X152774873Y-98970572D01*
X152743638Y-99060528D01*
X152732443Y-99080169D01*
X152690227Y-99097066D01*
X152588155Y-99135314D01*
X152446011Y-99187525D01*
X152403667Y-99202935D01*
X152229076Y-99269825D01*
X152065557Y-99338374D01*
X151946031Y-99394719D01*
X151938000Y-99399020D01*
X151843970Y-99450211D01*
X151790416Y-99479242D01*
X151786053Y-99481558D01*
X151797073Y-99444728D01*
X151829870Y-99343129D01*
X151879383Y-99192290D01*
X151940546Y-99007741D01*
X151940765Y-99007083D01*
X152215624Y-98048636D01*
X152412267Y-97064446D01*
X152530289Y-96062152D01*
X152567715Y-95090069D01*
X152338621Y-95090069D01*
X152338606Y-95101833D01*
X152336531Y-95467527D01*
X152330765Y-95768418D01*
X152320130Y-96024334D01*
X152303452Y-96255101D01*
X152279552Y-96480545D01*
X152247256Y-96720494D01*
X152239383Y-96774000D01*
X152144134Y-97320553D01*
X152019133Y-97894520D01*
X151872490Y-98462908D01*
X151712314Y-98992722D01*
X151646898Y-99184683D01*
X151566383Y-99403742D01*
X151500913Y-99557826D01*
X151441882Y-99663255D01*
X151380687Y-99736349D01*
X151336338Y-99773753D01*
X151151666Y-99929624D01*
X150943105Y-100132879D01*
X150732656Y-100359752D01*
X150542319Y-100586475D01*
X150394094Y-100789279D01*
X150388767Y-100797462D01*
X150115406Y-101293650D01*
X149906264Y-101831835D01*
X149769347Y-102390701D01*
X149753415Y-102489000D01*
X149719186Y-102608815D01*
X149646548Y-102749603D01*
X149530597Y-102917663D01*
X149366428Y-103119295D01*
X149149136Y-103360798D01*
X148873815Y-103648473D01*
X148763000Y-103761068D01*
X148024161Y-104449170D01*
X147235720Y-105072857D01*
X146403156Y-105629439D01*
X145531951Y-106116229D01*
X144627583Y-106530537D01*
X143695534Y-106869675D01*
X142741284Y-107130954D01*
X141770312Y-107311686D01*
X141439333Y-107354084D01*
X141247989Y-107376127D01*
X141074914Y-107396663D01*
X140946844Y-107412498D01*
X140910167Y-107417355D01*
X140832770Y-107421746D01*
X140684295Y-107424516D01*
X140478314Y-107425628D01*
X140228402Y-107425046D01*
X139948130Y-107422733D01*
X139767167Y-107420444D01*
X139354071Y-107411972D01*
X139006983Y-107398715D01*
X138707320Y-107379467D01*
X138436499Y-107353018D01*
X138175936Y-107318161D01*
X138162446Y-107316115D01*
X137156814Y-107120791D01*
X136176919Y-106846403D01*
X135227113Y-106495098D01*
X134311747Y-106069025D01*
X133435172Y-105570332D01*
X132601739Y-105001166D01*
X131815798Y-104363675D01*
X131396366Y-103976018D01*
X131078864Y-103661175D01*
X130802280Y-103371875D01*
X130570886Y-103113242D01*
X130388954Y-102890404D01*
X130260755Y-102708486D01*
X130190559Y-102572614D01*
X130178041Y-102513792D01*
X130154655Y-102291249D01*
X130091411Y-102019935D01*
X129995932Y-101721181D01*
X129875844Y-101416315D01*
X129738770Y-101126665D01*
X129592334Y-100873562D01*
X129590990Y-100871504D01*
X129349602Y-100530466D01*
X129096720Y-100235913D01*
X128801082Y-99952001D01*
X128749726Y-99906908D01*
X128609997Y-99781088D01*
X128514261Y-99677285D01*
X128443788Y-99567980D01*
X128379845Y-99425651D01*
X128326569Y-99285198D01*
X128023094Y-98339380D01*
X127798588Y-97369417D01*
X127653267Y-96382251D01*
X127587346Y-95384822D01*
X127601042Y-94384071D01*
X127694569Y-93386939D01*
X127868143Y-92400367D01*
X128086341Y-91549586D01*
X128411692Y-90595810D01*
X128810939Y-89679199D01*
X129280322Y-88803183D01*
X129816085Y-87971190D01*
X130414468Y-87186645D01*
X131071713Y-86452978D01*
X131784062Y-85773615D01*
X132547757Y-85151985D01*
X133359038Y-84591515D01*
X134214149Y-84095633D01*
X135109330Y-83667766D01*
X136040823Y-83311342D01*
X137004870Y-83029788D01*
X137565521Y-82904512D01*
X137810393Y-82857578D01*
X137989167Y-82828530D01*
X138118155Y-82815848D01*
X138213671Y-82818012D01*
X138292031Y-82833504D01*
X138300618Y-82836053D01*
X138413067Y-82870844D01*
X138576189Y-82921834D01*
X138759954Y-82979626D01*
X138814667Y-82996901D01*
X138987978Y-83047049D01*
X139152800Y-83082384D01*
X139333767Y-83106374D01*
X139555512Y-83122488D01*
X139772921Y-83131832D01*
X140130615Y-83137917D01*
X140432758Y-83125719D01*
X140707205Y-83091532D01*
X140981809Y-83031646D01*
X141284422Y-82942355D01*
X141345021Y-82922541D01*
X141529187Y-82863072D01*
X141661168Y-82827936D01*
X141768908Y-82814121D01*
X141880349Y-82818613D01*
X142023435Y-82838401D01*
X142064687Y-82844947D01*
X142717567Y-82974651D01*
X143405214Y-83157800D01*
X144104266Y-83386279D01*
X144791364Y-83651971D01*
X145443148Y-83946762D01*
X145863167Y-84164591D01*
X146748680Y-84699352D01*
X147579054Y-85296741D01*
X148351868Y-85953186D01*
X149064701Y-86665113D01*
X149715131Y-87428951D01*
X150300738Y-88241127D01*
X150819100Y-89098067D01*
X151267797Y-89996199D01*
X151644407Y-90931951D01*
X151946509Y-91901749D01*
X152171682Y-92902020D01*
X152285093Y-93641333D01*
X152302881Y-93834046D01*
X152317789Y-94093337D01*
X152329157Y-94401144D01*
X152336321Y-94739408D01*
X152338621Y-95090069D01*
X152567715Y-95090069D01*
X152569281Y-95049395D01*
X152528836Y-94033813D01*
X152408547Y-93023047D01*
X152293085Y-92399270D01*
X152044313Y-91422594D01*
X151718608Y-90475937D01*
X151319552Y-89563122D01*
X150850725Y-88687972D01*
X150315707Y-87854310D01*
X149718079Y-87065961D01*
X149061420Y-86326747D01*
X148349313Y-85640493D01*
X147585335Y-85011020D01*
X146773070Y-84442154D01*
X145916096Y-83937716D01*
X145017994Y-83501531D01*
X144082344Y-83137422D01*
X143429000Y-82933656D01*
X143174779Y-82865190D01*
X142905106Y-82797676D01*
X142652173Y-82738895D01*
X142448232Y-82696637D01*
X142038964Y-82620451D01*
X142321232Y-82416666D01*
X142476021Y-82303285D01*
X142623621Y-82192420D01*
X142735027Y-82105895D01*
X142745471Y-82097465D01*
X142887442Y-81982048D01*
X143274638Y-82079875D01*
X144223605Y-82361189D01*
X145164059Y-82721663D01*
X146085013Y-83155827D01*
X146975480Y-83658208D01*
X147824472Y-84223338D01*
X148297333Y-84580701D01*
X148535636Y-84780031D01*
X148812596Y-85029137D01*
X149113351Y-85313161D01*
X149423036Y-85617245D01*
X149726788Y-85926530D01*
X150009743Y-86226159D01*
X150257039Y-86501272D01*
X150451545Y-86734143D01*
X151071522Y-87584772D01*
X151622834Y-88479231D01*
X152102621Y-89411131D01*
X152508024Y-90374084D01*
X152836182Y-91361700D01*
X153084237Y-92367591D01*
X153163962Y-92794666D01*
X153231995Y-93225397D01*
X153282002Y-93615278D01*
X153316182Y-93991805D01*
X153336733Y-94382478D01*
X153345856Y-94814794D01*
X153346798Y-95080666D01*
X153565523Y-95080666D01*
X153544940Y-94215282D01*
X153441503Y-93173227D01*
X153260063Y-92143642D01*
X153001151Y-91133990D01*
X152665296Y-90151733D01*
X152568529Y-89909275D01*
X152120544Y-88928644D01*
X151603293Y-87994981D01*
X151019727Y-87111054D01*
X150372797Y-86279634D01*
X149665452Y-85503492D01*
X148900643Y-84785397D01*
X148081321Y-84128120D01*
X147210434Y-83534430D01*
X146290934Y-83007097D01*
X145325771Y-82548893D01*
X144318000Y-82162621D01*
X144086017Y-82086491D01*
X143842702Y-82011117D01*
X143621392Y-81946615D01*
X143492500Y-81912110D01*
X143328838Y-81870449D01*
X143194295Y-81835183D01*
X143112159Y-81812448D01*
X143101771Y-81809179D01*
X143099398Y-81768567D01*
X143149895Y-81671993D01*
X143249444Y-81526384D01*
X143281687Y-81482946D01*
X143383964Y-81343614D01*
X143463214Y-81229224D01*
X143507891Y-81156752D01*
X143513667Y-81141816D01*
X143523402Y-81127661D01*
X143558866Y-81125993D01*
X143629443Y-81139272D01*
X143744520Y-81169958D01*
X143913483Y-81220510D01*
X144145717Y-81293388D01*
X144388622Y-81371108D01*
X145415201Y-81745066D01*
X146404273Y-82193546D01*
X147352450Y-82713581D01*
X148256346Y-83302205D01*
X149112571Y-83956452D01*
X149917739Y-84673356D01*
X150668462Y-85449950D01*
X151361351Y-86283268D01*
X151993020Y-87170344D01*
X152560081Y-88108213D01*
X152954444Y-88871197D01*
X153364098Y-89809368D01*
X153704405Y-90776271D01*
X153978046Y-91780969D01*
X154187704Y-92832529D01*
X154253134Y-93260333D01*
X154282033Y-93527503D01*
X154304445Y-93860354D01*
X154320368Y-94242002D01*
X154329800Y-94655558D01*
X154332739Y-95084139D01*
X154543078Y-95084139D01*
X154540183Y-94721023D01*
X154532302Y-94327160D01*
X154519844Y-93958182D01*
X154502904Y-93629716D01*
X154481572Y-93357390D01*
X154465411Y-93218000D01*
X154279685Y-92130744D01*
X154030159Y-91093468D01*
X153713650Y-90097040D01*
X153326972Y-89132327D01*
X152866941Y-88190197D01*
X152465199Y-87481833D01*
X151892486Y-86608769D01*
X151246026Y-85769053D01*
X150532644Y-84970016D01*
X149759164Y-84218990D01*
X148932409Y-83523307D01*
X148432147Y-83148757D01*
X147684015Y-82651606D01*
X146882128Y-82190247D01*
X146047338Y-81774954D01*
X145200499Y-81415997D01*
X144362465Y-81123651D01*
X144254500Y-81090849D01*
X144056578Y-81031590D01*
X143886554Y-80980309D01*
X143761790Y-80942269D01*
X143699652Y-80922733D01*
X143698149Y-80922213D01*
X143686899Y-80874220D01*
X143717125Y-80753483D01*
X143788435Y-80561322D01*
X143852847Y-80404758D01*
X143906377Y-80280511D01*
X143940628Y-80207830D01*
X143947163Y-80197392D01*
X143994908Y-80201160D01*
X144109147Y-80229967D01*
X144276959Y-80279497D01*
X144485424Y-80345436D01*
X144721621Y-80423466D01*
X144972630Y-80509272D01*
X145225528Y-80598537D01*
X145467397Y-80686946D01*
X145685315Y-80770183D01*
X145801810Y-80816921D01*
X146832894Y-81286096D01*
X147822425Y-81827698D01*
X148766971Y-82438551D01*
X149663098Y-83115480D01*
X150507373Y-83855312D01*
X151296362Y-84654873D01*
X152026633Y-85510987D01*
X152694753Y-86420481D01*
X153297288Y-87380179D01*
X153696901Y-88116833D01*
X154171920Y-89144412D01*
X154568163Y-90199684D01*
X154884886Y-91277973D01*
X155121347Y-92374602D01*
X155276799Y-93484895D01*
X155350500Y-94604176D01*
X155553626Y-94604176D01*
X155534784Y-93991732D01*
X155419435Y-92867423D01*
X155224021Y-91756063D01*
X154949006Y-90662984D01*
X154594850Y-89593515D01*
X154363023Y-89009041D01*
X153882676Y-87975487D01*
X153331766Y-86985708D01*
X152713713Y-86042789D01*
X152031934Y-85149814D01*
X151289847Y-84309869D01*
X150490873Y-83526036D01*
X149638427Y-82801403D01*
X148735931Y-82139051D01*
X147786800Y-81542068D01*
X146794455Y-81013536D01*
X145762313Y-80556540D01*
X144693792Y-80174166D01*
X144508192Y-80116629D01*
X144315198Y-80057480D01*
X144154234Y-80006918D01*
X144041197Y-79970023D01*
X143991984Y-79951879D01*
X143991242Y-79951352D01*
X143991604Y-79906585D01*
X144005639Y-79804523D01*
X144021463Y-79714740D01*
X144046473Y-79555470D01*
X144061766Y-79405280D01*
X144064000Y-79348055D01*
X144076869Y-79251061D01*
X144108816Y-79206178D01*
X144113102Y-79205666D01*
X144192223Y-79219206D01*
X144336533Y-79256749D01*
X144531535Y-79313678D01*
X144762736Y-79385378D01*
X145015640Y-79467232D01*
X145275753Y-79554625D01*
X145528580Y-79642940D01*
X145759625Y-79727562D01*
X145799667Y-79742766D01*
X146875972Y-80198635D01*
X147908483Y-80725157D01*
X148894587Y-81319006D01*
X149831671Y-81976858D01*
X150717123Y-82695388D01*
X151548331Y-83471273D01*
X152322680Y-84301187D01*
X153037559Y-85181805D01*
X153690354Y-86109804D01*
X154278454Y-87081859D01*
X154799244Y-88094644D01*
X155250113Y-89144837D01*
X155628447Y-90229111D01*
X155931635Y-91344143D01*
X156157062Y-92486608D01*
X156233802Y-93019455D01*
X156294019Y-93616956D01*
X156331476Y-94268232D01*
X156346163Y-94947598D01*
X156556570Y-94947598D01*
X156559802Y-94624894D01*
X156499281Y-93509202D01*
X156400524Y-92646500D01*
X156194474Y-91497953D01*
X155906827Y-90369480D01*
X155538924Y-89264125D01*
X155092104Y-88184931D01*
X154567707Y-87134944D01*
X153967072Y-86117205D01*
X153291541Y-85134761D01*
X152832867Y-84541212D01*
X152636277Y-84308544D01*
X152391311Y-84035580D01*
X152113168Y-83737940D01*
X151817048Y-83431242D01*
X151518150Y-83131107D01*
X151231673Y-82853154D01*
X150972817Y-82613003D01*
X150856869Y-82510577D01*
X149928558Y-81763912D01*
X148953417Y-81087325D01*
X147934306Y-80482340D01*
X146874084Y-79950485D01*
X145775611Y-79493284D01*
X144641749Y-79112264D01*
X144307417Y-79016429D01*
X144172341Y-78976911D01*
X144099630Y-78941468D01*
X144069967Y-78891888D01*
X144064038Y-78809959D01*
X144064000Y-78786928D01*
X144055643Y-78646499D01*
X144034474Y-78476682D01*
X144021463Y-78400259D01*
X144000823Y-78272612D01*
X143993089Y-78183463D01*
X143996586Y-78158302D01*
X144045767Y-78159718D01*
X144162550Y-78183690D01*
X144334027Y-78226579D01*
X144547287Y-78284746D01*
X144789422Y-78354549D01*
X145047522Y-78432350D01*
X145308677Y-78514507D01*
X145559979Y-78597382D01*
X145589887Y-78607553D01*
X146713059Y-79035048D01*
X147797043Y-79536065D01*
X148838845Y-80107584D01*
X149835470Y-80746584D01*
X150783924Y-81450048D01*
X151681213Y-82214954D01*
X152524341Y-83038283D01*
X153310315Y-83917017D01*
X154036141Y-84848134D01*
X154698823Y-85828617D01*
X155295368Y-86855444D01*
X155822780Y-87925598D01*
X156278066Y-89036057D01*
X156468381Y-89577333D01*
X156737805Y-90460159D01*
X156957592Y-91348015D01*
X157133320Y-92266029D01*
X157257743Y-93133333D01*
X157288177Y-93448778D01*
X157311386Y-93830680D01*
X157327369Y-94261136D01*
X157336128Y-94722244D01*
X157337662Y-95196103D01*
X157563028Y-95196103D01*
X157566017Y-95110751D01*
X157532250Y-93931405D01*
X157423029Y-92760173D01*
X157311942Y-92011500D01*
X157070268Y-90843736D01*
X156750135Y-89702851D01*
X156354388Y-88592106D01*
X155885876Y-87514760D01*
X155347444Y-86474076D01*
X154741939Y-85473313D01*
X154072207Y-84515734D01*
X153341096Y-83604597D01*
X152551451Y-82743166D01*
X151706120Y-81934700D01*
X150807948Y-81182461D01*
X149859783Y-80489709D01*
X148864471Y-79859705D01*
X147824859Y-79295710D01*
X146743792Y-78800985D01*
X145624119Y-78378791D01*
X145325938Y-78280956D01*
X145089368Y-78208139D01*
X144835923Y-78134283D01*
X144578937Y-78062811D01*
X144331746Y-77997144D01*
X144107684Y-77940706D01*
X143920087Y-77896918D01*
X143782289Y-77869203D01*
X143707625Y-77860984D01*
X143698858Y-77863364D01*
X143698141Y-77911951D01*
X143717335Y-78017170D01*
X143745929Y-78132202D01*
X143797621Y-78390529D01*
X143830540Y-78701937D01*
X143843859Y-79036762D01*
X143836749Y-79365340D01*
X143808381Y-79658008D01*
X143791286Y-79756460D01*
X143635610Y-80321115D01*
X143408316Y-80844452D01*
X143114187Y-81321647D01*
X142758004Y-81747874D01*
X142344548Y-82118308D01*
X141878601Y-82428124D01*
X141364944Y-82672497D01*
X140808359Y-82846601D01*
X140706316Y-82869609D01*
X140440076Y-82908417D01*
X140123545Y-82926839D01*
X139788578Y-82924999D01*
X139467029Y-82903016D01*
X139204465Y-82863888D01*
X138700155Y-82728419D01*
X138415290Y-82608496D01*
X137898313Y-82608496D01*
X137435740Y-82705113D01*
X136422861Y-82958906D01*
X135443960Y-83289417D01*
X134501885Y-83695073D01*
X133599486Y-84174302D01*
X132739614Y-84725531D01*
X131925116Y-85347189D01*
X131158843Y-86037702D01*
X130871870Y-86327214D01*
X130198110Y-87089087D01*
X129587065Y-87904440D01*
X129042675Y-88766441D01*
X128568883Y-89668259D01*
X128169632Y-90603063D01*
X127848864Y-91564022D01*
X127848006Y-91567000D01*
X127624917Y-92483197D01*
X127471076Y-93434922D01*
X127387277Y-94407876D01*
X127374315Y-95387760D01*
X127432987Y-96360274D01*
X127537213Y-97155000D01*
X127612183Y-97554039D01*
X127709319Y-97987647D01*
X127821821Y-98429987D01*
X127942889Y-98855217D01*
X128065725Y-99237498D01*
X128136930Y-99434151D01*
X128116768Y-99449738D01*
X128033753Y-99423385D01*
X127930379Y-99374960D01*
X127755263Y-99292843D01*
X127556531Y-99209297D01*
X127448167Y-99168116D01*
X127194167Y-99077114D01*
X127078462Y-98676974D01*
X126969356Y-98262543D01*
X126863986Y-97792388D01*
X126768298Y-97295423D01*
X126688239Y-96800560D01*
X126678416Y-96731666D01*
X126647797Y-96448252D01*
X126624683Y-96101164D01*
X126609073Y-95708502D01*
X126600965Y-95288364D01*
X126600356Y-94858851D01*
X126607244Y-94438060D01*
X126621625Y-94044092D01*
X126643499Y-93695044D01*
X126672863Y-93409017D01*
X126678863Y-93366166D01*
X126811445Y-92577476D01*
X126969361Y-91850090D01*
X127158032Y-91163019D01*
X127382880Y-90495275D01*
X127499024Y-90191166D01*
X127918840Y-89230385D01*
X128396368Y-88327975D01*
X128936994Y-87475749D01*
X129546105Y-86665518D01*
X130229087Y-85889092D01*
X130535027Y-85575324D01*
X131311768Y-84857504D01*
X132130041Y-84211733D01*
X132995172Y-83634355D01*
X133912487Y-83121712D01*
X134560167Y-82812085D01*
X134834650Y-82696150D01*
X135159223Y-82570352D01*
X135512152Y-82442162D01*
X135871705Y-82319047D01*
X136216151Y-82208479D01*
X136523758Y-82117927D01*
X136745114Y-82061098D01*
X137067395Y-81986921D01*
X137319616Y-82196822D01*
X137468012Y-82315588D01*
X137616463Y-82426714D01*
X137733289Y-82506503D01*
X137735075Y-82507610D01*
X137898313Y-82608496D01*
X138415290Y-82608496D01*
X138242429Y-82535725D01*
X137816928Y-82277870D01*
X137409293Y-81946920D01*
X137227120Y-81771283D01*
X137217003Y-81760117D01*
X136835316Y-81760117D01*
X136800610Y-81783240D01*
X136697721Y-81824000D01*
X136540134Y-81877701D01*
X136341332Y-81939647D01*
X136204793Y-81979704D01*
X135195340Y-82312085D01*
X134226396Y-82716662D01*
X133300632Y-83189888D01*
X132420718Y-83728220D01*
X131589325Y-84328110D01*
X130809122Y-84986015D01*
X130082781Y-85698389D01*
X129412970Y-86461686D01*
X128802361Y-87272362D01*
X128253624Y-88126870D01*
X127769429Y-89021667D01*
X127352446Y-89953206D01*
X127005345Y-90917943D01*
X126730798Y-91912331D01*
X126531473Y-92932827D01*
X126410041Y-93975884D01*
X126369173Y-95037957D01*
X126369174Y-95038333D01*
X126399730Y-95967522D01*
X126489128Y-96887447D01*
X126634827Y-97777543D01*
X126792342Y-98462437D01*
X126842078Y-98654945D01*
X126882636Y-98818136D01*
X126909705Y-98934235D01*
X126919000Y-98984742D01*
X126882114Y-99005469D01*
X126789698Y-99005917D01*
X126760250Y-99002380D01*
X126624741Y-98984525D01*
X126454186Y-98964053D01*
X126358847Y-98953375D01*
X126116194Y-98927098D01*
X126051821Y-98710329D01*
X125995679Y-98497687D01*
X125933154Y-98221353D01*
X125868068Y-97901682D01*
X125804243Y-97559032D01*
X125745503Y-97213758D01*
X125695669Y-96886217D01*
X125664353Y-96647000D01*
X125634589Y-96327387D01*
X125612410Y-95947999D01*
X125597953Y-95529621D01*
X125591356Y-95093033D01*
X125592756Y-94659019D01*
X125602291Y-94248361D01*
X125620099Y-93881842D01*
X125644183Y-93599000D01*
X125809627Y-92485902D01*
X126053974Y-91401667D01*
X126375564Y-90349122D01*
X126772736Y-89331095D01*
X127243830Y-88350414D01*
X127787183Y-87409906D01*
X128401136Y-86512399D01*
X129084027Y-85660722D01*
X129834196Y-84857702D01*
X130649982Y-84106166D01*
X131529723Y-83408943D01*
X131702667Y-83283772D01*
X132467644Y-82780454D01*
X133293884Y-82315385D01*
X134163266Y-81897380D01*
X135057667Y-81535255D01*
X135828831Y-81276517D01*
X136049867Y-81210092D01*
X136204111Y-81166531D01*
X136305716Y-81143887D01*
X136368839Y-81140212D01*
X136407636Y-81153558D01*
X136436263Y-81181978D01*
X136444000Y-81191873D01*
X136524821Y-81300476D01*
X136617742Y-81430619D01*
X136708730Y-81561922D01*
X136783748Y-81674006D01*
X136828763Y-81746488D01*
X136835316Y-81760117D01*
X137217003Y-81760117D01*
X136905810Y-81416673D01*
X136651553Y-81064307D01*
X136539460Y-80856666D01*
X136257962Y-80856666D01*
X136248268Y-80891437D01*
X136189788Y-80928548D01*
X136071792Y-80972737D01*
X135883549Y-81028744D01*
X135842435Y-81040155D01*
X135530354Y-81134690D01*
X135166038Y-81259138D01*
X134772556Y-81404718D01*
X134372981Y-81562647D01*
X133990384Y-81724145D01*
X133700469Y-81855446D01*
X132744869Y-82351972D01*
X131825130Y-82924830D01*
X130942691Y-83572997D01*
X130098992Y-84295450D01*
X129627109Y-84748964D01*
X128861673Y-85573051D01*
X128170976Y-86436908D01*
X127555012Y-87340546D01*
X127013777Y-88283977D01*
X126547264Y-89267215D01*
X126155467Y-90290272D01*
X125838380Y-91353159D01*
X125595997Y-92455889D01*
X125430640Y-93577833D01*
X125405955Y-93869195D01*
X125389041Y-94225000D01*
X125379758Y-94625399D01*
X125377965Y-95050537D01*
X125383521Y-95480565D01*
X125396285Y-95895628D01*
X125416116Y-96275877D01*
X125442875Y-96601458D01*
X125452694Y-96689333D01*
X125512329Y-97126598D01*
X125586694Y-97583286D01*
X125670558Y-98030799D01*
X125758693Y-98440540D01*
X125814580Y-98668416D01*
X125894558Y-98975333D01*
X125718862Y-98977772D01*
X125553893Y-98988838D01*
X125387426Y-99012527D01*
X125373833Y-99015238D01*
X125254389Y-99038714D01*
X125167976Y-99053531D01*
X125155276Y-99055131D01*
X125124689Y-99018046D01*
X125082521Y-98910862D01*
X125033333Y-98746597D01*
X124996567Y-98602112D01*
X124905945Y-98187898D01*
X124818976Y-97725432D01*
X124741063Y-97247646D01*
X124677605Y-96787474D01*
X124636538Y-96406881D01*
X124597492Y-95764633D01*
X124587778Y-95071347D01*
X124606251Y-94354232D01*
X124651765Y-93640499D01*
X124723174Y-92957356D01*
X124804668Y-92413666D01*
X125040219Y-91310258D01*
X125353853Y-90235104D01*
X125742692Y-89191690D01*
X126203856Y-88183506D01*
X126734465Y-87214041D01*
X127331638Y-86286781D01*
X127992497Y-85405216D01*
X128714162Y-84572833D01*
X129493753Y-83793121D01*
X130328391Y-83069568D01*
X131215194Y-82405663D01*
X132151285Y-81804893D01*
X133133783Y-81270746D01*
X134159808Y-80806712D01*
X134496667Y-80673672D01*
X134720181Y-80590779D01*
X134960550Y-80505598D01*
X135204278Y-80422462D01*
X135437868Y-80345701D01*
X135647823Y-80279647D01*
X135820648Y-80228630D01*
X135942846Y-80196982D01*
X136000921Y-80189035D01*
X136003278Y-80190166D01*
X136022125Y-80231771D01*
X136061537Y-80330091D01*
X136112827Y-80462389D01*
X136167306Y-80605928D01*
X136216285Y-80737972D01*
X136251076Y-80835782D01*
X136257962Y-80856666D01*
X136539460Y-80856666D01*
X136450416Y-80691724D01*
X136288470Y-80276466D01*
X136275748Y-80237495D01*
X136204853Y-79958420D01*
X135944600Y-79958420D01*
X135506384Y-80091445D01*
X134415304Y-80465994D01*
X133355601Y-80916832D01*
X132333141Y-81440888D01*
X131353791Y-82035089D01*
X130423415Y-82696362D01*
X130199833Y-82871264D01*
X129973118Y-83061711D01*
X129704862Y-83302862D01*
X129408382Y-83581394D01*
X129096997Y-83883986D01*
X128784023Y-84197315D01*
X128482778Y-84508059D01*
X128206580Y-84802898D01*
X127968747Y-85068509D01*
X127791371Y-85280500D01*
X127101645Y-86213777D01*
X126486121Y-87185729D01*
X125946103Y-88193518D01*
X125482898Y-89234305D01*
X125097812Y-90305254D01*
X124792151Y-91403527D01*
X124635212Y-92138500D01*
X124570058Y-92498237D01*
X124518207Y-92821488D01*
X124477897Y-93127187D01*
X124447366Y-93434273D01*
X124424852Y-93761680D01*
X124408595Y-94128347D01*
X124396832Y-94553210D01*
X124393022Y-94742000D01*
X124389436Y-95450448D01*
X124407830Y-96097708D01*
X124450306Y-96704894D01*
X124518964Y-97293118D01*
X124615904Y-97883492D01*
X124743228Y-98497128D01*
X124784339Y-98674841D01*
X124825723Y-98855012D01*
X124857108Y-99001032D01*
X124874926Y-99095674D01*
X124877048Y-99122802D01*
X124830248Y-99144409D01*
X124728387Y-99187292D01*
X124594571Y-99242127D01*
X124451905Y-99299591D01*
X124323494Y-99350359D01*
X124232443Y-99385106D01*
X124202367Y-99395073D01*
X124171765Y-99361822D01*
X124134297Y-99275681D01*
X124129410Y-99261083D01*
X124084625Y-99102099D01*
X124030605Y-98878197D01*
X123971165Y-98608114D01*
X123910123Y-98310587D01*
X123851295Y-98004352D01*
X123798498Y-97708146D01*
X123755548Y-97440706D01*
X123747835Y-97387833D01*
X123621369Y-96208007D01*
X123578846Y-95034302D01*
X123619605Y-93869544D01*
X123742988Y-92716559D01*
X123948333Y-91578175D01*
X124234981Y-90457219D01*
X124602273Y-89356517D01*
X125049547Y-88278895D01*
X125576145Y-87227181D01*
X126181407Y-86204202D01*
X126455715Y-85788500D01*
X126970943Y-85083628D01*
X127554736Y-84377857D01*
X128192450Y-83685938D01*
X128869443Y-83022622D01*
X129571072Y-82402663D01*
X130282694Y-81840811D01*
X130602755Y-81610537D01*
X131276382Y-81168757D01*
X132002649Y-80742685D01*
X132752004Y-80348409D01*
X133494892Y-80002017D01*
X133772711Y-79884917D01*
X133984127Y-79802086D01*
X134237841Y-79708098D01*
X134516817Y-79608721D01*
X134804017Y-79509721D01*
X135082407Y-79416864D01*
X135334949Y-79335916D01*
X135544607Y-79272645D01*
X135694345Y-79232817D01*
X135708619Y-79229641D01*
X135770278Y-79218732D01*
X135813618Y-79225846D01*
X135844142Y-79263929D01*
X135867355Y-79345929D01*
X135888760Y-79484792D01*
X135913860Y-79693467D01*
X135916895Y-79719626D01*
X135944600Y-79958420D01*
X136204853Y-79958420D01*
X136138406Y-79696861D01*
X136081105Y-79169029D01*
X136103290Y-78640868D01*
X136186998Y-78171590D01*
X135947746Y-78171590D01*
X135945527Y-78254113D01*
X135935717Y-78306083D01*
X135911365Y-78440913D01*
X135885965Y-78611566D01*
X135873343Y-78710873D01*
X135850081Y-78845307D01*
X135819415Y-78940420D01*
X135795043Y-78971127D01*
X134912139Y-79240357D01*
X134098460Y-79523281D01*
X133338834Y-79826812D01*
X132618092Y-80157861D01*
X131921062Y-80523342D01*
X131232574Y-80930167D01*
X130619236Y-81329547D01*
X129675585Y-82019691D01*
X128787056Y-82772166D01*
X127956259Y-83582978D01*
X127185806Y-84448134D01*
X126478306Y-85363641D01*
X125836370Y-86325505D01*
X125262609Y-87329733D01*
X124759633Y-88372332D01*
X124330052Y-89449309D01*
X123976477Y-90556670D01*
X123701518Y-91690422D01*
X123640157Y-92005632D01*
X123563542Y-92442994D01*
X123503212Y-92843236D01*
X123457474Y-93226463D01*
X123424635Y-93612783D01*
X123403001Y-94022302D01*
X123390879Y-94475126D01*
X123386576Y-94991362D01*
X123386538Y-95017166D01*
X123395172Y-95733132D01*
X123424554Y-96388472D01*
X123477172Y-97005233D01*
X123555510Y-97605461D01*
X123662054Y-98211205D01*
X123799291Y-98844511D01*
X123834987Y-98994440D01*
X123967482Y-99542715D01*
X123866914Y-99608274D01*
X123780815Y-99670330D01*
X123659570Y-99764759D01*
X123554090Y-99850734D01*
X123441686Y-99941800D01*
X123355592Y-100006717D01*
X123316141Y-100030651D01*
X123298513Y-99992549D01*
X123264583Y-99884616D01*
X123217867Y-99719336D01*
X123161878Y-99509192D01*
X123100133Y-99266668D01*
X123093480Y-99239916D01*
X122899657Y-98377458D01*
X122755506Y-97543208D01*
X122657812Y-96710410D01*
X122603361Y-95852305D01*
X122588669Y-95038333D01*
X122630806Y-93814681D01*
X122754931Y-92610813D01*
X122960530Y-91428443D01*
X123247091Y-90269291D01*
X123614103Y-89135071D01*
X124061052Y-88027502D01*
X124587426Y-86948299D01*
X125192713Y-85899181D01*
X125423765Y-85538421D01*
X126123291Y-84550413D01*
X126885237Y-83617654D01*
X127706111Y-82742705D01*
X128582422Y-81928129D01*
X129510680Y-81176488D01*
X130487394Y-80490343D01*
X131509073Y-79872257D01*
X132572227Y-79324791D01*
X133673365Y-78850507D01*
X134808995Y-78451967D01*
X135263742Y-78316699D01*
X135479487Y-78256705D01*
X135668236Y-78206055D01*
X135814076Y-78168879D01*
X135901090Y-78149309D01*
X135916179Y-78147333D01*
X135947746Y-78171590D01*
X136186998Y-78171590D01*
X136188057Y-78165656D01*
X136225612Y-77985698D01*
X136234047Y-77881989D01*
X136215928Y-77851210D01*
X136141179Y-77863026D01*
X136141179Y-77863026D01*
G37*
X136141179Y-77863026D02*
X135999815Y-77895484D01*
X135806225Y-77944590D01*
X135574798Y-78006348D01*
X135319923Y-78076766D01*
X135055989Y-78151848D01*
X134797383Y-78227600D01*
X134558496Y-78300029D01*
X134353715Y-78365139D01*
X134299063Y-78383329D01*
X133194222Y-78800314D01*
X132112905Y-79296554D01*
X131061378Y-79868418D01*
X130045905Y-80512271D01*
X129072751Y-81224482D01*
X128313717Y-81854339D01*
X127989058Y-82150907D01*
X127635476Y-82494187D01*
X127271823Y-82864527D01*
X126916951Y-83242276D01*
X126589710Y-83607786D01*
X126308952Y-83941405D01*
X126295543Y-83958052D01*
X125547418Y-84953406D01*
X124878351Y-85978893D01*
X124287865Y-87035618D01*
X123775484Y-88124686D01*
X123340731Y-89247203D01*
X122983130Y-90404272D01*
X122702203Y-91596999D01*
X122510447Y-92731166D01*
X122474943Y-93047936D01*
X122445477Y-93432102D01*
X122422302Y-93866593D01*
X122405671Y-94334335D01*
X122395836Y-94818258D01*
X122393050Y-95301289D01*
X122397565Y-95766355D01*
X122409634Y-96196385D01*
X122429510Y-96574306D01*
X122450008Y-96816333D01*
X122580238Y-97808453D01*
X122761670Y-98792215D01*
X122988915Y-99740212D01*
X123106393Y-100153551D01*
X123199318Y-100463936D01*
X123418742Y-100258490D01*
X123865098Y-99894591D01*
X124346553Y-99602311D01*
X124855421Y-99383505D01*
X125384014Y-99240028D01*
X125924644Y-99173732D01*
X126469622Y-99186473D01*
X127011262Y-99280105D01*
X127224756Y-99340464D01*
X127773307Y-99555613D01*
X128271439Y-99837485D01*
X128715658Y-100182329D01*
X129102471Y-100586395D01*
X129428385Y-101045933D01*
X129689906Y-101557192D01*
X129883541Y-102116422D01*
X129911672Y-102224953D01*
X129955936Y-102488244D01*
X129979169Y-102832576D01*
X129982961Y-103060500D01*
X129967520Y-103484394D01*
X129914903Y-103859862D01*
X129818386Y-104217478D01*
X129671244Y-104587816D01*
X129625129Y-104687301D01*
X129432613Y-105050064D01*
X129214562Y-105371587D01*
X128951240Y-105678565D01*
X128729025Y-105899455D01*
X128322669Y-106236258D01*
X127884822Y-106504981D01*
X127396587Y-106716893D01*
X127304488Y-106749001D01*
X126897833Y-106886140D01*
X127532833Y-107515595D01*
X128442948Y-108359817D01*
X129396225Y-109131658D01*
X130390608Y-109830166D01*
X131424039Y-110454391D01*
X132494459Y-111003379D01*
X133599811Y-111476181D01*
X134738037Y-111871844D01*
X135907080Y-112189417D01*
X137104882Y-112427948D01*
X138329384Y-112586485D01*
X138539500Y-112605366D01*
X138722948Y-112616554D01*
X138972845Y-112625744D01*
X139271744Y-112632843D01*
X139602200Y-112637756D01*
X139946768Y-112640389D01*
X140288000Y-112640649D01*
X140608451Y-112638441D01*
X140890674Y-112633671D01*
X141117225Y-112626246D01*
X141227667Y-112619853D01*
X142459444Y-112485691D01*
X143665213Y-112271049D01*
X144843814Y-111976381D01*
X145994090Y-111602146D01*
X147114881Y-111148798D01*
X148205031Y-110616795D01*
X149263381Y-110006593D01*
X150288771Y-109318649D01*
X151027833Y-108758055D01*
X151166515Y-108642905D01*
X151339359Y-108492314D01*
X151537500Y-108314699D01*
X151752072Y-108118476D01*
X151974209Y-107912059D01*
X152195045Y-107703865D01*
X152405714Y-107502309D01*
X152597350Y-107315807D01*
X152761087Y-107152775D01*
X152888059Y-107021629D01*
X152911363Y-106995601D01*
X152614052Y-106995601D01*
X152434776Y-107181213D01*
X152338814Y-107276846D01*
X152196747Y-107413704D01*
X152025118Y-107576061D01*
X151840473Y-107748191D01*
X151768667Y-107814426D01*
X150833894Y-108617808D01*
X149858022Y-109347373D01*
X148842658Y-110002410D01*
X147789410Y-110582207D01*
X146699884Y-111086054D01*
X145575689Y-111513239D01*
X144418432Y-111863053D01*
X143229719Y-112134784D01*
X142011159Y-112327722D01*
X141418167Y-112391946D01*
X141158040Y-112408995D01*
X140830509Y-112419568D01*
X140452500Y-112424027D01*
X140040940Y-112422734D01*
X139612755Y-112416051D01*
X139184870Y-112404339D01*
X138774212Y-112387961D01*
X138397707Y-112367278D01*
X138072281Y-112342652D01*
X137819066Y-112315019D01*
X136635068Y-112119027D01*
X135499817Y-111858272D01*
X134404117Y-111529728D01*
X133338772Y-111130365D01*
X132294587Y-110657157D01*
X131469833Y-110224243D01*
X131171181Y-110049643D01*
X130826195Y-109834151D01*
X130453909Y-109590690D01*
X130073353Y-109332183D01*
X129703560Y-109071552D01*
X129363562Y-108821720D01*
X129078653Y-108600653D01*
X128908024Y-108459415D01*
X128713572Y-108291892D01*
X128504221Y-108106471D01*
X128288897Y-107911539D01*
X128076527Y-107715483D01*
X127876035Y-107526692D01*
X127696349Y-107353550D01*
X127546392Y-107204447D01*
X127435092Y-107087769D01*
X127371374Y-107011904D01*
X127360612Y-106986276D01*
X127406319Y-106962572D01*
X127511752Y-106915993D01*
X127657904Y-106854809D01*
X127731524Y-106824864D01*
X128082564Y-106683322D01*
X128209866Y-106800299D01*
X128291927Y-106876049D01*
X128417982Y-106992811D01*
X128570048Y-107133916D01*
X128711842Y-107265672D01*
X129589328Y-108024801D01*
X130511888Y-108714321D01*
X131475273Y-109333441D01*
X132475232Y-109881369D01*
X133507517Y-110357312D01*
X134567877Y-110760478D01*
X135652063Y-111090075D01*
X136755826Y-111345310D01*
X137874914Y-111525393D01*
X139005080Y-111629529D01*
X140142073Y-111656927D01*
X141281643Y-111606795D01*
X142419541Y-111478341D01*
X143551517Y-111270772D01*
X144673322Y-110983296D01*
X145780706Y-110615121D01*
X146074833Y-110502501D01*
X147098329Y-110056093D01*
X148102341Y-109532499D01*
X149075808Y-108938778D01*
X150007671Y-108281991D01*
X150886867Y-107569196D01*
X151397594Y-107105153D01*
X151852020Y-106673533D01*
X152614052Y-106995601D01*
X152911363Y-106995601D01*
X152969400Y-106930783D01*
X152996333Y-106889532D01*
X152958857Y-106863022D01*
X152859703Y-106821949D01*
X152718784Y-106774365D01*
X152689417Y-106765398D01*
X152213198Y-106581700D01*
X152137002Y-106539501D01*
X151635736Y-106539501D01*
X151268285Y-106899971D01*
X150476374Y-107620110D01*
X149620101Y-108292113D01*
X148708047Y-108910830D01*
X147748792Y-109471112D01*
X146750918Y-109967808D01*
X145723004Y-110395768D01*
X145048959Y-110632642D01*
X143920384Y-110958396D01*
X142785276Y-111201944D01*
X141647218Y-111362807D01*
X140509796Y-111440511D01*
X139376597Y-111434579D01*
X139111000Y-111420979D01*
X137909868Y-111308717D01*
X136740175Y-111117886D01*
X135601197Y-110848234D01*
X134492209Y-110499512D01*
X133412487Y-110071470D01*
X132361308Y-109563857D01*
X131337946Y-108976424D01*
X130570646Y-108471074D01*
X130358242Y-108318195D01*
X130122527Y-108140106D01*
X129871888Y-107943971D01*
X129614718Y-107736957D01*
X129359406Y-107526228D01*
X129114342Y-107318950D01*
X128887917Y-107122287D01*
X128688521Y-106943405D01*
X128524544Y-106789469D01*
X128404376Y-106667644D01*
X128336408Y-106585095D01*
X128324785Y-106553139D01*
X128362034Y-106514531D01*
X128450626Y-106439138D01*
X128574044Y-106340806D01*
X128624557Y-106301893D01*
X128911947Y-106082465D01*
X129301890Y-106450128D01*
X130120129Y-107165459D01*
X130998697Y-107827660D01*
X131927613Y-108430772D01*
X132896897Y-108968835D01*
X133896568Y-109435887D01*
X134916645Y-109825970D01*
X135004667Y-109855618D01*
X136097922Y-110176152D01*
X137204402Y-110414990D01*
X138319539Y-110572730D01*
X139438767Y-110649972D01*
X140557519Y-110647312D01*
X141671227Y-110565350D01*
X142775325Y-110404685D01*
X143865246Y-110165913D01*
X144936422Y-109849635D01*
X145984287Y-109456448D01*
X147004274Y-108986950D01*
X147991816Y-108441741D01*
X148566725Y-108078617D01*
X148955063Y-107814984D01*
X149310972Y-107559043D01*
X149653182Y-107296024D01*
X150000422Y-107011154D01*
X150371425Y-106689662D01*
X150683944Y-106408891D01*
X151051913Y-106074283D01*
X151166873Y-106181239D01*
X151273346Y-106272229D01*
X151406399Y-106375695D01*
X151458785Y-106413848D01*
X151635736Y-106539501D01*
X152137002Y-106539501D01*
X151750838Y-106325635D01*
X151319108Y-106009455D01*
X151223137Y-105918549D01*
X150837334Y-105918549D01*
X150805928Y-105968184D01*
X150718097Y-106062396D01*
X150583419Y-106192733D01*
X150411474Y-106350746D01*
X150211841Y-106527985D01*
X149994098Y-106715997D01*
X149767826Y-106906334D01*
X149542602Y-107090545D01*
X149328006Y-107260179D01*
X149240808Y-107326972D01*
X148305477Y-107982959D01*
X147331731Y-108563681D01*
X146320916Y-109068623D01*
X145274378Y-109497270D01*
X144193462Y-109849105D01*
X143079514Y-110123615D01*
X141933880Y-110320283D01*
X141206500Y-110403062D01*
X140932416Y-110420603D01*
X140592866Y-110430184D01*
X140206632Y-110432276D01*
X139792494Y-110427350D01*
X139369232Y-110415880D01*
X138955626Y-110398335D01*
X138570458Y-110375189D01*
X138232508Y-110346913D01*
X138025290Y-110323153D01*
X136882792Y-110129055D01*
X135769676Y-109856232D01*
X134688324Y-109505814D01*
X133641116Y-109078929D01*
X132630436Y-108576705D01*
X131658665Y-108000270D01*
X130728186Y-107350753D01*
X129841380Y-106629281D01*
X129421400Y-106247850D01*
X129074732Y-105921534D01*
X129315684Y-105626593D01*
X129556635Y-105331652D01*
X130026401Y-105758776D01*
X130904644Y-106503551D01*
X131814925Y-107169998D01*
X132757115Y-107758059D01*
X133731087Y-108267679D01*
X134736713Y-108698799D01*
X135773866Y-109051363D01*
X136842418Y-109325315D01*
X137942241Y-109520596D01*
X138655585Y-109603622D01*
X138920587Y-109621338D01*
X139249231Y-109632276D01*
X139623689Y-109636790D01*
X140026131Y-109635231D01*
X140438731Y-109627950D01*
X140843660Y-109615300D01*
X141223090Y-109597634D01*
X141559193Y-109575302D01*
X141834142Y-109548657D01*
X141905000Y-109539460D01*
X142996530Y-109345189D01*
X144064138Y-109073720D01*
X145102991Y-108727357D01*
X146108258Y-108308404D01*
X147075106Y-107819165D01*
X147998703Y-107261945D01*
X148874217Y-106639047D01*
X149696817Y-105952775D01*
X149981561Y-105688265D01*
X150382829Y-105304651D01*
X150451331Y-105407841D01*
X150516983Y-105498642D01*
X150612048Y-105621055D01*
X150678583Y-105703156D01*
X150763615Y-105809708D01*
X150821227Y-105888874D01*
X150837334Y-105918549D01*
X151223137Y-105918549D01*
X150934778Y-105645410D01*
X150620274Y-105253995D01*
X150542566Y-105126259D01*
X150263928Y-105126259D01*
X150010881Y-105356580D01*
X149462570Y-105844288D01*
X148951467Y-106273554D01*
X148464151Y-106653797D01*
X147987205Y-106994440D01*
X147507210Y-107304902D01*
X147010748Y-107594607D01*
X146484401Y-107872974D01*
X146286500Y-107971497D01*
X145401495Y-108371996D01*
X144511687Y-108705496D01*
X143602857Y-108975956D01*
X142660785Y-109187335D01*
X141671249Y-109343590D01*
X141143000Y-109403403D01*
X140995447Y-109412723D01*
X140780119Y-109419294D01*
X140513859Y-109423219D01*
X140213509Y-109424602D01*
X139895914Y-109423546D01*
X139577915Y-109420155D01*
X139276357Y-109414534D01*
X139008082Y-109406785D01*
X138789934Y-109397013D01*
X138666500Y-109388154D01*
X137575107Y-109244255D01*
X136503406Y-109019036D01*
X135455608Y-108714413D01*
X134435924Y-108332300D01*
X133448566Y-107874614D01*
X132497745Y-107343268D01*
X131587673Y-106740180D01*
X130722561Y-106067263D01*
X130059415Y-105473988D01*
X129677931Y-105110957D01*
X129854216Y-104735164D01*
X130030500Y-104359370D01*
X130538500Y-104855727D01*
X131313427Y-105554620D01*
X132136009Y-106185848D01*
X133001494Y-106748242D01*
X133905127Y-107240632D01*
X134842155Y-107661850D01*
X135807825Y-108010725D01*
X136797382Y-108286090D01*
X137806073Y-108486775D01*
X138829145Y-108611611D01*
X139861844Y-108659429D01*
X140899416Y-108629059D01*
X141937108Y-108519332D01*
X142970166Y-108329079D01*
X143795912Y-108116416D01*
X144785365Y-107784498D01*
X145750807Y-107373232D01*
X146686568Y-106885929D01*
X147586977Y-106325899D01*
X148446362Y-105696450D01*
X149259054Y-105000892D01*
X149462117Y-104809520D01*
X149625634Y-104655591D01*
X149765717Y-104529956D01*
X149872324Y-104441116D01*
X149935411Y-104397572D01*
X149948333Y-104397919D01*
X149965458Y-104459624D01*
X150011158Y-104576298D01*
X150076923Y-104726793D01*
X150106131Y-104789999D01*
X150263928Y-105126259D01*
X150542566Y-105126259D01*
X150506259Y-105066578D01*
X150381355Y-104826302D01*
X150258515Y-104561550D01*
X150150689Y-104300704D01*
X150080190Y-104098932D01*
X149849580Y-104098932D01*
X149295707Y-104638764D01*
X148607157Y-105270049D01*
X147905052Y-105831623D01*
X147171499Y-106335973D01*
X146388604Y-106795586D01*
X145706452Y-107143435D01*
X144752821Y-107555493D01*
X143770553Y-107891399D01*
X142766814Y-108149779D01*
X141748770Y-108329260D01*
X140723585Y-108428469D01*
X139698425Y-108446033D01*
X139068667Y-108415516D01*
X137987480Y-108294740D01*
X136936193Y-108094805D01*
X135915738Y-107816103D01*
X134927050Y-107459027D01*
X133971060Y-107023968D01*
X133048701Y-106511319D01*
X132160906Y-105921472D01*
X131308608Y-105254819D01*
X131077171Y-105055080D01*
X130880047Y-104878087D01*
X130683198Y-104695640D01*
X130505813Y-104525895D01*
X130367080Y-104387009D01*
X130332533Y-104350484D01*
X130213302Y-104218052D01*
X130143683Y-104126645D01*
X130113480Y-104057357D01*
X130112501Y-103991279D01*
X130119407Y-103955196D01*
X130138520Y-103851960D01*
X130163065Y-103693702D01*
X130188617Y-103509494D01*
X130196182Y-103450626D01*
X130242969Y-103078752D01*
X130411452Y-103281293D01*
X130962298Y-103888911D01*
X131584693Y-104476891D01*
X132266086Y-105035400D01*
X132993929Y-105554608D01*
X133755674Y-106024682D01*
X134264332Y-106299885D01*
X135150548Y-106711889D01*
X136047832Y-107045969D01*
X136964393Y-107304164D01*
X137908440Y-107488511D01*
X138888183Y-107601048D01*
X139661333Y-107639795D01*
X140633513Y-107631554D01*
X141565169Y-107557215D01*
X142471670Y-107414274D01*
X143368386Y-107200228D01*
X144270687Y-106912573D01*
X144388830Y-106869776D01*
X144903855Y-106660596D01*
X145455271Y-106400580D01*
X146022418Y-106101447D01*
X146584634Y-105774919D01*
X147121259Y-105432716D01*
X147611631Y-105086558D01*
X147831667Y-104916736D01*
X148038008Y-104743632D01*
X148283609Y-104524310D01*
X148551088Y-104275482D01*
X148823064Y-104013860D01*
X149082156Y-103756158D01*
X149310983Y-103519086D01*
X149488151Y-103323996D01*
X149736667Y-103037159D01*
X149737549Y-103302829D01*
X149747976Y-103501256D01*
X149773691Y-103718691D01*
X149794006Y-103833716D01*
X149849580Y-104098932D01*
X150080190Y-104098932D01*
X150070830Y-104072146D01*
X150053966Y-104013000D01*
X150003431Y-103752757D01*
X149970636Y-103438592D01*
X149956328Y-103099525D01*
X149961258Y-102764578D01*
X149986174Y-102462772D01*
X150010129Y-102314094D01*
X150162165Y-101769047D01*
X150388357Y-101258035D01*
X150682838Y-100787437D01*
X151039742Y-100363633D01*
X151453203Y-99993001D01*
X151917353Y-99681920D01*
X152426326Y-99436770D01*
X152763500Y-99320189D01*
X153295664Y-99205531D01*
X153837661Y-99170386D01*
X154379023Y-99212300D01*
X154909280Y-99328820D01*
X155417965Y-99517490D01*
X155894610Y-99775859D01*
X156328746Y-100101470D01*
X156410208Y-100175058D01*
X156720867Y-100464616D01*
X156767136Y-100344391D01*
X156796076Y-100257691D01*
X156840954Y-100109736D01*
X156895708Y-99921028D01*
X156954273Y-99712070D01*
X156955955Y-99705957D01*
X157219300Y-98595813D01*
X157409071Y-97453121D01*
X157524801Y-96288044D01*
X157563028Y-95196103D01*
X157337662Y-95196103D01*
X157331970Y-95664812D01*
X157319054Y-96110467D01*
X157298912Y-96515169D01*
X157271546Y-96861014D01*
X157257743Y-96985666D01*
X157198181Y-97419995D01*
X157124451Y-97879014D01*
X157040217Y-98344447D01*
X156949142Y-98798014D01*
X156854889Y-99221439D01*
X156761122Y-99596444D01*
X156674618Y-99895013D01*
X156631140Y-100031527D01*
X156359697Y-99823478D01*
X156224284Y-99721180D01*
X156109454Y-99637116D01*
X156035979Y-99586428D01*
X156027198Y-99581131D01*
X156003968Y-99555428D01*
X155996723Y-99503683D01*
X156007074Y-99412229D01*
X156036631Y-99267399D01*
X156087006Y-99055527D01*
X156091107Y-99038833D01*
X156313469Y-97972189D01*
X156466182Y-96871146D01*
X156548531Y-95750462D01*
X156556570Y-94947598D01*
X156346163Y-94947598D01*
X156338072Y-95629368D01*
X156307193Y-96287858D01*
X156253517Y-96897382D01*
X156235250Y-97049166D01*
X156191486Y-97363790D01*
X156140144Y-97688539D01*
X156083492Y-98012895D01*
X156023798Y-98326343D01*
X155963330Y-98618364D01*
X155904354Y-98878440D01*
X155849138Y-99096054D01*
X155799949Y-99260690D01*
X155759056Y-99361829D01*
X155730648Y-99389739D01*
X155671571Y-99369198D01*
X155556061Y-99325892D01*
X155406408Y-99268215D01*
X155366280Y-99252537D01*
X155048061Y-99127864D01*
X155186304Y-98511848D01*
X155395829Y-97389049D01*
X155523443Y-96257876D01*
X155569607Y-95123660D01*
X155553626Y-94604176D01*
X155350500Y-94604176D01*
X155341705Y-95727768D01*
X155249670Y-96850994D01*
X155174014Y-97399485D01*
X155133658Y-97641785D01*
X155086022Y-97903229D01*
X155034279Y-98168856D01*
X154981604Y-98423701D01*
X154931168Y-98652802D01*
X154886147Y-98841194D01*
X154849714Y-98973916D01*
X154827778Y-99031937D01*
X154776224Y-99049829D01*
X154716639Y-99041376D01*
X154628533Y-99024157D01*
X154487911Y-99004883D01*
X154340417Y-98989215D01*
X154197460Y-98973704D01*
X154094979Y-98957963D01*
X154054690Y-98945344D01*
X154054667Y-98945115D01*
X154064406Y-98899068D01*
X154090651Y-98789391D01*
X154128938Y-98634482D01*
X154158400Y-98517338D01*
X154238334Y-98171069D01*
X154319601Y-97762713D01*
X154398089Y-97314673D01*
X154469685Y-96849353D01*
X154486202Y-96731666D01*
X154507717Y-96516664D01*
X154524102Y-96232783D01*
X154535448Y-95895651D01*
X154541849Y-95520896D01*
X154543396Y-95124144D01*
X154543078Y-95084139D01*
X154332739Y-95084139D01*
X154329182Y-95510856D01*
X154319128Y-95918825D01*
X154302575Y-96291158D01*
X154279520Y-96610971D01*
X154253569Y-96837500D01*
X154181004Y-97303876D01*
X154104286Y-97729634D01*
X154015081Y-98158721D01*
X153943026Y-98474864D01*
X153837074Y-98926895D01*
X153554287Y-98953658D01*
X153399892Y-98969372D01*
X153274117Y-98984154D01*
X153208000Y-98994133D01*
X153080107Y-99013840D01*
X153019332Y-98998982D01*
X153013902Y-98945721D01*
X153017771Y-98932146D01*
X153038576Y-98858442D01*
X153074690Y-98722505D01*
X153120891Y-98544244D01*
X153168073Y-98358970D01*
X153381941Y-97341653D01*
X153515688Y-96306957D01*
X153569844Y-95262347D01*
X153565523Y-95080666D01*
X153346798Y-95080666D01*
X153336645Y-95681282D01*
X153305764Y-96228765D01*
X153251221Y-96752757D01*
X153170082Y-97282902D01*
X153084667Y-97728369D01*
X153038056Y-97943843D01*
X152984212Y-98175991D01*
X152927054Y-98409775D01*
X152870499Y-98630158D01*
X152818466Y-98822103D01*
X152774873Y-98970572D01*
X152743638Y-99060528D01*
X152732443Y-99080169D01*
X152690227Y-99097066D01*
X152588155Y-99135314D01*
X152446011Y-99187525D01*
X152403667Y-99202935D01*
X152229076Y-99269825D01*
X152065557Y-99338374D01*
X151946031Y-99394719D01*
X151938000Y-99399020D01*
X151843970Y-99450211D01*
X151790416Y-99479242D01*
X151786053Y-99481558D01*
X151797073Y-99444728D01*
X151829870Y-99343129D01*
X151879383Y-99192290D01*
X151940546Y-99007741D01*
X151940765Y-99007083D01*
X152215624Y-98048636D01*
X152412267Y-97064446D01*
X152530289Y-96062152D01*
X152567715Y-95090069D01*
X152338621Y-95090069D01*
X152338606Y-95101833D01*
X152336531Y-95467527D01*
X152330765Y-95768418D01*
X152320130Y-96024334D01*
X152303452Y-96255101D01*
X152279552Y-96480545D01*
X152247256Y-96720494D01*
X152239383Y-96774000D01*
X152144134Y-97320553D01*
X152019133Y-97894520D01*
X151872490Y-98462908D01*
X151712314Y-98992722D01*
X151646898Y-99184683D01*
X151566383Y-99403742D01*
X151500913Y-99557826D01*
X151441882Y-99663255D01*
X151380687Y-99736349D01*
X151336338Y-99773753D01*
X151151666Y-99929624D01*
X150943105Y-100132879D01*
X150732656Y-100359752D01*
X150542319Y-100586475D01*
X150394094Y-100789279D01*
X150388767Y-100797462D01*
X150115406Y-101293650D01*
X149906264Y-101831835D01*
X149769347Y-102390701D01*
X149753415Y-102489000D01*
X149719186Y-102608815D01*
X149646548Y-102749603D01*
X149530597Y-102917663D01*
X149366428Y-103119295D01*
X149149136Y-103360798D01*
X148873815Y-103648473D01*
X148763000Y-103761068D01*
X148024161Y-104449170D01*
X147235720Y-105072857D01*
X146403156Y-105629439D01*
X145531951Y-106116229D01*
X144627583Y-106530537D01*
X143695534Y-106869675D01*
X142741284Y-107130954D01*
X141770312Y-107311686D01*
X141439333Y-107354084D01*
X141247989Y-107376127D01*
X141074914Y-107396663D01*
X140946844Y-107412498D01*
X140910167Y-107417355D01*
X140832770Y-107421746D01*
X140684295Y-107424516D01*
X140478314Y-107425628D01*
X140228402Y-107425046D01*
X139948130Y-107422733D01*
X139767167Y-107420444D01*
X139354071Y-107411972D01*
X139006983Y-107398715D01*
X138707320Y-107379467D01*
X138436499Y-107353018D01*
X138175936Y-107318161D01*
X138162446Y-107316115D01*
X137156814Y-107120791D01*
X136176919Y-106846403D01*
X135227113Y-106495098D01*
X134311747Y-106069025D01*
X133435172Y-105570332D01*
X132601739Y-105001166D01*
X131815798Y-104363675D01*
X131396366Y-103976018D01*
X131078864Y-103661175D01*
X130802280Y-103371875D01*
X130570886Y-103113242D01*
X130388954Y-102890404D01*
X130260755Y-102708486D01*
X130190559Y-102572614D01*
X130178041Y-102513792D01*
X130154655Y-102291249D01*
X130091411Y-102019935D01*
X129995932Y-101721181D01*
X129875844Y-101416315D01*
X129738770Y-101126665D01*
X129592334Y-100873562D01*
X129590990Y-100871504D01*
X129349602Y-100530466D01*
X129096720Y-100235913D01*
X128801082Y-99952001D01*
X128749726Y-99906908D01*
X128609997Y-99781088D01*
X128514261Y-99677285D01*
X128443788Y-99567980D01*
X128379845Y-99425651D01*
X128326569Y-99285198D01*
X128023094Y-98339380D01*
X127798588Y-97369417D01*
X127653267Y-96382251D01*
X127587346Y-95384822D01*
X127601042Y-94384071D01*
X127694569Y-93386939D01*
X127868143Y-92400367D01*
X128086341Y-91549586D01*
X128411692Y-90595810D01*
X128810939Y-89679199D01*
X129280322Y-88803183D01*
X129816085Y-87971190D01*
X130414468Y-87186645D01*
X131071713Y-86452978D01*
X131784062Y-85773615D01*
X132547757Y-85151985D01*
X133359038Y-84591515D01*
X134214149Y-84095633D01*
X135109330Y-83667766D01*
X136040823Y-83311342D01*
X137004870Y-83029788D01*
X137565521Y-82904512D01*
X137810393Y-82857578D01*
X137989167Y-82828530D01*
X138118155Y-82815848D01*
X138213671Y-82818012D01*
X138292031Y-82833504D01*
X138300618Y-82836053D01*
X138413067Y-82870844D01*
X138576189Y-82921834D01*
X138759954Y-82979626D01*
X138814667Y-82996901D01*
X138987978Y-83047049D01*
X139152800Y-83082384D01*
X139333767Y-83106374D01*
X139555512Y-83122488D01*
X139772921Y-83131832D01*
X140130615Y-83137917D01*
X140432758Y-83125719D01*
X140707205Y-83091532D01*
X140981809Y-83031646D01*
X141284422Y-82942355D01*
X141345021Y-82922541D01*
X141529187Y-82863072D01*
X141661168Y-82827936D01*
X141768908Y-82814121D01*
X141880349Y-82818613D01*
X142023435Y-82838401D01*
X142064687Y-82844947D01*
X142717567Y-82974651D01*
X143405214Y-83157800D01*
X144104266Y-83386279D01*
X144791364Y-83651971D01*
X145443148Y-83946762D01*
X145863167Y-84164591D01*
X146748680Y-84699352D01*
X147579054Y-85296741D01*
X148351868Y-85953186D01*
X149064701Y-86665113D01*
X149715131Y-87428951D01*
X150300738Y-88241127D01*
X150819100Y-89098067D01*
X151267797Y-89996199D01*
X151644407Y-90931951D01*
X151946509Y-91901749D01*
X152171682Y-92902020D01*
X152285093Y-93641333D01*
X152302881Y-93834046D01*
X152317789Y-94093337D01*
X152329157Y-94401144D01*
X152336321Y-94739408D01*
X152338621Y-95090069D01*
X152567715Y-95090069D01*
X152569281Y-95049395D01*
X152528836Y-94033813D01*
X152408547Y-93023047D01*
X152293085Y-92399270D01*
X152044313Y-91422594D01*
X151718608Y-90475937D01*
X151319552Y-89563122D01*
X150850725Y-88687972D01*
X150315707Y-87854310D01*
X149718079Y-87065961D01*
X149061420Y-86326747D01*
X148349313Y-85640493D01*
X147585335Y-85011020D01*
X146773070Y-84442154D01*
X145916096Y-83937716D01*
X145017994Y-83501531D01*
X144082344Y-83137422D01*
X143429000Y-82933656D01*
X143174779Y-82865190D01*
X142905106Y-82797676D01*
X142652173Y-82738895D01*
X142448232Y-82696637D01*
X142038964Y-82620451D01*
X142321232Y-82416666D01*
X142476021Y-82303285D01*
X142623621Y-82192420D01*
X142735027Y-82105895D01*
X142745471Y-82097465D01*
X142887442Y-81982048D01*
X143274638Y-82079875D01*
X144223605Y-82361189D01*
X145164059Y-82721663D01*
X146085013Y-83155827D01*
X146975480Y-83658208D01*
X147824472Y-84223338D01*
X148297333Y-84580701D01*
X148535636Y-84780031D01*
X148812596Y-85029137D01*
X149113351Y-85313161D01*
X149423036Y-85617245D01*
X149726788Y-85926530D01*
X150009743Y-86226159D01*
X150257039Y-86501272D01*
X150451545Y-86734143D01*
X151071522Y-87584772D01*
X151622834Y-88479231D01*
X152102621Y-89411131D01*
X152508024Y-90374084D01*
X152836182Y-91361700D01*
X153084237Y-92367591D01*
X153163962Y-92794666D01*
X153231995Y-93225397D01*
X153282002Y-93615278D01*
X153316182Y-93991805D01*
X153336733Y-94382478D01*
X153345856Y-94814794D01*
X153346798Y-95080666D01*
X153565523Y-95080666D01*
X153544940Y-94215282D01*
X153441503Y-93173227D01*
X153260063Y-92143642D01*
X153001151Y-91133990D01*
X152665296Y-90151733D01*
X152568529Y-89909275D01*
X152120544Y-88928644D01*
X151603293Y-87994981D01*
X151019727Y-87111054D01*
X150372797Y-86279634D01*
X149665452Y-85503492D01*
X148900643Y-84785397D01*
X148081321Y-84128120D01*
X147210434Y-83534430D01*
X146290934Y-83007097D01*
X145325771Y-82548893D01*
X144318000Y-82162621D01*
X144086017Y-82086491D01*
X143842702Y-82011117D01*
X143621392Y-81946615D01*
X143492500Y-81912110D01*
X143328838Y-81870449D01*
X143194295Y-81835183D01*
X143112159Y-81812448D01*
X143101771Y-81809179D01*
X143099398Y-81768567D01*
X143149895Y-81671993D01*
X143249444Y-81526384D01*
X143281687Y-81482946D01*
X143383964Y-81343614D01*
X143463214Y-81229224D01*
X143507891Y-81156752D01*
X143513667Y-81141816D01*
X143523402Y-81127661D01*
X143558866Y-81125993D01*
X143629443Y-81139272D01*
X143744520Y-81169958D01*
X143913483Y-81220510D01*
X144145717Y-81293388D01*
X144388622Y-81371108D01*
X145415201Y-81745066D01*
X146404273Y-82193546D01*
X147352450Y-82713581D01*
X148256346Y-83302205D01*
X149112571Y-83956452D01*
X149917739Y-84673356D01*
X150668462Y-85449950D01*
X151361351Y-86283268D01*
X151993020Y-87170344D01*
X152560081Y-88108213D01*
X152954444Y-88871197D01*
X153364098Y-89809368D01*
X153704405Y-90776271D01*
X153978046Y-91780969D01*
X154187704Y-92832529D01*
X154253134Y-93260333D01*
X154282033Y-93527503D01*
X154304445Y-93860354D01*
X154320368Y-94242002D01*
X154329800Y-94655558D01*
X154332739Y-95084139D01*
X154543078Y-95084139D01*
X154540183Y-94721023D01*
X154532302Y-94327160D01*
X154519844Y-93958182D01*
X154502904Y-93629716D01*
X154481572Y-93357390D01*
X154465411Y-93218000D01*
X154279685Y-92130744D01*
X154030159Y-91093468D01*
X153713650Y-90097040D01*
X153326972Y-89132327D01*
X152866941Y-88190197D01*
X152465199Y-87481833D01*
X151892486Y-86608769D01*
X151246026Y-85769053D01*
X150532644Y-84970016D01*
X149759164Y-84218990D01*
X148932409Y-83523307D01*
X148432147Y-83148757D01*
X147684015Y-82651606D01*
X146882128Y-82190247D01*
X146047338Y-81774954D01*
X145200499Y-81415997D01*
X144362465Y-81123651D01*
X144254500Y-81090849D01*
X144056578Y-81031590D01*
X143886554Y-80980309D01*
X143761790Y-80942269D01*
X143699652Y-80922733D01*
X143698149Y-80922213D01*
X143686899Y-80874220D01*
X143717125Y-80753483D01*
X143788435Y-80561322D01*
X143852847Y-80404758D01*
X143906377Y-80280511D01*
X143940628Y-80207830D01*
X143947163Y-80197392D01*
X143994908Y-80201160D01*
X144109147Y-80229967D01*
X144276959Y-80279497D01*
X144485424Y-80345436D01*
X144721621Y-80423466D01*
X144972630Y-80509272D01*
X145225528Y-80598537D01*
X145467397Y-80686946D01*
X145685315Y-80770183D01*
X145801810Y-80816921D01*
X146832894Y-81286096D01*
X147822425Y-81827698D01*
X148766971Y-82438551D01*
X149663098Y-83115480D01*
X150507373Y-83855312D01*
X151296362Y-84654873D01*
X152026633Y-85510987D01*
X152694753Y-86420481D01*
X153297288Y-87380179D01*
X153696901Y-88116833D01*
X154171920Y-89144412D01*
X154568163Y-90199684D01*
X154884886Y-91277973D01*
X155121347Y-92374602D01*
X155276799Y-93484895D01*
X155350500Y-94604176D01*
X155553626Y-94604176D01*
X155534784Y-93991732D01*
X155419435Y-92867423D01*
X155224021Y-91756063D01*
X154949006Y-90662984D01*
X154594850Y-89593515D01*
X154363023Y-89009041D01*
X153882676Y-87975487D01*
X153331766Y-86985708D01*
X152713713Y-86042789D01*
X152031934Y-85149814D01*
X151289847Y-84309869D01*
X150490873Y-83526036D01*
X149638427Y-82801403D01*
X148735931Y-82139051D01*
X147786800Y-81542068D01*
X146794455Y-81013536D01*
X145762313Y-80556540D01*
X144693792Y-80174166D01*
X144508192Y-80116629D01*
X144315198Y-80057480D01*
X144154234Y-80006918D01*
X144041197Y-79970023D01*
X143991984Y-79951879D01*
X143991242Y-79951352D01*
X143991604Y-79906585D01*
X144005639Y-79804523D01*
X144021463Y-79714740D01*
X144046473Y-79555470D01*
X144061766Y-79405280D01*
X144064000Y-79348055D01*
X144076869Y-79251061D01*
X144108816Y-79206178D01*
X144113102Y-79205666D01*
X144192223Y-79219206D01*
X144336533Y-79256749D01*
X144531535Y-79313678D01*
X144762736Y-79385378D01*
X145015640Y-79467232D01*
X145275753Y-79554625D01*
X145528580Y-79642940D01*
X145759625Y-79727562D01*
X145799667Y-79742766D01*
X146875972Y-80198635D01*
X147908483Y-80725157D01*
X148894587Y-81319006D01*
X149831671Y-81976858D01*
X150717123Y-82695388D01*
X151548331Y-83471273D01*
X152322680Y-84301187D01*
X153037559Y-85181805D01*
X153690354Y-86109804D01*
X154278454Y-87081859D01*
X154799244Y-88094644D01*
X155250113Y-89144837D01*
X155628447Y-90229111D01*
X155931635Y-91344143D01*
X156157062Y-92486608D01*
X156233802Y-93019455D01*
X156294019Y-93616956D01*
X156331476Y-94268232D01*
X156346163Y-94947598D01*
X156556570Y-94947598D01*
X156559802Y-94624894D01*
X156499281Y-93509202D01*
X156400524Y-92646500D01*
X156194474Y-91497953D01*
X155906827Y-90369480D01*
X155538924Y-89264125D01*
X155092104Y-88184931D01*
X154567707Y-87134944D01*
X153967072Y-86117205D01*
X153291541Y-85134761D01*
X152832867Y-84541212D01*
X152636277Y-84308544D01*
X152391311Y-84035580D01*
X152113168Y-83737940D01*
X151817048Y-83431242D01*
X151518150Y-83131107D01*
X151231673Y-82853154D01*
X150972817Y-82613003D01*
X150856869Y-82510577D01*
X149928558Y-81763912D01*
X148953417Y-81087325D01*
X147934306Y-80482340D01*
X146874084Y-79950485D01*
X145775611Y-79493284D01*
X144641749Y-79112264D01*
X144307417Y-79016429D01*
X144172341Y-78976911D01*
X144099630Y-78941468D01*
X144069967Y-78891888D01*
X144064038Y-78809959D01*
X144064000Y-78786928D01*
X144055643Y-78646499D01*
X144034474Y-78476682D01*
X144021463Y-78400259D01*
X144000823Y-78272612D01*
X143993089Y-78183463D01*
X143996586Y-78158302D01*
X144045767Y-78159718D01*
X144162550Y-78183690D01*
X144334027Y-78226579D01*
X144547287Y-78284746D01*
X144789422Y-78354549D01*
X145047522Y-78432350D01*
X145308677Y-78514507D01*
X145559979Y-78597382D01*
X145589887Y-78607553D01*
X146713059Y-79035048D01*
X147797043Y-79536065D01*
X148838845Y-80107584D01*
X149835470Y-80746584D01*
X150783924Y-81450048D01*
X151681213Y-82214954D01*
X152524341Y-83038283D01*
X153310315Y-83917017D01*
X154036141Y-84848134D01*
X154698823Y-85828617D01*
X155295368Y-86855444D01*
X155822780Y-87925598D01*
X156278066Y-89036057D01*
X156468381Y-89577333D01*
X156737805Y-90460159D01*
X156957592Y-91348015D01*
X157133320Y-92266029D01*
X157257743Y-93133333D01*
X157288177Y-93448778D01*
X157311386Y-93830680D01*
X157327369Y-94261136D01*
X157336128Y-94722244D01*
X157337662Y-95196103D01*
X157563028Y-95196103D01*
X157566017Y-95110751D01*
X157532250Y-93931405D01*
X157423029Y-92760173D01*
X157311942Y-92011500D01*
X157070268Y-90843736D01*
X156750135Y-89702851D01*
X156354388Y-88592106D01*
X155885876Y-87514760D01*
X155347444Y-86474076D01*
X154741939Y-85473313D01*
X154072207Y-84515734D01*
X153341096Y-83604597D01*
X152551451Y-82743166D01*
X151706120Y-81934700D01*
X150807948Y-81182461D01*
X149859783Y-80489709D01*
X148864471Y-79859705D01*
X147824859Y-79295710D01*
X146743792Y-78800985D01*
X145624119Y-78378791D01*
X145325938Y-78280956D01*
X145089368Y-78208139D01*
X144835923Y-78134283D01*
X144578937Y-78062811D01*
X144331746Y-77997144D01*
X144107684Y-77940706D01*
X143920087Y-77896918D01*
X143782289Y-77869203D01*
X143707625Y-77860984D01*
X143698858Y-77863364D01*
X143698141Y-77911951D01*
X143717335Y-78017170D01*
X143745929Y-78132202D01*
X143797621Y-78390529D01*
X143830540Y-78701937D01*
X143843859Y-79036762D01*
X143836749Y-79365340D01*
X143808381Y-79658008D01*
X143791286Y-79756460D01*
X143635610Y-80321115D01*
X143408316Y-80844452D01*
X143114187Y-81321647D01*
X142758004Y-81747874D01*
X142344548Y-82118308D01*
X141878601Y-82428124D01*
X141364944Y-82672497D01*
X140808359Y-82846601D01*
X140706316Y-82869609D01*
X140440076Y-82908417D01*
X140123545Y-82926839D01*
X139788578Y-82924999D01*
X139467029Y-82903016D01*
X139204465Y-82863888D01*
X138700155Y-82728419D01*
X138415290Y-82608496D01*
X137898313Y-82608496D01*
X137435740Y-82705113D01*
X136422861Y-82958906D01*
X135443960Y-83289417D01*
X134501885Y-83695073D01*
X133599486Y-84174302D01*
X132739614Y-84725531D01*
X131925116Y-85347189D01*
X131158843Y-86037702D01*
X130871870Y-86327214D01*
X130198110Y-87089087D01*
X129587065Y-87904440D01*
X129042675Y-88766441D01*
X128568883Y-89668259D01*
X128169632Y-90603063D01*
X127848864Y-91564022D01*
X127848006Y-91567000D01*
X127624917Y-92483197D01*
X127471076Y-93434922D01*
X127387277Y-94407876D01*
X127374315Y-95387760D01*
X127432987Y-96360274D01*
X127537213Y-97155000D01*
X127612183Y-97554039D01*
X127709319Y-97987647D01*
X127821821Y-98429987D01*
X127942889Y-98855217D01*
X128065725Y-99237498D01*
X128136930Y-99434151D01*
X128116768Y-99449738D01*
X128033753Y-99423385D01*
X127930379Y-99374960D01*
X127755263Y-99292843D01*
X127556531Y-99209297D01*
X127448167Y-99168116D01*
X127194167Y-99077114D01*
X127078462Y-98676974D01*
X126969356Y-98262543D01*
X126863986Y-97792388D01*
X126768298Y-97295423D01*
X126688239Y-96800560D01*
X126678416Y-96731666D01*
X126647797Y-96448252D01*
X126624683Y-96101164D01*
X126609073Y-95708502D01*
X126600965Y-95288364D01*
X126600356Y-94858851D01*
X126607244Y-94438060D01*
X126621625Y-94044092D01*
X126643499Y-93695044D01*
X126672863Y-93409017D01*
X126678863Y-93366166D01*
X126811445Y-92577476D01*
X126969361Y-91850090D01*
X127158032Y-91163019D01*
X127382880Y-90495275D01*
X127499024Y-90191166D01*
X127918840Y-89230385D01*
X128396368Y-88327975D01*
X128936994Y-87475749D01*
X129546105Y-86665518D01*
X130229087Y-85889092D01*
X130535027Y-85575324D01*
X131311768Y-84857504D01*
X132130041Y-84211733D01*
X132995172Y-83634355D01*
X133912487Y-83121712D01*
X134560167Y-82812085D01*
X134834650Y-82696150D01*
X135159223Y-82570352D01*
X135512152Y-82442162D01*
X135871705Y-82319047D01*
X136216151Y-82208479D01*
X136523758Y-82117927D01*
X136745114Y-82061098D01*
X137067395Y-81986921D01*
X137319616Y-82196822D01*
X137468012Y-82315588D01*
X137616463Y-82426714D01*
X137733289Y-82506503D01*
X137735075Y-82507610D01*
X137898313Y-82608496D01*
X138415290Y-82608496D01*
X138242429Y-82535725D01*
X137816928Y-82277870D01*
X137409293Y-81946920D01*
X137227120Y-81771283D01*
X137217003Y-81760117D01*
X136835316Y-81760117D01*
X136800610Y-81783240D01*
X136697721Y-81824000D01*
X136540134Y-81877701D01*
X136341332Y-81939647D01*
X136204793Y-81979704D01*
X135195340Y-82312085D01*
X134226396Y-82716662D01*
X133300632Y-83189888D01*
X132420718Y-83728220D01*
X131589325Y-84328110D01*
X130809122Y-84986015D01*
X130082781Y-85698389D01*
X129412970Y-86461686D01*
X128802361Y-87272362D01*
X128253624Y-88126870D01*
X127769429Y-89021667D01*
X127352446Y-89953206D01*
X127005345Y-90917943D01*
X126730798Y-91912331D01*
X126531473Y-92932827D01*
X126410041Y-93975884D01*
X126369173Y-95037957D01*
X126369174Y-95038333D01*
X126399730Y-95967522D01*
X126489128Y-96887447D01*
X126634827Y-97777543D01*
X126792342Y-98462437D01*
X126842078Y-98654945D01*
X126882636Y-98818136D01*
X126909705Y-98934235D01*
X126919000Y-98984742D01*
X126882114Y-99005469D01*
X126789698Y-99005917D01*
X126760250Y-99002380D01*
X126624741Y-98984525D01*
X126454186Y-98964053D01*
X126358847Y-98953375D01*
X126116194Y-98927098D01*
X126051821Y-98710329D01*
X125995679Y-98497687D01*
X125933154Y-98221353D01*
X125868068Y-97901682D01*
X125804243Y-97559032D01*
X125745503Y-97213758D01*
X125695669Y-96886217D01*
X125664353Y-96647000D01*
X125634589Y-96327387D01*
X125612410Y-95947999D01*
X125597953Y-95529621D01*
X125591356Y-95093033D01*
X125592756Y-94659019D01*
X125602291Y-94248361D01*
X125620099Y-93881842D01*
X125644183Y-93599000D01*
X125809627Y-92485902D01*
X126053974Y-91401667D01*
X126375564Y-90349122D01*
X126772736Y-89331095D01*
X127243830Y-88350414D01*
X127787183Y-87409906D01*
X128401136Y-86512399D01*
X129084027Y-85660722D01*
X129834196Y-84857702D01*
X130649982Y-84106166D01*
X131529723Y-83408943D01*
X131702667Y-83283772D01*
X132467644Y-82780454D01*
X133293884Y-82315385D01*
X134163266Y-81897380D01*
X135057667Y-81535255D01*
X135828831Y-81276517D01*
X136049867Y-81210092D01*
X136204111Y-81166531D01*
X136305716Y-81143887D01*
X136368839Y-81140212D01*
X136407636Y-81153558D01*
X136436263Y-81181978D01*
X136444000Y-81191873D01*
X136524821Y-81300476D01*
X136617742Y-81430619D01*
X136708730Y-81561922D01*
X136783748Y-81674006D01*
X136828763Y-81746488D01*
X136835316Y-81760117D01*
X137217003Y-81760117D01*
X136905810Y-81416673D01*
X136651553Y-81064307D01*
X136539460Y-80856666D01*
X136257962Y-80856666D01*
X136248268Y-80891437D01*
X136189788Y-80928548D01*
X136071792Y-80972737D01*
X135883549Y-81028744D01*
X135842435Y-81040155D01*
X135530354Y-81134690D01*
X135166038Y-81259138D01*
X134772556Y-81404718D01*
X134372981Y-81562647D01*
X133990384Y-81724145D01*
X133700469Y-81855446D01*
X132744869Y-82351972D01*
X131825130Y-82924830D01*
X130942691Y-83572997D01*
X130098992Y-84295450D01*
X129627109Y-84748964D01*
X128861673Y-85573051D01*
X128170976Y-86436908D01*
X127555012Y-87340546D01*
X127013777Y-88283977D01*
X126547264Y-89267215D01*
X126155467Y-90290272D01*
X125838380Y-91353159D01*
X125595997Y-92455889D01*
X125430640Y-93577833D01*
X125405955Y-93869195D01*
X125389041Y-94225000D01*
X125379758Y-94625399D01*
X125377965Y-95050537D01*
X125383521Y-95480565D01*
X125396285Y-95895628D01*
X125416116Y-96275877D01*
X125442875Y-96601458D01*
X125452694Y-96689333D01*
X125512329Y-97126598D01*
X125586694Y-97583286D01*
X125670558Y-98030799D01*
X125758693Y-98440540D01*
X125814580Y-98668416D01*
X125894558Y-98975333D01*
X125718862Y-98977772D01*
X125553893Y-98988838D01*
X125387426Y-99012527D01*
X125373833Y-99015238D01*
X125254389Y-99038714D01*
X125167976Y-99053531D01*
X125155276Y-99055131D01*
X125124689Y-99018046D01*
X125082521Y-98910862D01*
X125033333Y-98746597D01*
X124996567Y-98602112D01*
X124905945Y-98187898D01*
X124818976Y-97725432D01*
X124741063Y-97247646D01*
X124677605Y-96787474D01*
X124636538Y-96406881D01*
X124597492Y-95764633D01*
X124587778Y-95071347D01*
X124606251Y-94354232D01*
X124651765Y-93640499D01*
X124723174Y-92957356D01*
X124804668Y-92413666D01*
X125040219Y-91310258D01*
X125353853Y-90235104D01*
X125742692Y-89191690D01*
X126203856Y-88183506D01*
X126734465Y-87214041D01*
X127331638Y-86286781D01*
X127992497Y-85405216D01*
X128714162Y-84572833D01*
X129493753Y-83793121D01*
X130328391Y-83069568D01*
X131215194Y-82405663D01*
X132151285Y-81804893D01*
X133133783Y-81270746D01*
X134159808Y-80806712D01*
X134496667Y-80673672D01*
X134720181Y-80590779D01*
X134960550Y-80505598D01*
X135204278Y-80422462D01*
X135437868Y-80345701D01*
X135647823Y-80279647D01*
X135820648Y-80228630D01*
X135942846Y-80196982D01*
X136000921Y-80189035D01*
X136003278Y-80190166D01*
X136022125Y-80231771D01*
X136061537Y-80330091D01*
X136112827Y-80462389D01*
X136167306Y-80605928D01*
X136216285Y-80737972D01*
X136251076Y-80835782D01*
X136257962Y-80856666D01*
X136539460Y-80856666D01*
X136450416Y-80691724D01*
X136288470Y-80276466D01*
X136275748Y-80237495D01*
X136204853Y-79958420D01*
X135944600Y-79958420D01*
X135506384Y-80091445D01*
X134415304Y-80465994D01*
X133355601Y-80916832D01*
X132333141Y-81440888D01*
X131353791Y-82035089D01*
X130423415Y-82696362D01*
X130199833Y-82871264D01*
X129973118Y-83061711D01*
X129704862Y-83302862D01*
X129408382Y-83581394D01*
X129096997Y-83883986D01*
X128784023Y-84197315D01*
X128482778Y-84508059D01*
X128206580Y-84802898D01*
X127968747Y-85068509D01*
X127791371Y-85280500D01*
X127101645Y-86213777D01*
X126486121Y-87185729D01*
X125946103Y-88193518D01*
X125482898Y-89234305D01*
X125097812Y-90305254D01*
X124792151Y-91403527D01*
X124635212Y-92138500D01*
X124570058Y-92498237D01*
X124518207Y-92821488D01*
X124477897Y-93127187D01*
X124447366Y-93434273D01*
X124424852Y-93761680D01*
X124408595Y-94128347D01*
X124396832Y-94553210D01*
X124393022Y-94742000D01*
X124389436Y-95450448D01*
X124407830Y-96097708D01*
X124450306Y-96704894D01*
X124518964Y-97293118D01*
X124615904Y-97883492D01*
X124743228Y-98497128D01*
X124784339Y-98674841D01*
X124825723Y-98855012D01*
X124857108Y-99001032D01*
X124874926Y-99095674D01*
X124877048Y-99122802D01*
X124830248Y-99144409D01*
X124728387Y-99187292D01*
X124594571Y-99242127D01*
X124451905Y-99299591D01*
X124323494Y-99350359D01*
X124232443Y-99385106D01*
X124202367Y-99395073D01*
X124171765Y-99361822D01*
X124134297Y-99275681D01*
X124129410Y-99261083D01*
X124084625Y-99102099D01*
X124030605Y-98878197D01*
X123971165Y-98608114D01*
X123910123Y-98310587D01*
X123851295Y-98004352D01*
X123798498Y-97708146D01*
X123755548Y-97440706D01*
X123747835Y-97387833D01*
X123621369Y-96208007D01*
X123578846Y-95034302D01*
X123619605Y-93869544D01*
X123742988Y-92716559D01*
X123948333Y-91578175D01*
X124234981Y-90457219D01*
X124602273Y-89356517D01*
X125049547Y-88278895D01*
X125576145Y-87227181D01*
X126181407Y-86204202D01*
X126455715Y-85788500D01*
X126970943Y-85083628D01*
X127554736Y-84377857D01*
X128192450Y-83685938D01*
X128869443Y-83022622D01*
X129571072Y-82402663D01*
X130282694Y-81840811D01*
X130602755Y-81610537D01*
X131276382Y-81168757D01*
X132002649Y-80742685D01*
X132752004Y-80348409D01*
X133494892Y-80002017D01*
X133772711Y-79884917D01*
X133984127Y-79802086D01*
X134237841Y-79708098D01*
X134516817Y-79608721D01*
X134804017Y-79509721D01*
X135082407Y-79416864D01*
X135334949Y-79335916D01*
X135544607Y-79272645D01*
X135694345Y-79232817D01*
X135708619Y-79229641D01*
X135770278Y-79218732D01*
X135813618Y-79225846D01*
X135844142Y-79263929D01*
X135867355Y-79345929D01*
X135888760Y-79484792D01*
X135913860Y-79693467D01*
X135916895Y-79719626D01*
X135944600Y-79958420D01*
X136204853Y-79958420D01*
X136138406Y-79696861D01*
X136081105Y-79169029D01*
X136103290Y-78640868D01*
X136186998Y-78171590D01*
X135947746Y-78171590D01*
X135945527Y-78254113D01*
X135935717Y-78306083D01*
X135911365Y-78440913D01*
X135885965Y-78611566D01*
X135873343Y-78710873D01*
X135850081Y-78845307D01*
X135819415Y-78940420D01*
X135795043Y-78971127D01*
X134912139Y-79240357D01*
X134098460Y-79523281D01*
X133338834Y-79826812D01*
X132618092Y-80157861D01*
X131921062Y-80523342D01*
X131232574Y-80930167D01*
X130619236Y-81329547D01*
X129675585Y-82019691D01*
X128787056Y-82772166D01*
X127956259Y-83582978D01*
X127185806Y-84448134D01*
X126478306Y-85363641D01*
X125836370Y-86325505D01*
X125262609Y-87329733D01*
X124759633Y-88372332D01*
X124330052Y-89449309D01*
X123976477Y-90556670D01*
X123701518Y-91690422D01*
X123640157Y-92005632D01*
X123563542Y-92442994D01*
X123503212Y-92843236D01*
X123457474Y-93226463D01*
X123424635Y-93612783D01*
X123403001Y-94022302D01*
X123390879Y-94475126D01*
X123386576Y-94991362D01*
X123386538Y-95017166D01*
X123395172Y-95733132D01*
X123424554Y-96388472D01*
X123477172Y-97005233D01*
X123555510Y-97605461D01*
X123662054Y-98211205D01*
X123799291Y-98844511D01*
X123834987Y-98994440D01*
X123967482Y-99542715D01*
X123866914Y-99608274D01*
X123780815Y-99670330D01*
X123659570Y-99764759D01*
X123554090Y-99850734D01*
X123441686Y-99941800D01*
X123355592Y-100006717D01*
X123316141Y-100030651D01*
X123298513Y-99992549D01*
X123264583Y-99884616D01*
X123217867Y-99719336D01*
X123161878Y-99509192D01*
X123100133Y-99266668D01*
X123093480Y-99239916D01*
X122899657Y-98377458D01*
X122755506Y-97543208D01*
X122657812Y-96710410D01*
X122603361Y-95852305D01*
X122588669Y-95038333D01*
X122630806Y-93814681D01*
X122754931Y-92610813D01*
X122960530Y-91428443D01*
X123247091Y-90269291D01*
X123614103Y-89135071D01*
X124061052Y-88027502D01*
X124587426Y-86948299D01*
X125192713Y-85899181D01*
X125423765Y-85538421D01*
X126123291Y-84550413D01*
X126885237Y-83617654D01*
X127706111Y-82742705D01*
X128582422Y-81928129D01*
X129510680Y-81176488D01*
X130487394Y-80490343D01*
X131509073Y-79872257D01*
X132572227Y-79324791D01*
X133673365Y-78850507D01*
X134808995Y-78451967D01*
X135263742Y-78316699D01*
X135479487Y-78256705D01*
X135668236Y-78206055D01*
X135814076Y-78168879D01*
X135901090Y-78149309D01*
X135916179Y-78147333D01*
X135947746Y-78171590D01*
X136186998Y-78171590D01*
X136188057Y-78165656D01*
X136225612Y-77985698D01*
X136234047Y-77881989D01*
X136215928Y-77851210D01*
X136141179Y-77863026D01*
G36*
X139700293Y-83468660D02*
X139343909Y-83475445D01*
X139020445Y-83487810D01*
X138749468Y-83505755D01*
X138624167Y-83518705D01*
X137640783Y-83681901D01*
X136686545Y-83922276D01*
X135765064Y-84236975D01*
X134879948Y-84623137D01*
X134034808Y-85077907D01*
X133233254Y-85598426D01*
X132478896Y-86181837D01*
X131775344Y-86825282D01*
X131126207Y-87525904D01*
X130535096Y-88280845D01*
X130005620Y-89087247D01*
X129541390Y-89942252D01*
X129146015Y-90843004D01*
X129050159Y-91097469D01*
X128772446Y-91979616D01*
X128565819Y-92897034D01*
X128431533Y-93837116D01*
X128370845Y-94787255D01*
X128385010Y-95734842D01*
X128475286Y-96667271D01*
X128487020Y-96748887D01*
X128671296Y-97713292D01*
X128933615Y-98650748D01*
X129270943Y-99557082D01*
X129680247Y-100428121D01*
X130158493Y-101259691D01*
X130702648Y-102047620D01*
X131309678Y-102787735D01*
X131976549Y-103475862D01*
X132700228Y-104107829D01*
X133477681Y-104679462D01*
X134305875Y-105186589D01*
X134814167Y-105452416D01*
X135532706Y-105781143D01*
X136230431Y-106047982D01*
X136933521Y-106261474D01*
X137668156Y-106430159D01*
X137995477Y-106490226D01*
X138200566Y-106521165D01*
X138452268Y-106552703D01*
X138733909Y-106583410D01*
X139028815Y-106611852D01*
X139320314Y-106636598D01*
X139591731Y-106656217D01*
X139826395Y-106669278D01*
X140007630Y-106674347D01*
X140105833Y-106671433D01*
X140191591Y-106665561D01*
X140329658Y-106658064D01*
X140465667Y-106651668D01*
X141450899Y-106566984D01*
X142418081Y-106401008D01*
X143362700Y-106155779D01*
X144280243Y-105833334D01*
X145166197Y-105435710D01*
X146016049Y-104964945D01*
X146825286Y-104423078D01*
X147589394Y-103812144D01*
X148303861Y-103134183D01*
X148340573Y-103096091D01*
X148894653Y-102479278D01*
X149386270Y-101845448D01*
X149829191Y-101174845D01*
X150237183Y-100447716D01*
X150371508Y-100181833D01*
X150744816Y-99352943D01*
X151044313Y-98527082D01*
X151277015Y-97682077D01*
X151449940Y-96795755D01*
X151456696Y-96752833D01*
X151491750Y-96459807D01*
X151517579Y-96102404D01*
X151534281Y-95698600D01*
X151541956Y-95266371D01*
X151540702Y-94823693D01*
X151540302Y-94806429D01*
X151327162Y-94806429D01*
X151326621Y-95192544D01*
X151320085Y-95575385D01*
X151307670Y-95937523D01*
X151289487Y-96261528D01*
X151265653Y-96529969D01*
X151246893Y-96668166D01*
X151052205Y-97638909D01*
X150796751Y-98555567D01*
X150477011Y-99426435D01*
X150089468Y-100259804D01*
X149630603Y-101063971D01*
X149096899Y-101847227D01*
X148988305Y-101992311D01*
X148770825Y-102260332D01*
X148501485Y-102563197D01*
X148196258Y-102885088D01*
X147871119Y-103210185D01*
X147542045Y-103522671D01*
X147225008Y-103806725D01*
X146935985Y-104046530D01*
X146836833Y-104122756D01*
X146006631Y-104693565D01*
X145148819Y-105184722D01*
X144265192Y-105595724D01*
X143357544Y-105926067D01*
X142427670Y-106175248D01*
X141477364Y-106342763D01*
X140508420Y-106428109D01*
X139522634Y-106430781D01*
X138793500Y-106380247D01*
X137857655Y-106245206D01*
X136934783Y-106028747D01*
X136031143Y-105733851D01*
X135152998Y-105363500D01*
X134306606Y-104920675D01*
X133498228Y-104408359D01*
X132734125Y-103829533D01*
X132020556Y-103187178D01*
X131956667Y-103124000D01*
X131617828Y-102776624D01*
X131323706Y-102451724D01*
X131054721Y-102125386D01*
X130791297Y-101773695D01*
X130513855Y-101372737D01*
X130473279Y-101312058D01*
X129972111Y-100484412D01*
X129545719Y-99620296D01*
X129195404Y-98725309D01*
X128922467Y-97805049D01*
X128728208Y-96865114D01*
X128613929Y-95911105D01*
X128580930Y-94948618D01*
X128630512Y-93983254D01*
X128676335Y-93577833D01*
X128843684Y-92626003D01*
X129090885Y-91696898D01*
X129415109Y-90795011D01*
X129813528Y-89924838D01*
X130283312Y-89090871D01*
X130821633Y-88297606D01*
X131425661Y-87549537D01*
X132092569Y-86851158D01*
X132819527Y-86206964D01*
X133603706Y-85621448D01*
X133743431Y-85527455D01*
X134056684Y-85332943D01*
X134426752Y-85124174D01*
X134829932Y-84913059D01*
X135242519Y-84711511D01*
X135640810Y-84531443D01*
X136001100Y-84384767D01*
X136063000Y-84361767D01*
X136996232Y-84065433D01*
X137941503Y-83851519D01*
X138894068Y-83719459D01*
X139849182Y-83668685D01*
X140802099Y-83698632D01*
X141748075Y-83808732D01*
X142682363Y-83998419D01*
X143600220Y-84267128D01*
X144496899Y-84614290D01*
X145367656Y-85039340D01*
X146207745Y-85541712D01*
X146265333Y-85579794D01*
X146841307Y-85994757D01*
X147418880Y-86470314D01*
X147975500Y-86985915D01*
X148488612Y-87521005D01*
X148817129Y-87905166D01*
X149389591Y-88679148D01*
X149894809Y-89502560D01*
X150330874Y-90370977D01*
X150695875Y-91279978D01*
X150987902Y-92225141D01*
X151205045Y-93202042D01*
X151267104Y-93577833D01*
X151291680Y-93802742D01*
X151309805Y-94094098D01*
X151321595Y-94434470D01*
X151327162Y-94806429D01*
X151540302Y-94806429D01*
X151530619Y-94388544D01*
X151511806Y-93978900D01*
X151484362Y-93612737D01*
X151448387Y-93308031D01*
X151437316Y-93239166D01*
X151225721Y-92236098D01*
X150944931Y-91281214D01*
X150593795Y-90372309D01*
X150171158Y-89507183D01*
X149675869Y-88683633D01*
X149106775Y-87899455D01*
X148462724Y-87152448D01*
X148012799Y-86694923D01*
X147271476Y-86034446D01*
X146487894Y-85447280D01*
X145662557Y-84933665D01*
X144795969Y-84493837D01*
X143888635Y-84128037D01*
X142941058Y-83836501D01*
X141953743Y-83619468D01*
X141291167Y-83518494D01*
X141063688Y-83497354D01*
X140771294Y-83481802D01*
X140433553Y-83471837D01*
X140070030Y-83467457D01*
X139700293Y-83468660D01*
X139700293Y-83468660D01*
G37*
X139700293Y-83468660D02*
X139343909Y-83475445D01*
X139020445Y-83487810D01*
X138749468Y-83505755D01*
X138624167Y-83518705D01*
X137640783Y-83681901D01*
X136686545Y-83922276D01*
X135765064Y-84236975D01*
X134879948Y-84623137D01*
X134034808Y-85077907D01*
X133233254Y-85598426D01*
X132478896Y-86181837D01*
X131775344Y-86825282D01*
X131126207Y-87525904D01*
X130535096Y-88280845D01*
X130005620Y-89087247D01*
X129541390Y-89942252D01*
X129146015Y-90843004D01*
X129050159Y-91097469D01*
X128772446Y-91979616D01*
X128565819Y-92897034D01*
X128431533Y-93837116D01*
X128370845Y-94787255D01*
X128385010Y-95734842D01*
X128475286Y-96667271D01*
X128487020Y-96748887D01*
X128671296Y-97713292D01*
X128933615Y-98650748D01*
X129270943Y-99557082D01*
X129680247Y-100428121D01*
X130158493Y-101259691D01*
X130702648Y-102047620D01*
X131309678Y-102787735D01*
X131976549Y-103475862D01*
X132700228Y-104107829D01*
X133477681Y-104679462D01*
X134305875Y-105186589D01*
X134814167Y-105452416D01*
X135532706Y-105781143D01*
X136230431Y-106047982D01*
X136933521Y-106261474D01*
X137668156Y-106430159D01*
X137995477Y-106490226D01*
X138200566Y-106521165D01*
X138452268Y-106552703D01*
X138733909Y-106583410D01*
X139028815Y-106611852D01*
X139320314Y-106636598D01*
X139591731Y-106656217D01*
X139826395Y-106669278D01*
X140007630Y-106674347D01*
X140105833Y-106671433D01*
X140191591Y-106665561D01*
X140329658Y-106658064D01*
X140465667Y-106651668D01*
X141450899Y-106566984D01*
X142418081Y-106401008D01*
X143362700Y-106155779D01*
X144280243Y-105833334D01*
X145166197Y-105435710D01*
X146016049Y-104964945D01*
X146825286Y-104423078D01*
X147589394Y-103812144D01*
X148303861Y-103134183D01*
X148340573Y-103096091D01*
X148894653Y-102479278D01*
X149386270Y-101845448D01*
X149829191Y-101174845D01*
X150237183Y-100447716D01*
X150371508Y-100181833D01*
X150744816Y-99352943D01*
X151044313Y-98527082D01*
X151277015Y-97682077D01*
X151449940Y-96795755D01*
X151456696Y-96752833D01*
X151491750Y-96459807D01*
X151517579Y-96102404D01*
X151534281Y-95698600D01*
X151541956Y-95266371D01*
X151540702Y-94823693D01*
X151540302Y-94806429D01*
X151327162Y-94806429D01*
X151326621Y-95192544D01*
X151320085Y-95575385D01*
X151307670Y-95937523D01*
X151289487Y-96261528D01*
X151265653Y-96529969D01*
X151246893Y-96668166D01*
X151052205Y-97638909D01*
X150796751Y-98555567D01*
X150477011Y-99426435D01*
X150089468Y-100259804D01*
X149630603Y-101063971D01*
X149096899Y-101847227D01*
X148988305Y-101992311D01*
X148770825Y-102260332D01*
X148501485Y-102563197D01*
X148196258Y-102885088D01*
X147871119Y-103210185D01*
X147542045Y-103522671D01*
X147225008Y-103806725D01*
X146935985Y-104046530D01*
X146836833Y-104122756D01*
X146006631Y-104693565D01*
X145148819Y-105184722D01*
X144265192Y-105595724D01*
X143357544Y-105926067D01*
X142427670Y-106175248D01*
X141477364Y-106342763D01*
X140508420Y-106428109D01*
X139522634Y-106430781D01*
X138793500Y-106380247D01*
X137857655Y-106245206D01*
X136934783Y-106028747D01*
X136031143Y-105733851D01*
X135152998Y-105363500D01*
X134306606Y-104920675D01*
X133498228Y-104408359D01*
X132734125Y-103829533D01*
X132020556Y-103187178D01*
X131956667Y-103124000D01*
X131617828Y-102776624D01*
X131323706Y-102451724D01*
X131054721Y-102125386D01*
X130791297Y-101773695D01*
X130513855Y-101372737D01*
X130473279Y-101312058D01*
X129972111Y-100484412D01*
X129545719Y-99620296D01*
X129195404Y-98725309D01*
X128922467Y-97805049D01*
X128728208Y-96865114D01*
X128613929Y-95911105D01*
X128580930Y-94948618D01*
X128630512Y-93983254D01*
X128676335Y-93577833D01*
X128843684Y-92626003D01*
X129090885Y-91696898D01*
X129415109Y-90795011D01*
X129813528Y-89924838D01*
X130283312Y-89090871D01*
X130821633Y-88297606D01*
X131425661Y-87549537D01*
X132092569Y-86851158D01*
X132819527Y-86206964D01*
X133603706Y-85621448D01*
X133743431Y-85527455D01*
X134056684Y-85332943D01*
X134426752Y-85124174D01*
X134829932Y-84913059D01*
X135242519Y-84711511D01*
X135640810Y-84531443D01*
X136001100Y-84384767D01*
X136063000Y-84361767D01*
X136996232Y-84065433D01*
X137941503Y-83851519D01*
X138894068Y-83719459D01*
X139849182Y-83668685D01*
X140802099Y-83698632D01*
X141748075Y-83808732D01*
X142682363Y-83998419D01*
X143600220Y-84267128D01*
X144496899Y-84614290D01*
X145367656Y-85039340D01*
X146207745Y-85541712D01*
X146265333Y-85579794D01*
X146841307Y-85994757D01*
X147418880Y-86470314D01*
X147975500Y-86985915D01*
X148488612Y-87521005D01*
X148817129Y-87905166D01*
X149389591Y-88679148D01*
X149894809Y-89502560D01*
X150330874Y-90370977D01*
X150695875Y-91279978D01*
X150987902Y-92225141D01*
X151205045Y-93202042D01*
X151267104Y-93577833D01*
X151291680Y-93802742D01*
X151309805Y-94094098D01*
X151321595Y-94434470D01*
X151327162Y-94806429D01*
X151540302Y-94806429D01*
X151530619Y-94388544D01*
X151511806Y-93978900D01*
X151484362Y-93612737D01*
X151448387Y-93308031D01*
X151437316Y-93239166D01*
X151225721Y-92236098D01*
X150944931Y-91281214D01*
X150593795Y-90372309D01*
X150171158Y-89507183D01*
X149675869Y-88683633D01*
X149106775Y-87899455D01*
X148462724Y-87152448D01*
X148012799Y-86694923D01*
X147271476Y-86034446D01*
X146487894Y-85447280D01*
X145662557Y-84933665D01*
X144795969Y-84493837D01*
X143888635Y-84128037D01*
X142941058Y-83836501D01*
X141953743Y-83619468D01*
X141291167Y-83518494D01*
X141063688Y-83497354D01*
X140771294Y-83481802D01*
X140433553Y-83471837D01*
X140070030Y-83467457D01*
X139700293Y-83468660D01*
G36*
X139368593Y-84476045D02*
X138431371Y-84563381D01*
X137521747Y-84730236D01*
X136637867Y-84977205D01*
X135777878Y-85304882D01*
X134939927Y-85713862D01*
X134122160Y-86204740D01*
X133459500Y-86673213D01*
X133243040Y-86848432D01*
X132989036Y-87072527D01*
X132714068Y-87329263D01*
X132434715Y-87602407D01*
X132167557Y-87875725D01*
X131929172Y-88132982D01*
X131736141Y-88357947D01*
X131725744Y-88370833D01*
X131156558Y-89145235D01*
X130664094Y-89954904D01*
X130249052Y-90798168D01*
X129912133Y-91673360D01*
X129654036Y-92578810D01*
X129475463Y-93512848D01*
X129432903Y-93837371D01*
X129399882Y-94225148D01*
X129382500Y-94666690D01*
X129380226Y-95138179D01*
X129392529Y-95615798D01*
X129418877Y-96075730D01*
X129458737Y-96494156D01*
X129498460Y-96774000D01*
X129698026Y-97706543D01*
X129972727Y-98603971D01*
X130319271Y-99463070D01*
X130734366Y-100280622D01*
X131214719Y-101053415D01*
X131757038Y-101778232D01*
X132358031Y-102451857D01*
X133014406Y-103071077D01*
X133722870Y-103632676D01*
X134480132Y-104133439D01*
X135282898Y-104570150D01*
X136127878Y-104939595D01*
X137011778Y-105238558D01*
X137931306Y-105463824D01*
X138497167Y-105562037D01*
X138730421Y-105588616D01*
X139027195Y-105610691D01*
X139366438Y-105627762D01*
X139727097Y-105639326D01*
X140088122Y-105644880D01*
X140428460Y-105643923D01*
X140727060Y-105635953D01*
X140959753Y-105620772D01*
X141897076Y-105488380D01*
X142808062Y-105277425D01*
X143688760Y-104990895D01*
X144535220Y-104631777D01*
X145343492Y-104203060D01*
X146109626Y-103707729D01*
X146829671Y-103148773D01*
X147499676Y-102529180D01*
X148115692Y-101851937D01*
X148673768Y-101120031D01*
X149169953Y-100336451D01*
X149600298Y-99504182D01*
X149862801Y-98887682D01*
X150136970Y-98077709D01*
X150345808Y-97229593D01*
X150487816Y-96357865D01*
X150561500Y-95477056D01*
X150562698Y-95205480D01*
X150356193Y-95205480D01*
X150302361Y-96114965D01*
X150166193Y-97027020D01*
X150140372Y-97155000D01*
X149910873Y-98052246D01*
X149604087Y-98919457D01*
X149223417Y-99752248D01*
X148772264Y-100546233D01*
X148254028Y-101297026D01*
X147672113Y-102000244D01*
X147029918Y-102651501D01*
X146330847Y-103246412D01*
X145578299Y-103780591D01*
X144775677Y-104249653D01*
X144546261Y-104366829D01*
X143916612Y-104656334D01*
X143293806Y-104894962D01*
X142659664Y-105087683D01*
X141996010Y-105239466D01*
X141284665Y-105355282D01*
X140677333Y-105424584D01*
X140454577Y-105438351D01*
X140174013Y-105444377D01*
X139862118Y-105442945D01*
X139545370Y-105434338D01*
X139250247Y-105418839D01*
X139111000Y-105407867D01*
X138195859Y-105288026D01*
X137320180Y-105096883D01*
X136473562Y-104831563D01*
X135645606Y-104489191D01*
X135449167Y-104395554D01*
X134796501Y-104052673D01*
X134204275Y-103688345D01*
X133649073Y-103286115D01*
X133107479Y-102829525D01*
X132766442Y-102510166D01*
X132194358Y-101916919D01*
X131692592Y-101311286D01*
X131247081Y-100673950D01*
X130843760Y-99985588D01*
X130640186Y-99589166D01*
X130264179Y-98730870D01*
X129970850Y-97854356D01*
X129760119Y-96959279D01*
X129631905Y-96045290D01*
X129586128Y-95112044D01*
X129586000Y-95059499D01*
X129627322Y-94129699D01*
X129749501Y-93218012D01*
X129949862Y-92328755D01*
X130225728Y-91466242D01*
X130574421Y-90634790D01*
X130993266Y-89838716D01*
X131479586Y-89082335D01*
X132030703Y-88369963D01*
X132643941Y-87705916D01*
X133316624Y-87094510D01*
X134046074Y-86540061D01*
X134829615Y-86046885D01*
X135346484Y-85771246D01*
X136162707Y-85402919D01*
X136983195Y-85111536D01*
X137827734Y-84890808D01*
X138518333Y-84763269D01*
X138807014Y-84729494D01*
X139157982Y-84705301D01*
X139550459Y-84690690D01*
X139963670Y-84685662D01*
X140376836Y-84690218D01*
X140769182Y-84704359D01*
X141119929Y-84728084D01*
X141408302Y-84761395D01*
X141419900Y-84763185D01*
X142299081Y-84937183D01*
X143158245Y-85179175D01*
X143984682Y-85484611D01*
X144765682Y-85848940D01*
X145310632Y-86156063D01*
X146088260Y-86678144D01*
X146807640Y-87257653D01*
X147466766Y-87890016D01*
X148063628Y-88570664D01*
X148596221Y-89295023D01*
X149062536Y-90058523D01*
X149460567Y-90856593D01*
X149788306Y-91684660D01*
X150043745Y-92538154D01*
X150224877Y-93412503D01*
X150329696Y-94303135D01*
X150356193Y-95205480D01*
X150562698Y-95205480D01*
X150565363Y-94601695D01*
X150497908Y-93746313D01*
X150435802Y-93323833D01*
X150233193Y-92384840D01*
X149954249Y-91479391D01*
X149601148Y-90610853D01*
X149176068Y-89782594D01*
X148681188Y-88997980D01*
X148118687Y-88260379D01*
X147490742Y-87573159D01*
X146799533Y-86939687D01*
X146047238Y-86363330D01*
X145842000Y-86223311D01*
X145030868Y-85733062D01*
X144189327Y-85321680D01*
X143319253Y-84989764D01*
X142422524Y-84737912D01*
X141501016Y-84566723D01*
X140556604Y-84476794D01*
X140335266Y-84467634D01*
X139368593Y-84476045D01*
X139368593Y-84476045D01*
G37*
X139368593Y-84476045D02*
X138431371Y-84563381D01*
X137521747Y-84730236D01*
X136637867Y-84977205D01*
X135777878Y-85304882D01*
X134939927Y-85713862D01*
X134122160Y-86204740D01*
X133459500Y-86673213D01*
X133243040Y-86848432D01*
X132989036Y-87072527D01*
X132714068Y-87329263D01*
X132434715Y-87602407D01*
X132167557Y-87875725D01*
X131929172Y-88132982D01*
X131736141Y-88357947D01*
X131725744Y-88370833D01*
X131156558Y-89145235D01*
X130664094Y-89954904D01*
X130249052Y-90798168D01*
X129912133Y-91673360D01*
X129654036Y-92578810D01*
X129475463Y-93512848D01*
X129432903Y-93837371D01*
X129399882Y-94225148D01*
X129382500Y-94666690D01*
X129380226Y-95138179D01*
X129392529Y-95615798D01*
X129418877Y-96075730D01*
X129458737Y-96494156D01*
X129498460Y-96774000D01*
X129698026Y-97706543D01*
X129972727Y-98603971D01*
X130319271Y-99463070D01*
X130734366Y-100280622D01*
X131214719Y-101053415D01*
X131757038Y-101778232D01*
X132358031Y-102451857D01*
X133014406Y-103071077D01*
X133722870Y-103632676D01*
X134480132Y-104133439D01*
X135282898Y-104570150D01*
X136127878Y-104939595D01*
X137011778Y-105238558D01*
X137931306Y-105463824D01*
X138497167Y-105562037D01*
X138730421Y-105588616D01*
X139027195Y-105610691D01*
X139366438Y-105627762D01*
X139727097Y-105639326D01*
X140088122Y-105644880D01*
X140428460Y-105643923D01*
X140727060Y-105635953D01*
X140959753Y-105620772D01*
X141897076Y-105488380D01*
X142808062Y-105277425D01*
X143688760Y-104990895D01*
X144535220Y-104631777D01*
X145343492Y-104203060D01*
X146109626Y-103707729D01*
X146829671Y-103148773D01*
X147499676Y-102529180D01*
X148115692Y-101851937D01*
X148673768Y-101120031D01*
X149169953Y-100336451D01*
X149600298Y-99504182D01*
X149862801Y-98887682D01*
X150136970Y-98077709D01*
X150345808Y-97229593D01*
X150487816Y-96357865D01*
X150561500Y-95477056D01*
X150562698Y-95205480D01*
X150356193Y-95205480D01*
X150302361Y-96114965D01*
X150166193Y-97027020D01*
X150140372Y-97155000D01*
X149910873Y-98052246D01*
X149604087Y-98919457D01*
X149223417Y-99752248D01*
X148772264Y-100546233D01*
X148254028Y-101297026D01*
X147672113Y-102000244D01*
X147029918Y-102651501D01*
X146330847Y-103246412D01*
X145578299Y-103780591D01*
X144775677Y-104249653D01*
X144546261Y-104366829D01*
X143916612Y-104656334D01*
X143293806Y-104894962D01*
X142659664Y-105087683D01*
X141996010Y-105239466D01*
X141284665Y-105355282D01*
X140677333Y-105424584D01*
X140454577Y-105438351D01*
X140174013Y-105444377D01*
X139862118Y-105442945D01*
X139545370Y-105434338D01*
X139250247Y-105418839D01*
X139111000Y-105407867D01*
X138195859Y-105288026D01*
X137320180Y-105096883D01*
X136473562Y-104831563D01*
X135645606Y-104489191D01*
X135449167Y-104395554D01*
X134796501Y-104052673D01*
X134204275Y-103688345D01*
X133649073Y-103286115D01*
X133107479Y-102829525D01*
X132766442Y-102510166D01*
X132194358Y-101916919D01*
X131692592Y-101311286D01*
X131247081Y-100673950D01*
X130843760Y-99985588D01*
X130640186Y-99589166D01*
X130264179Y-98730870D01*
X129970850Y-97854356D01*
X129760119Y-96959279D01*
X129631905Y-96045290D01*
X129586128Y-95112044D01*
X129586000Y-95059499D01*
X129627322Y-94129699D01*
X129749501Y-93218012D01*
X129949862Y-92328755D01*
X130225728Y-91466242D01*
X130574421Y-90634790D01*
X130993266Y-89838716D01*
X131479586Y-89082335D01*
X132030703Y-88369963D01*
X132643941Y-87705916D01*
X133316624Y-87094510D01*
X134046074Y-86540061D01*
X134829615Y-86046885D01*
X135346484Y-85771246D01*
X136162707Y-85402919D01*
X136983195Y-85111536D01*
X137827734Y-84890808D01*
X138518333Y-84763269D01*
X138807014Y-84729494D01*
X139157982Y-84705301D01*
X139550459Y-84690690D01*
X139963670Y-84685662D01*
X140376836Y-84690218D01*
X140769182Y-84704359D01*
X141119929Y-84728084D01*
X141408302Y-84761395D01*
X141419900Y-84763185D01*
X142299081Y-84937183D01*
X143158245Y-85179175D01*
X143984682Y-85484611D01*
X144765682Y-85848940D01*
X145310632Y-86156063D01*
X146088260Y-86678144D01*
X146807640Y-87257653D01*
X147466766Y-87890016D01*
X148063628Y-88570664D01*
X148596221Y-89295023D01*
X149062536Y-90058523D01*
X149460567Y-90856593D01*
X149788306Y-91684660D01*
X150043745Y-92538154D01*
X150224877Y-93412503D01*
X150329696Y-94303135D01*
X150356193Y-95205480D01*
X150562698Y-95205480D01*
X150565363Y-94601695D01*
X150497908Y-93746313D01*
X150435802Y-93323833D01*
X150233193Y-92384840D01*
X149954249Y-91479391D01*
X149601148Y-90610853D01*
X149176068Y-89782594D01*
X148681188Y-88997980D01*
X148118687Y-88260379D01*
X147490742Y-87573159D01*
X146799533Y-86939687D01*
X146047238Y-86363330D01*
X145842000Y-86223311D01*
X145030868Y-85733062D01*
X144189327Y-85321680D01*
X143319253Y-84989764D01*
X142422524Y-84737912D01*
X141501016Y-84566723D01*
X140556604Y-84476794D01*
X140335266Y-84467634D01*
X139368593Y-84476045D01*
G36*
X139370523Y-85475014D02*
X138487819Y-85567264D01*
X137626975Y-85739176D01*
X136792406Y-85987562D01*
X135988531Y-86309236D01*
X135219767Y-86701008D01*
X134490530Y-87159690D01*
X133805240Y-87682095D01*
X133168312Y-88265034D01*
X132584165Y-88905320D01*
X132057216Y-89599764D01*
X131591881Y-90345179D01*
X131192580Y-91138375D01*
X131046697Y-91482333D01*
X130789420Y-92198180D01*
X130597265Y-92908962D01*
X130466749Y-93633368D01*
X130394389Y-94390086D01*
X130376016Y-95080666D01*
X130393806Y-95738024D01*
X130448073Y-96345293D01*
X130543342Y-96930791D01*
X130684136Y-97522833D01*
X130858078Y-98098600D01*
X131172237Y-98921778D01*
X131559389Y-99706482D01*
X132015174Y-100448664D01*
X132535232Y-101144272D01*
X133115203Y-101789258D01*
X133750728Y-102379572D01*
X134437447Y-102911165D01*
X135170999Y-103379986D01*
X135947026Y-103781987D01*
X136761167Y-104113117D01*
X137609062Y-104369328D01*
X137609259Y-104369378D01*
X137937714Y-104448354D01*
X138231568Y-104509320D01*
X138511361Y-104554682D01*
X138797632Y-104586847D01*
X139110918Y-104608222D01*
X139471758Y-104621214D01*
X139809500Y-104627201D01*
X140097336Y-104629889D01*
X140364700Y-104630775D01*
X140597258Y-104629939D01*
X140780676Y-104627459D01*
X140900621Y-104623417D01*
X140931333Y-104620958D01*
X141866386Y-104468219D01*
X142753931Y-104245791D01*
X143595652Y-103952898D01*
X144393232Y-103588761D01*
X145148356Y-103152602D01*
X145862707Y-102643643D01*
X146537969Y-102061107D01*
X146599880Y-102002166D01*
X147225847Y-101344837D01*
X147782539Y-100642291D01*
X148267694Y-99898376D01*
X148679048Y-99116938D01*
X149014338Y-98301827D01*
X149269492Y-97464028D01*
X149353526Y-97119352D01*
X149418883Y-96814350D01*
X149467762Y-96529501D01*
X149502362Y-96245279D01*
X149524885Y-95942164D01*
X149537530Y-95600631D01*
X149542496Y-95201157D01*
X149542829Y-95038333D01*
X149542478Y-94914172D01*
X149350485Y-94914172D01*
X149324496Y-95776590D01*
X149219340Y-96632274D01*
X149035393Y-97475407D01*
X148773034Y-98300173D01*
X148432639Y-99100752D01*
X148125911Y-99682595D01*
X147645950Y-100435597D01*
X147103647Y-101133768D01*
X146503519Y-101774118D01*
X145850078Y-102353657D01*
X145147837Y-102869395D01*
X144401312Y-103318343D01*
X143615015Y-103697510D01*
X142793460Y-104003906D01*
X141941161Y-104234542D01*
X141062632Y-104386429D01*
X141016000Y-104392155D01*
X140767902Y-104412296D01*
X140456526Y-104422714D01*
X140102630Y-104424029D01*
X139726968Y-104416863D01*
X139350297Y-104401838D01*
X138993371Y-104379575D01*
X138676947Y-104350695D01*
X138421780Y-104315821D01*
X138412500Y-104314197D01*
X137535625Y-104117514D01*
X136694765Y-103846221D01*
X135893248Y-103503810D01*
X135134405Y-103093774D01*
X134421563Y-102619605D01*
X133758052Y-102084796D01*
X133147202Y-101492840D01*
X132592340Y-100847229D01*
X132096797Y-100151456D01*
X131663901Y-99409014D01*
X131296982Y-98623394D01*
X130999368Y-97798090D01*
X130774388Y-96936595D01*
X130640304Y-96160166D01*
X130614029Y-95885553D01*
X130597846Y-95550664D01*
X130591533Y-95179257D01*
X130594865Y-94795093D01*
X130607619Y-94421929D01*
X130629572Y-94083527D01*
X130660501Y-93803645D01*
X130662597Y-93789500D01*
X130831918Y-92911328D01*
X131069035Y-92079675D01*
X131376540Y-91287046D01*
X131757026Y-90525950D01*
X131845462Y-90371105D01*
X132334064Y-89615842D01*
X132883234Y-88917934D01*
X133488937Y-88280029D01*
X134147142Y-87704777D01*
X134853815Y-87194827D01*
X135604924Y-86752828D01*
X136396437Y-86381430D01*
X137224319Y-86083281D01*
X138084539Y-85861031D01*
X138920238Y-85723542D01*
X139286254Y-85692508D01*
X139707572Y-85678320D01*
X140156621Y-85680495D01*
X140605828Y-85698552D01*
X141027620Y-85732009D01*
X141296558Y-85765028D01*
X142163607Y-85933491D01*
X143002924Y-86179590D01*
X143810031Y-86499825D01*
X144580446Y-86890696D01*
X145309690Y-87348704D01*
X145993283Y-87870349D01*
X146626743Y-88452130D01*
X147205593Y-89090549D01*
X147725350Y-89782106D01*
X148181536Y-90523300D01*
X148569670Y-91310632D01*
X148655237Y-91513508D01*
X148949684Y-92344689D01*
X149163456Y-93192404D01*
X149296931Y-94050838D01*
X149350485Y-94914172D01*
X149542478Y-94914172D01*
X149541845Y-94690692D01*
X149538168Y-94410858D01*
X149530762Y-94181988D01*
X149518593Y-93987239D01*
X149500622Y-93809767D01*
X149475815Y-93632728D01*
X149445191Y-93450833D01*
X149244296Y-92551647D01*
X148967779Y-91689013D01*
X148616722Y-90865023D01*
X148192209Y-90081771D01*
X147695322Y-89341352D01*
X147127143Y-88645860D01*
X146761579Y-88260103D01*
X146180339Y-87722143D01*
X145572640Y-87247767D01*
X144920622Y-86824301D01*
X144206425Y-86439074D01*
X144169833Y-86421112D01*
X143352860Y-86065914D01*
X142521509Y-85792668D01*
X141672028Y-85600634D01*
X140800666Y-85489075D01*
X139903673Y-85457249D01*
X139370523Y-85475014D01*
X139370523Y-85475014D01*
G37*
X139370523Y-85475014D02*
X138487819Y-85567264D01*
X137626975Y-85739176D01*
X136792406Y-85987562D01*
X135988531Y-86309236D01*
X135219767Y-86701008D01*
X134490530Y-87159690D01*
X133805240Y-87682095D01*
X133168312Y-88265034D01*
X132584165Y-88905320D01*
X132057216Y-89599764D01*
X131591881Y-90345179D01*
X131192580Y-91138375D01*
X131046697Y-91482333D01*
X130789420Y-92198180D01*
X130597265Y-92908962D01*
X130466749Y-93633368D01*
X130394389Y-94390086D01*
X130376016Y-95080666D01*
X130393806Y-95738024D01*
X130448073Y-96345293D01*
X130543342Y-96930791D01*
X130684136Y-97522833D01*
X130858078Y-98098600D01*
X131172237Y-98921778D01*
X131559389Y-99706482D01*
X132015174Y-100448664D01*
X132535232Y-101144272D01*
X133115203Y-101789258D01*
X133750728Y-102379572D01*
X134437447Y-102911165D01*
X135170999Y-103379986D01*
X135947026Y-103781987D01*
X136761167Y-104113117D01*
X137609062Y-104369328D01*
X137609259Y-104369378D01*
X137937714Y-104448354D01*
X138231568Y-104509320D01*
X138511361Y-104554682D01*
X138797632Y-104586847D01*
X139110918Y-104608222D01*
X139471758Y-104621214D01*
X139809500Y-104627201D01*
X140097336Y-104629889D01*
X140364700Y-104630775D01*
X140597258Y-104629939D01*
X140780676Y-104627459D01*
X140900621Y-104623417D01*
X140931333Y-104620958D01*
X141866386Y-104468219D01*
X142753931Y-104245791D01*
X143595652Y-103952898D01*
X144393232Y-103588761D01*
X145148356Y-103152602D01*
X145862707Y-102643643D01*
X146537969Y-102061107D01*
X146599880Y-102002166D01*
X147225847Y-101344837D01*
X147782539Y-100642291D01*
X148267694Y-99898376D01*
X148679048Y-99116938D01*
X149014338Y-98301827D01*
X149269492Y-97464028D01*
X149353526Y-97119352D01*
X149418883Y-96814350D01*
X149467762Y-96529501D01*
X149502362Y-96245279D01*
X149524885Y-95942164D01*
X149537530Y-95600631D01*
X149542496Y-95201157D01*
X149542829Y-95038333D01*
X149542478Y-94914172D01*
X149350485Y-94914172D01*
X149324496Y-95776590D01*
X149219340Y-96632274D01*
X149035393Y-97475407D01*
X148773034Y-98300173D01*
X148432639Y-99100752D01*
X148125911Y-99682595D01*
X147645950Y-100435597D01*
X147103647Y-101133768D01*
X146503519Y-101774118D01*
X145850078Y-102353657D01*
X145147837Y-102869395D01*
X144401312Y-103318343D01*
X143615015Y-103697510D01*
X142793460Y-104003906D01*
X141941161Y-104234542D01*
X141062632Y-104386429D01*
X141016000Y-104392155D01*
X140767902Y-104412296D01*
X140456526Y-104422714D01*
X140102630Y-104424029D01*
X139726968Y-104416863D01*
X139350297Y-104401838D01*
X138993371Y-104379575D01*
X138676947Y-104350695D01*
X138421780Y-104315821D01*
X138412500Y-104314197D01*
X137535625Y-104117514D01*
X136694765Y-103846221D01*
X135893248Y-103503810D01*
X135134405Y-103093774D01*
X134421563Y-102619605D01*
X133758052Y-102084796D01*
X133147202Y-101492840D01*
X132592340Y-100847229D01*
X132096797Y-100151456D01*
X131663901Y-99409014D01*
X131296982Y-98623394D01*
X130999368Y-97798090D01*
X130774388Y-96936595D01*
X130640304Y-96160166D01*
X130614029Y-95885553D01*
X130597846Y-95550664D01*
X130591533Y-95179257D01*
X130594865Y-94795093D01*
X130607619Y-94421929D01*
X130629572Y-94083527D01*
X130660501Y-93803645D01*
X130662597Y-93789500D01*
X130831918Y-92911328D01*
X131069035Y-92079675D01*
X131376540Y-91287046D01*
X131757026Y-90525950D01*
X131845462Y-90371105D01*
X132334064Y-89615842D01*
X132883234Y-88917934D01*
X133488937Y-88280029D01*
X134147142Y-87704777D01*
X134853815Y-87194827D01*
X135604924Y-86752828D01*
X136396437Y-86381430D01*
X137224319Y-86083281D01*
X138084539Y-85861031D01*
X138920238Y-85723542D01*
X139286254Y-85692508D01*
X139707572Y-85678320D01*
X140156621Y-85680495D01*
X140605828Y-85698552D01*
X141027620Y-85732009D01*
X141296558Y-85765028D01*
X142163607Y-85933491D01*
X143002924Y-86179590D01*
X143810031Y-86499825D01*
X144580446Y-86890696D01*
X145309690Y-87348704D01*
X145993283Y-87870349D01*
X146626743Y-88452130D01*
X147205593Y-89090549D01*
X147725350Y-89782106D01*
X148181536Y-90523300D01*
X148569670Y-91310632D01*
X148655237Y-91513508D01*
X148949684Y-92344689D01*
X149163456Y-93192404D01*
X149296931Y-94050838D01*
X149350485Y-94914172D01*
X149542478Y-94914172D01*
X149541845Y-94690692D01*
X149538168Y-94410858D01*
X149530762Y-94181988D01*
X149518593Y-93987239D01*
X149500622Y-93809767D01*
X149475815Y-93632728D01*
X149445191Y-93450833D01*
X149244296Y-92551647D01*
X148967779Y-91689013D01*
X148616722Y-90865023D01*
X148192209Y-90081771D01*
X147695322Y-89341352D01*
X147127143Y-88645860D01*
X146761579Y-88260103D01*
X146180339Y-87722143D01*
X145572640Y-87247767D01*
X144920622Y-86824301D01*
X144206425Y-86439074D01*
X144169833Y-86421112D01*
X143352860Y-86065914D01*
X142521509Y-85792668D01*
X141672028Y-85600634D01*
X140800666Y-85489075D01*
X139903673Y-85457249D01*
X139370523Y-85475014D01*
G36*
X139008863Y-86504390D02*
X138213707Y-86629789D01*
X137427793Y-86830797D01*
X136656542Y-87108412D01*
X135905376Y-87463626D01*
X135425145Y-87739883D01*
X134728144Y-88219885D01*
X134088352Y-88760663D01*
X133508371Y-89358291D01*
X132990803Y-90008841D01*
X132538251Y-90708386D01*
X132153317Y-91453000D01*
X131838603Y-92238754D01*
X131596710Y-93061723D01*
X131461046Y-93722273D01*
X131426642Y-93994955D01*
X131402355Y-94329376D01*
X131388167Y-94704307D01*
X131384066Y-95098521D01*
X131390036Y-95490790D01*
X131406062Y-95859886D01*
X131432130Y-96184582D01*
X131462921Y-96414166D01*
X131652136Y-97271540D01*
X131916088Y-98091034D01*
X132252783Y-98869770D01*
X132660229Y-99604866D01*
X133136435Y-100293443D01*
X133679407Y-100932623D01*
X134287153Y-101519524D01*
X134957681Y-102051268D01*
X135688999Y-102524974D01*
X135692191Y-102526835D01*
X136400371Y-102891553D01*
X137155032Y-103189282D01*
X137947652Y-103417397D01*
X138769708Y-103573275D01*
X139280333Y-103631625D01*
X139598614Y-103655061D01*
X139882410Y-103665632D01*
X140163255Y-103663256D01*
X140472685Y-103647851D01*
X140740833Y-103627832D01*
X141518082Y-103523295D01*
X142295164Y-103339480D01*
X143061142Y-103081092D01*
X143805082Y-102752832D01*
X144516048Y-102359404D01*
X145183104Y-101905509D01*
X145671592Y-101507492D01*
X146271303Y-100923498D01*
X146802815Y-100294095D01*
X147265593Y-99624770D01*
X147659097Y-98921013D01*
X147982791Y-98188309D01*
X148236137Y-97432148D01*
X148418597Y-96658017D01*
X148529635Y-95871404D01*
X148568713Y-95077796D01*
X148567944Y-95059500D01*
X148345088Y-95059500D01*
X148304871Y-95905591D01*
X148183313Y-96728639D01*
X147980788Y-97527410D01*
X147697669Y-98300669D01*
X147334328Y-99047181D01*
X146950316Y-99678328D01*
X146440187Y-100368503D01*
X145876761Y-100992917D01*
X145260598Y-101551140D01*
X144592258Y-102042740D01*
X143872300Y-102467288D01*
X143101283Y-102824352D01*
X142640071Y-102997208D01*
X141857942Y-103222675D01*
X141052465Y-103369471D01*
X140233840Y-103436661D01*
X139412265Y-103423311D01*
X138754199Y-103353196D01*
X137947762Y-103192156D01*
X137167784Y-102954024D01*
X136419065Y-102642999D01*
X135706405Y-102263279D01*
X135034605Y-101819062D01*
X134408464Y-101314546D01*
X133832782Y-100753931D01*
X133312359Y-100141413D01*
X132851996Y-99481192D01*
X132456493Y-98777466D01*
X132130648Y-98034433D01*
X131909648Y-97366666D01*
X131718403Y-96540065D01*
X131610410Y-95710931D01*
X131584924Y-94883993D01*
X131641199Y-94063977D01*
X131778489Y-93255613D01*
X131996049Y-92463629D01*
X132293134Y-91692753D01*
X132668996Y-90947713D01*
X133008455Y-90399328D01*
X133508604Y-89727718D01*
X134061462Y-89118695D01*
X134661823Y-88573684D01*
X135304482Y-88094112D01*
X135984234Y-87681402D01*
X136695873Y-87336980D01*
X137434194Y-87062271D01*
X138193991Y-86858701D01*
X138970059Y-86727694D01*
X139757192Y-86670676D01*
X140550185Y-86689071D01*
X141343833Y-86784305D01*
X142132931Y-86957803D01*
X142912271Y-87210991D01*
X143589315Y-87502500D01*
X144184698Y-87815460D01*
X144724135Y-88155863D01*
X145232974Y-88541381D01*
X145736560Y-88989685D01*
X145774349Y-89025875D01*
X146358377Y-89644734D01*
X146870318Y-90306806D01*
X147308683Y-91008600D01*
X147671985Y-91746620D01*
X147958733Y-92517374D01*
X148167441Y-93317367D01*
X148296619Y-94143108D01*
X148344780Y-94991101D01*
X148345088Y-95059500D01*
X148567944Y-95059500D01*
X148535293Y-94282683D01*
X148428838Y-93491550D01*
X148248810Y-92709886D01*
X147994672Y-91943180D01*
X147665887Y-91196918D01*
X147261917Y-90476589D01*
X146815174Y-89830685D01*
X146276137Y-89190047D01*
X145686711Y-88614074D01*
X145052318Y-88103759D01*
X144378379Y-87660099D01*
X143670314Y-87284089D01*
X142933544Y-86976723D01*
X142173491Y-86738997D01*
X141395576Y-86571905D01*
X140605218Y-86476444D01*
X139807840Y-86453607D01*
X139008863Y-86504390D01*
X139008863Y-86504390D01*
G37*
X139008863Y-86504390D02*
X138213707Y-86629789D01*
X137427793Y-86830797D01*
X136656542Y-87108412D01*
X135905376Y-87463626D01*
X135425145Y-87739883D01*
X134728144Y-88219885D01*
X134088352Y-88760663D01*
X133508371Y-89358291D01*
X132990803Y-90008841D01*
X132538251Y-90708386D01*
X132153317Y-91453000D01*
X131838603Y-92238754D01*
X131596710Y-93061723D01*
X131461046Y-93722273D01*
X131426642Y-93994955D01*
X131402355Y-94329376D01*
X131388167Y-94704307D01*
X131384066Y-95098521D01*
X131390036Y-95490790D01*
X131406062Y-95859886D01*
X131432130Y-96184582D01*
X131462921Y-96414166D01*
X131652136Y-97271540D01*
X131916088Y-98091034D01*
X132252783Y-98869770D01*
X132660229Y-99604866D01*
X133136435Y-100293443D01*
X133679407Y-100932623D01*
X134287153Y-101519524D01*
X134957681Y-102051268D01*
X135688999Y-102524974D01*
X135692191Y-102526835D01*
X136400371Y-102891553D01*
X137155032Y-103189282D01*
X137947652Y-103417397D01*
X138769708Y-103573275D01*
X139280333Y-103631625D01*
X139598614Y-103655061D01*
X139882410Y-103665632D01*
X140163255Y-103663256D01*
X140472685Y-103647851D01*
X140740833Y-103627832D01*
X141518082Y-103523295D01*
X142295164Y-103339480D01*
X143061142Y-103081092D01*
X143805082Y-102752832D01*
X144516048Y-102359404D01*
X145183104Y-101905509D01*
X145671592Y-101507492D01*
X146271303Y-100923498D01*
X146802815Y-100294095D01*
X147265593Y-99624770D01*
X147659097Y-98921013D01*
X147982791Y-98188309D01*
X148236137Y-97432148D01*
X148418597Y-96658017D01*
X148529635Y-95871404D01*
X148568713Y-95077796D01*
X148567944Y-95059500D01*
X148345088Y-95059500D01*
X148304871Y-95905591D01*
X148183313Y-96728639D01*
X147980788Y-97527410D01*
X147697669Y-98300669D01*
X147334328Y-99047181D01*
X146950316Y-99678328D01*
X146440187Y-100368503D01*
X145876761Y-100992917D01*
X145260598Y-101551140D01*
X144592258Y-102042740D01*
X143872300Y-102467288D01*
X143101283Y-102824352D01*
X142640071Y-102997208D01*
X141857942Y-103222675D01*
X141052465Y-103369471D01*
X140233840Y-103436661D01*
X139412265Y-103423311D01*
X138754199Y-103353196D01*
X137947762Y-103192156D01*
X137167784Y-102954024D01*
X136419065Y-102642999D01*
X135706405Y-102263279D01*
X135034605Y-101819062D01*
X134408464Y-101314546D01*
X133832782Y-100753931D01*
X133312359Y-100141413D01*
X132851996Y-99481192D01*
X132456493Y-98777466D01*
X132130648Y-98034433D01*
X131909648Y-97366666D01*
X131718403Y-96540065D01*
X131610410Y-95710931D01*
X131584924Y-94883993D01*
X131641199Y-94063977D01*
X131778489Y-93255613D01*
X131996049Y-92463629D01*
X132293134Y-91692753D01*
X132668996Y-90947713D01*
X133008455Y-90399328D01*
X133508604Y-89727718D01*
X134061462Y-89118695D01*
X134661823Y-88573684D01*
X135304482Y-88094112D01*
X135984234Y-87681402D01*
X136695873Y-87336980D01*
X137434194Y-87062271D01*
X138193991Y-86858701D01*
X138970059Y-86727694D01*
X139757192Y-86670676D01*
X140550185Y-86689071D01*
X141343833Y-86784305D01*
X142132931Y-86957803D01*
X142912271Y-87210991D01*
X143589315Y-87502500D01*
X144184698Y-87815460D01*
X144724135Y-88155863D01*
X145232974Y-88541381D01*
X145736560Y-88989685D01*
X145774349Y-89025875D01*
X146358377Y-89644734D01*
X146870318Y-90306806D01*
X147308683Y-91008600D01*
X147671985Y-91746620D01*
X147958733Y-92517374D01*
X148167441Y-93317367D01*
X148296619Y-94143108D01*
X148344780Y-94991101D01*
X148345088Y-95059500D01*
X148567944Y-95059500D01*
X148535293Y-94282683D01*
X148428838Y-93491550D01*
X148248810Y-92709886D01*
X147994672Y-91943180D01*
X147665887Y-91196918D01*
X147261917Y-90476589D01*
X146815174Y-89830685D01*
X146276137Y-89190047D01*
X145686711Y-88614074D01*
X145052318Y-88103759D01*
X144378379Y-87660099D01*
X143670314Y-87284089D01*
X142933544Y-86976723D01*
X142173491Y-86738997D01*
X141395576Y-86571905D01*
X140605218Y-86476444D01*
X139807840Y-86453607D01*
X139008863Y-86504390D01*
G36*
X139631053Y-87483028D02*
X139372032Y-87486625D01*
X139163544Y-87494159D01*
X138988529Y-87506819D01*
X138829928Y-87525790D01*
X138670682Y-87552259D01*
X138518333Y-87582311D01*
X137890572Y-87735434D01*
X137304872Y-87930510D01*
X136723725Y-88180562D01*
X136549833Y-88265647D01*
X136100076Y-88505860D01*
X135701179Y-88753314D01*
X135329801Y-89024994D01*
X134962603Y-89337884D01*
X134602239Y-89682905D01*
X134210465Y-90095889D01*
X133879032Y-90494687D01*
X133591676Y-90901167D01*
X133332135Y-91337200D01*
X133232524Y-91524666D01*
X132940310Y-92143295D01*
X132714370Y-92744147D01*
X132550657Y-93345236D01*
X132445125Y-93964576D01*
X132393723Y-94620180D01*
X132390760Y-95270683D01*
X132427853Y-95928338D01*
X132507431Y-96531109D01*
X132634520Y-97100042D01*
X132814146Y-97656184D01*
X133051334Y-98220579D01*
X133138968Y-98403833D01*
X133528435Y-99103015D01*
X133982916Y-99750614D01*
X134497708Y-100343085D01*
X135068108Y-100876887D01*
X135689410Y-101348475D01*
X136356913Y-101754306D01*
X137065912Y-102090836D01*
X137811704Y-102354522D01*
X138589584Y-102541821D01*
X138645333Y-102552018D01*
X138915429Y-102589081D01*
X139245365Y-102616736D01*
X139611543Y-102634544D01*
X139990365Y-102642065D01*
X140358231Y-102638859D01*
X140691543Y-102624485D01*
X140966702Y-102598504D01*
X140987064Y-102595688D01*
X141780461Y-102441393D01*
X142542235Y-102211231D01*
X143267945Y-101908389D01*
X143953149Y-101536052D01*
X144593405Y-101097407D01*
X145184273Y-100595641D01*
X145721310Y-100033940D01*
X146200075Y-99415491D01*
X146616127Y-98743479D01*
X146771031Y-98446166D01*
X147075024Y-97757436D01*
X147301426Y-97077699D01*
X147453404Y-96400522D01*
X147550397Y-95595322D01*
X147560981Y-95024423D01*
X147361015Y-95024423D01*
X147325696Y-95764820D01*
X147209052Y-96507415D01*
X147010640Y-97260940D01*
X146997253Y-97303166D01*
X146724191Y-98022065D01*
X146379520Y-98702958D01*
X145968547Y-99341329D01*
X145496575Y-99932662D01*
X144968910Y-100472442D01*
X144390856Y-100956153D01*
X143767719Y-101379279D01*
X143104804Y-101737306D01*
X142407414Y-102025717D01*
X141680855Y-102239996D01*
X141058333Y-102358476D01*
X140888159Y-102382955D01*
X140738429Y-102404572D01*
X140639645Y-102418920D01*
X140635000Y-102419601D01*
X140476407Y-102433368D01*
X140255932Y-102439713D01*
X139995989Y-102439130D01*
X139718993Y-102432110D01*
X139447358Y-102419147D01*
X139203498Y-102400731D01*
X139062894Y-102385070D01*
X138281858Y-102239935D01*
X137531693Y-102018639D01*
X136816851Y-101724840D01*
X136141782Y-101362195D01*
X135510938Y-100934361D01*
X134928768Y-100444997D01*
X134399725Y-99897760D01*
X133928258Y-99296308D01*
X133518820Y-98644298D01*
X133175859Y-97945388D01*
X132956240Y-97366666D01*
X132849749Y-97034170D01*
X132767411Y-96740980D01*
X132706303Y-96467313D01*
X132663505Y-96193384D01*
X132636095Y-95899409D01*
X132621151Y-95565605D01*
X132615753Y-95172186D01*
X132615552Y-95059500D01*
X132618651Y-94656912D01*
X132629845Y-94318801D01*
X132651981Y-94025139D01*
X132687906Y-93755898D01*
X132740467Y-93491051D01*
X132812509Y-93210571D01*
X132906880Y-92894429D01*
X132936748Y-92799763D01*
X133200419Y-92107339D01*
X133541065Y-91437654D01*
X133952214Y-90799102D01*
X134427400Y-90200078D01*
X134960152Y-89648973D01*
X135544002Y-89154182D01*
X135988525Y-88840027D01*
X136641806Y-88464002D01*
X137334664Y-88158895D01*
X138058066Y-87926305D01*
X138802978Y-87767827D01*
X139560369Y-87685060D01*
X140321204Y-87679600D01*
X141076450Y-87753045D01*
X141587500Y-87850082D01*
X142338862Y-88064705D01*
X143055369Y-88353520D01*
X143732535Y-88711993D01*
X144365875Y-89135586D01*
X144950905Y-89619765D01*
X145483138Y-90159992D01*
X145958089Y-90751732D01*
X146371272Y-91390449D01*
X146718203Y-92071607D01*
X146994396Y-92790669D01*
X147189448Y-93515304D01*
X147315451Y-94277494D01*
X147361015Y-95024423D01*
X147560981Y-95024423D01*
X147565196Y-94797083D01*
X147499388Y-94010890D01*
X147354566Y-93241826D01*
X147132317Y-92494974D01*
X146834232Y-91775419D01*
X146461901Y-91088244D01*
X146016913Y-90438534D01*
X145500859Y-89831371D01*
X145350702Y-89676551D01*
X144757375Y-89140404D01*
X144117143Y-88674537D01*
X143431390Y-88279682D01*
X142701498Y-87956572D01*
X141928851Y-87705941D01*
X141395070Y-87580366D01*
X141219537Y-87547025D01*
X141057466Y-87522079D01*
X140891682Y-87504355D01*
X140705009Y-87492678D01*
X140480272Y-87485877D01*
X140200297Y-87482778D01*
X139957667Y-87482182D01*
X139631053Y-87483028D01*
X139631053Y-87483028D01*
G37*
X139631053Y-87483028D02*
X139372032Y-87486625D01*
X139163544Y-87494159D01*
X138988529Y-87506819D01*
X138829928Y-87525790D01*
X138670682Y-87552259D01*
X138518333Y-87582311D01*
X137890572Y-87735434D01*
X137304872Y-87930510D01*
X136723725Y-88180562D01*
X136549833Y-88265647D01*
X136100076Y-88505860D01*
X135701179Y-88753314D01*
X135329801Y-89024994D01*
X134962603Y-89337884D01*
X134602239Y-89682905D01*
X134210465Y-90095889D01*
X133879032Y-90494687D01*
X133591676Y-90901167D01*
X133332135Y-91337200D01*
X133232524Y-91524666D01*
X132940310Y-92143295D01*
X132714370Y-92744147D01*
X132550657Y-93345236D01*
X132445125Y-93964576D01*
X132393723Y-94620180D01*
X132390760Y-95270683D01*
X132427853Y-95928338D01*
X132507431Y-96531109D01*
X132634520Y-97100042D01*
X132814146Y-97656184D01*
X133051334Y-98220579D01*
X133138968Y-98403833D01*
X133528435Y-99103015D01*
X133982916Y-99750614D01*
X134497708Y-100343085D01*
X135068108Y-100876887D01*
X135689410Y-101348475D01*
X136356913Y-101754306D01*
X137065912Y-102090836D01*
X137811704Y-102354522D01*
X138589584Y-102541821D01*
X138645333Y-102552018D01*
X138915429Y-102589081D01*
X139245365Y-102616736D01*
X139611543Y-102634544D01*
X139990365Y-102642065D01*
X140358231Y-102638859D01*
X140691543Y-102624485D01*
X140966702Y-102598504D01*
X140987064Y-102595688D01*
X141780461Y-102441393D01*
X142542235Y-102211231D01*
X143267945Y-101908389D01*
X143953149Y-101536052D01*
X144593405Y-101097407D01*
X145184273Y-100595641D01*
X145721310Y-100033940D01*
X146200075Y-99415491D01*
X146616127Y-98743479D01*
X146771031Y-98446166D01*
X147075024Y-97757436D01*
X147301426Y-97077699D01*
X147453404Y-96400522D01*
X147550397Y-95595322D01*
X147560981Y-95024423D01*
X147361015Y-95024423D01*
X147325696Y-95764820D01*
X147209052Y-96507415D01*
X147010640Y-97260940D01*
X146997253Y-97303166D01*
X146724191Y-98022065D01*
X146379520Y-98702958D01*
X145968547Y-99341329D01*
X145496575Y-99932662D01*
X144968910Y-100472442D01*
X144390856Y-100956153D01*
X143767719Y-101379279D01*
X143104804Y-101737306D01*
X142407414Y-102025717D01*
X141680855Y-102239996D01*
X141058333Y-102358476D01*
X140888159Y-102382955D01*
X140738429Y-102404572D01*
X140639645Y-102418920D01*
X140635000Y-102419601D01*
X140476407Y-102433368D01*
X140255932Y-102439713D01*
X139995989Y-102439130D01*
X139718993Y-102432110D01*
X139447358Y-102419147D01*
X139203498Y-102400731D01*
X139062894Y-102385070D01*
X138281858Y-102239935D01*
X137531693Y-102018639D01*
X136816851Y-101724840D01*
X136141782Y-101362195D01*
X135510938Y-100934361D01*
X134928768Y-100444997D01*
X134399725Y-99897760D01*
X133928258Y-99296308D01*
X133518820Y-98644298D01*
X133175859Y-97945388D01*
X132956240Y-97366666D01*
X132849749Y-97034170D01*
X132767411Y-96740980D01*
X132706303Y-96467313D01*
X132663505Y-96193384D01*
X132636095Y-95899409D01*
X132621151Y-95565605D01*
X132615753Y-95172186D01*
X132615552Y-95059500D01*
X132618651Y-94656912D01*
X132629845Y-94318801D01*
X132651981Y-94025139D01*
X132687906Y-93755898D01*
X132740467Y-93491051D01*
X132812509Y-93210571D01*
X132906880Y-92894429D01*
X132936748Y-92799763D01*
X133200419Y-92107339D01*
X133541065Y-91437654D01*
X133952214Y-90799102D01*
X134427400Y-90200078D01*
X134960152Y-89648973D01*
X135544002Y-89154182D01*
X135988525Y-88840027D01*
X136641806Y-88464002D01*
X137334664Y-88158895D01*
X138058066Y-87926305D01*
X138802978Y-87767827D01*
X139560369Y-87685060D01*
X140321204Y-87679600D01*
X141076450Y-87753045D01*
X141587500Y-87850082D01*
X142338862Y-88064705D01*
X143055369Y-88353520D01*
X143732535Y-88711993D01*
X144365875Y-89135586D01*
X144950905Y-89619765D01*
X145483138Y-90159992D01*
X145958089Y-90751732D01*
X146371272Y-91390449D01*
X146718203Y-92071607D01*
X146994396Y-92790669D01*
X147189448Y-93515304D01*
X147315451Y-94277494D01*
X147361015Y-95024423D01*
X147560981Y-95024423D01*
X147565196Y-94797083D01*
X147499388Y-94010890D01*
X147354566Y-93241826D01*
X147132317Y-92494974D01*
X146834232Y-91775419D01*
X146461901Y-91088244D01*
X146016913Y-90438534D01*
X145500859Y-89831371D01*
X145350702Y-89676551D01*
X144757375Y-89140404D01*
X144117143Y-88674537D01*
X143431390Y-88279682D01*
X142701498Y-87956572D01*
X141928851Y-87705941D01*
X141395070Y-87580366D01*
X141219537Y-87547025D01*
X141057466Y-87522079D01*
X140891682Y-87504355D01*
X140705009Y-87492678D01*
X140480272Y-87485877D01*
X140200297Y-87482778D01*
X139957667Y-87482182D01*
X139631053Y-87483028D01*
G36*
X139195052Y-88496214D02*
X138475220Y-88621419D01*
X137770028Y-88826153D01*
X137086362Y-89110288D01*
X136949963Y-89178090D01*
X136430917Y-89471118D01*
X135961193Y-89797942D01*
X135513684Y-90178374D01*
X135301992Y-90382658D01*
X134891298Y-90826830D01*
X134543275Y-91280401D01*
X134237928Y-91771052D01*
X134071127Y-92086268D01*
X133773498Y-92772589D01*
X133556608Y-93476562D01*
X133420076Y-94192138D01*
X133363524Y-94913266D01*
X133386569Y-95633898D01*
X133488834Y-96347983D01*
X133669938Y-97049471D01*
X133929501Y-97732313D01*
X134267144Y-98390460D01*
X134489192Y-98744498D01*
X134940076Y-99342914D01*
X135446335Y-99877643D01*
X136006258Y-100347525D01*
X136618135Y-100751402D01*
X137280255Y-101088113D01*
X137990909Y-101356500D01*
X138581833Y-101518600D01*
X138844410Y-101564889D01*
X139169494Y-101599418D01*
X139535698Y-101621844D01*
X139921638Y-101631826D01*
X140305927Y-101629020D01*
X140667179Y-101613086D01*
X140984008Y-101583679D01*
X141143000Y-101559589D01*
X141863530Y-101386457D01*
X142552845Y-101137456D01*
X143205551Y-100816630D01*
X143816252Y-100428019D01*
X144379552Y-99975667D01*
X144890056Y-99463616D01*
X145342369Y-98895907D01*
X145731096Y-98276582D01*
X145863851Y-98022833D01*
X146039529Y-97650888D01*
X146178172Y-97312685D01*
X146291642Y-96974659D01*
X146391800Y-96603244D01*
X146442923Y-96384141D01*
X146476480Y-96225037D01*
X146501390Y-96078257D01*
X146518859Y-95926857D01*
X146530094Y-95753892D01*
X146536300Y-95542420D01*
X146538683Y-95275496D01*
X146538694Y-95154129D01*
X146332796Y-95154129D01*
X146324263Y-95531929D01*
X146301756Y-95877984D01*
X146265074Y-96169492D01*
X146252876Y-96235092D01*
X146065759Y-96957173D01*
X145805334Y-97637126D01*
X145470771Y-98276495D01*
X145061239Y-98876822D01*
X144575906Y-99439653D01*
X144469152Y-99548373D01*
X143914705Y-100048920D01*
X143334028Y-100469871D01*
X142723483Y-100813229D01*
X142079429Y-101080997D01*
X141398226Y-101275177D01*
X141286108Y-101299433D01*
X141081398Y-101341501D01*
X140917947Y-101372653D01*
X140777289Y-101394285D01*
X140640959Y-101407796D01*
X140490488Y-101414585D01*
X140307412Y-101416049D01*
X140073262Y-101413587D01*
X139830667Y-101409627D01*
X139493296Y-101401186D01*
X139221638Y-101387515D01*
X138996814Y-101367000D01*
X138799948Y-101338027D01*
X138656995Y-101309265D01*
X137939706Y-101107395D01*
X137262069Y-100832851D01*
X136628119Y-100489774D01*
X136041894Y-100082302D01*
X135507432Y-99614575D01*
X135028769Y-99090731D01*
X134609943Y-98514910D01*
X134254990Y-97891251D01*
X133967948Y-97223892D01*
X133752854Y-96516974D01*
X133685506Y-96212141D01*
X133620588Y-95763268D01*
X133589617Y-95268986D01*
X133592595Y-94761446D01*
X133629520Y-94272803D01*
X133685506Y-93906858D01*
X133869216Y-93185318D01*
X134127712Y-92497928D01*
X134457813Y-91849810D01*
X134856339Y-91246085D01*
X135320109Y-90691876D01*
X135845941Y-90192304D01*
X136136145Y-89960844D01*
X136747478Y-89552989D01*
X137391801Y-89220510D01*
X138062978Y-88964767D01*
X138754870Y-88787122D01*
X139461337Y-88688935D01*
X140176243Y-88671567D01*
X140893448Y-88736378D01*
X141312938Y-88813222D01*
X142013807Y-89008360D01*
X142679039Y-89277691D01*
X143304142Y-89616677D01*
X143884625Y-90020782D01*
X144415997Y-90485469D01*
X144893766Y-91006200D01*
X145313441Y-91578439D01*
X145670531Y-92197649D01*
X145960544Y-92859293D01*
X146178989Y-93558834D01*
X146231223Y-93781524D01*
X146276570Y-94058282D01*
X146308749Y-94394504D01*
X146327558Y-94767387D01*
X146332796Y-95154129D01*
X146538694Y-95154129D01*
X146538706Y-95038333D01*
X146534281Y-94640134D01*
X146520706Y-94305842D01*
X146494941Y-94014916D01*
X146453950Y-93746818D01*
X146394695Y-93481008D01*
X146314138Y-93196947D01*
X146225986Y-92923830D01*
X145962666Y-92268515D01*
X145624229Y-91641490D01*
X145217725Y-91050630D01*
X144750204Y-90503805D01*
X144228717Y-90008891D01*
X143660315Y-89573761D01*
X143052046Y-89206286D01*
X142772833Y-89067706D01*
X142083080Y-88793303D01*
X141373539Y-88599083D01*
X140651097Y-88484916D01*
X139922640Y-88450669D01*
X139195052Y-88496214D01*
X139195052Y-88496214D01*
G37*
X139195052Y-88496214D02*
X138475220Y-88621419D01*
X137770028Y-88826153D01*
X137086362Y-89110288D01*
X136949963Y-89178090D01*
X136430917Y-89471118D01*
X135961193Y-89797942D01*
X135513684Y-90178374D01*
X135301992Y-90382658D01*
X134891298Y-90826830D01*
X134543275Y-91280401D01*
X134237928Y-91771052D01*
X134071127Y-92086268D01*
X133773498Y-92772589D01*
X133556608Y-93476562D01*
X133420076Y-94192138D01*
X133363524Y-94913266D01*
X133386569Y-95633898D01*
X133488834Y-96347983D01*
X133669938Y-97049471D01*
X133929501Y-97732313D01*
X134267144Y-98390460D01*
X134489192Y-98744498D01*
X134940076Y-99342914D01*
X135446335Y-99877643D01*
X136006258Y-100347525D01*
X136618135Y-100751402D01*
X137280255Y-101088113D01*
X137990909Y-101356500D01*
X138581833Y-101518600D01*
X138844410Y-101564889D01*
X139169494Y-101599418D01*
X139535698Y-101621844D01*
X139921638Y-101631826D01*
X140305927Y-101629020D01*
X140667179Y-101613086D01*
X140984008Y-101583679D01*
X141143000Y-101559589D01*
X141863530Y-101386457D01*
X142552845Y-101137456D01*
X143205551Y-100816630D01*
X143816252Y-100428019D01*
X144379552Y-99975667D01*
X144890056Y-99463616D01*
X145342369Y-98895907D01*
X145731096Y-98276582D01*
X145863851Y-98022833D01*
X146039529Y-97650888D01*
X146178172Y-97312685D01*
X146291642Y-96974659D01*
X146391800Y-96603244D01*
X146442923Y-96384141D01*
X146476480Y-96225037D01*
X146501390Y-96078257D01*
X146518859Y-95926857D01*
X146530094Y-95753892D01*
X146536300Y-95542420D01*
X146538683Y-95275496D01*
X146538694Y-95154129D01*
X146332796Y-95154129D01*
X146324263Y-95531929D01*
X146301756Y-95877984D01*
X146265074Y-96169492D01*
X146252876Y-96235092D01*
X146065759Y-96957173D01*
X145805334Y-97637126D01*
X145470771Y-98276495D01*
X145061239Y-98876822D01*
X144575906Y-99439653D01*
X144469152Y-99548373D01*
X143914705Y-100048920D01*
X143334028Y-100469871D01*
X142723483Y-100813229D01*
X142079429Y-101080997D01*
X141398226Y-101275177D01*
X141286108Y-101299433D01*
X141081398Y-101341501D01*
X140917947Y-101372653D01*
X140777289Y-101394285D01*
X140640959Y-101407796D01*
X140490488Y-101414585D01*
X140307412Y-101416049D01*
X140073262Y-101413587D01*
X139830667Y-101409627D01*
X139493296Y-101401186D01*
X139221638Y-101387515D01*
X138996814Y-101367000D01*
X138799948Y-101338027D01*
X138656995Y-101309265D01*
X137939706Y-101107395D01*
X137262069Y-100832851D01*
X136628119Y-100489774D01*
X136041894Y-100082302D01*
X135507432Y-99614575D01*
X135028769Y-99090731D01*
X134609943Y-98514910D01*
X134254990Y-97891251D01*
X133967948Y-97223892D01*
X133752854Y-96516974D01*
X133685506Y-96212141D01*
X133620588Y-95763268D01*
X133589617Y-95268986D01*
X133592595Y-94761446D01*
X133629520Y-94272803D01*
X133685506Y-93906858D01*
X133869216Y-93185318D01*
X134127712Y-92497928D01*
X134457813Y-91849810D01*
X134856339Y-91246085D01*
X135320109Y-90691876D01*
X135845941Y-90192304D01*
X136136145Y-89960844D01*
X136747478Y-89552989D01*
X137391801Y-89220510D01*
X138062978Y-88964767D01*
X138754870Y-88787122D01*
X139461337Y-88688935D01*
X140176243Y-88671567D01*
X140893448Y-88736378D01*
X141312938Y-88813222D01*
X142013807Y-89008360D01*
X142679039Y-89277691D01*
X143304142Y-89616677D01*
X143884625Y-90020782D01*
X144415997Y-90485469D01*
X144893766Y-91006200D01*
X145313441Y-91578439D01*
X145670531Y-92197649D01*
X145960544Y-92859293D01*
X146178989Y-93558834D01*
X146231223Y-93781524D01*
X146276570Y-94058282D01*
X146308749Y-94394504D01*
X146327558Y-94767387D01*
X146332796Y-95154129D01*
X146538694Y-95154129D01*
X146538706Y-95038333D01*
X146534281Y-94640134D01*
X146520706Y-94305842D01*
X146494941Y-94014916D01*
X146453950Y-93746818D01*
X146394695Y-93481008D01*
X146314138Y-93196947D01*
X146225986Y-92923830D01*
X145962666Y-92268515D01*
X145624229Y-91641490D01*
X145217725Y-91050630D01*
X144750204Y-90503805D01*
X144228717Y-90008891D01*
X143660315Y-89573761D01*
X143052046Y-89206286D01*
X142772833Y-89067706D01*
X142083080Y-88793303D01*
X141373539Y-88599083D01*
X140651097Y-88484916D01*
X139922640Y-88450669D01*
X139195052Y-88496214D01*
G36*
X139091572Y-89520863D02*
X138443503Y-89660635D01*
X137817797Y-89876812D01*
X137489330Y-90026865D01*
X137087338Y-90244939D01*
X136728659Y-90480118D01*
X136387392Y-90751341D01*
X136037636Y-91077549D01*
X135997167Y-91117968D01*
X135553707Y-91610138D01*
X135186267Y-92122749D01*
X134888520Y-92667507D01*
X134654142Y-93256116D01*
X134476805Y-93900282D01*
X134465427Y-93952089D01*
X134428339Y-94189545D01*
X134403151Y-94488033D01*
X134389828Y-94824765D01*
X134388338Y-95176951D01*
X134398645Y-95521803D01*
X134420717Y-95836531D01*
X134454519Y-96098347D01*
X134468734Y-96171519D01*
X134655376Y-96840223D01*
X134913528Y-97470446D01*
X135238576Y-98057624D01*
X135625902Y-98597195D01*
X136070893Y-99084595D01*
X136568932Y-99515261D01*
X137115403Y-99884630D01*
X137705692Y-100188140D01*
X138335181Y-100421226D01*
X138910888Y-100563127D01*
X139093793Y-100590310D01*
X139329584Y-100614094D01*
X139595514Y-100633352D01*
X139868833Y-100646955D01*
X140126793Y-100653777D01*
X140346645Y-100652691D01*
X140505640Y-100642569D01*
X140508000Y-100642272D01*
X140620079Y-100625700D01*
X140784055Y-100598744D01*
X140968604Y-100566593D01*
X141010666Y-100559008D01*
X141664296Y-100398498D01*
X142284806Y-100162988D01*
X142867298Y-99857301D01*
X143406876Y-99486261D01*
X143898643Y-99054694D01*
X144337700Y-98567421D01*
X144719151Y-98029268D01*
X145038099Y-97445059D01*
X145289645Y-96819616D01*
X145466317Y-96170058D01*
X145519140Y-95836046D01*
X145551395Y-95450856D01*
X145559298Y-95168138D01*
X145358241Y-95168138D01*
X145304964Y-95783439D01*
X145177598Y-96399699D01*
X144979468Y-97004655D01*
X144713898Y-97586042D01*
X144384215Y-98131595D01*
X144356804Y-98171000D01*
X144161822Y-98421232D01*
X143917393Y-98693619D01*
X143645700Y-98966196D01*
X143368927Y-99217000D01*
X143109260Y-99424067D01*
X143045540Y-99469229D01*
X142603657Y-99740708D01*
X142125954Y-99977420D01*
X141635400Y-100169975D01*
X141154958Y-100308988D01*
X140846667Y-100368009D01*
X140676498Y-100393271D01*
X140526771Y-100416196D01*
X140427985Y-100432108D01*
X140423333Y-100432914D01*
X140283171Y-100444560D01*
X140080563Y-100444804D01*
X139836751Y-100435064D01*
X139572980Y-100416757D01*
X139310494Y-100391300D01*
X139070537Y-100360110D01*
X138908402Y-100331848D01*
X138259109Y-100159612D01*
X137653212Y-99915485D01*
X137086527Y-99597268D01*
X136554868Y-99202761D01*
X136266561Y-98943558D01*
X135871862Y-98531034D01*
X135543412Y-98110053D01*
X135264016Y-97657807D01*
X135185622Y-97509552D01*
X134976304Y-97066120D01*
X134819423Y-96650426D01*
X134709520Y-96239057D01*
X134641136Y-95808603D01*
X134608812Y-95335653D01*
X134604468Y-95017166D01*
X134606699Y-94735109D01*
X134613072Y-94515874D01*
X134625736Y-94337640D01*
X134646842Y-94178588D01*
X134678540Y-94016895D01*
X134720312Y-93841403D01*
X134922904Y-93183818D01*
X135190574Y-92578162D01*
X135526659Y-92018424D01*
X135934498Y-91498597D01*
X136149249Y-91269062D01*
X136635727Y-90834130D01*
X137170113Y-90463404D01*
X137743704Y-90159833D01*
X138347797Y-89926368D01*
X138973689Y-89765959D01*
X139612676Y-89681556D01*
X140256055Y-89676110D01*
X140712768Y-89722089D01*
X141375664Y-89861055D01*
X142003104Y-90074201D01*
X142590727Y-90356957D01*
X143134176Y-90704755D01*
X143629090Y-91113025D01*
X144071110Y-91577198D01*
X144455879Y-92092705D01*
X144779035Y-92654978D01*
X145036221Y-93259446D01*
X145223077Y-93901541D01*
X145334104Y-94566061D01*
X145358241Y-95168138D01*
X145559298Y-95168138D01*
X145562802Y-95042790D01*
X145553079Y-94640153D01*
X145521946Y-94271246D01*
X145487379Y-94048834D01*
X145313061Y-93365896D01*
X145066356Y-92722714D01*
X144750418Y-92123377D01*
X144368406Y-91571973D01*
X143923474Y-91072591D01*
X143418780Y-90629319D01*
X142857481Y-90246246D01*
X142339885Y-89971793D01*
X141720347Y-89727948D01*
X141076390Y-89561038D01*
X140417371Y-89470958D01*
X139752646Y-89457602D01*
X139091572Y-89520863D01*
X139091572Y-89520863D01*
G37*
X139091572Y-89520863D02*
X138443503Y-89660635D01*
X137817797Y-89876812D01*
X137489330Y-90026865D01*
X137087338Y-90244939D01*
X136728659Y-90480118D01*
X136387392Y-90751341D01*
X136037636Y-91077549D01*
X135997167Y-91117968D01*
X135553707Y-91610138D01*
X135186267Y-92122749D01*
X134888520Y-92667507D01*
X134654142Y-93256116D01*
X134476805Y-93900282D01*
X134465427Y-93952089D01*
X134428339Y-94189545D01*
X134403151Y-94488033D01*
X134389828Y-94824765D01*
X134388338Y-95176951D01*
X134398645Y-95521803D01*
X134420717Y-95836531D01*
X134454519Y-96098347D01*
X134468734Y-96171519D01*
X134655376Y-96840223D01*
X134913528Y-97470446D01*
X135238576Y-98057624D01*
X135625902Y-98597195D01*
X136070893Y-99084595D01*
X136568932Y-99515261D01*
X137115403Y-99884630D01*
X137705692Y-100188140D01*
X138335181Y-100421226D01*
X138910888Y-100563127D01*
X139093793Y-100590310D01*
X139329584Y-100614094D01*
X139595514Y-100633352D01*
X139868833Y-100646955D01*
X140126793Y-100653777D01*
X140346645Y-100652691D01*
X140505640Y-100642569D01*
X140508000Y-100642272D01*
X140620079Y-100625700D01*
X140784055Y-100598744D01*
X140968604Y-100566593D01*
X141010666Y-100559008D01*
X141664296Y-100398498D01*
X142284806Y-100162988D01*
X142867298Y-99857301D01*
X143406876Y-99486261D01*
X143898643Y-99054694D01*
X144337700Y-98567421D01*
X144719151Y-98029268D01*
X145038099Y-97445059D01*
X145289645Y-96819616D01*
X145466317Y-96170058D01*
X145519140Y-95836046D01*
X145551395Y-95450856D01*
X145559298Y-95168138D01*
X145358241Y-95168138D01*
X145304964Y-95783439D01*
X145177598Y-96399699D01*
X144979468Y-97004655D01*
X144713898Y-97586042D01*
X144384215Y-98131595D01*
X144356804Y-98171000D01*
X144161822Y-98421232D01*
X143917393Y-98693619D01*
X143645700Y-98966196D01*
X143368927Y-99217000D01*
X143109260Y-99424067D01*
X143045540Y-99469229D01*
X142603657Y-99740708D01*
X142125954Y-99977420D01*
X141635400Y-100169975D01*
X141154958Y-100308988D01*
X140846667Y-100368009D01*
X140676498Y-100393271D01*
X140526771Y-100416196D01*
X140427985Y-100432108D01*
X140423333Y-100432914D01*
X140283171Y-100444560D01*
X140080563Y-100444804D01*
X139836751Y-100435064D01*
X139572980Y-100416757D01*
X139310494Y-100391300D01*
X139070537Y-100360110D01*
X138908402Y-100331848D01*
X138259109Y-100159612D01*
X137653212Y-99915485D01*
X137086527Y-99597268D01*
X136554868Y-99202761D01*
X136266561Y-98943558D01*
X135871862Y-98531034D01*
X135543412Y-98110053D01*
X135264016Y-97657807D01*
X135185622Y-97509552D01*
X134976304Y-97066120D01*
X134819423Y-96650426D01*
X134709520Y-96239057D01*
X134641136Y-95808603D01*
X134608812Y-95335653D01*
X134604468Y-95017166D01*
X134606699Y-94735109D01*
X134613072Y-94515874D01*
X134625736Y-94337640D01*
X134646842Y-94178588D01*
X134678540Y-94016895D01*
X134720312Y-93841403D01*
X134922904Y-93183818D01*
X135190574Y-92578162D01*
X135526659Y-92018424D01*
X135934498Y-91498597D01*
X136149249Y-91269062D01*
X136635727Y-90834130D01*
X137170113Y-90463404D01*
X137743704Y-90159833D01*
X138347797Y-89926368D01*
X138973689Y-89765959D01*
X139612676Y-89681556D01*
X140256055Y-89676110D01*
X140712768Y-89722089D01*
X141375664Y-89861055D01*
X142003104Y-90074201D01*
X142590727Y-90356957D01*
X143134176Y-90704755D01*
X143629090Y-91113025D01*
X144071110Y-91577198D01*
X144455879Y-92092705D01*
X144779035Y-92654978D01*
X145036221Y-93259446D01*
X145223077Y-93901541D01*
X145334104Y-94566061D01*
X145358241Y-95168138D01*
X145559298Y-95168138D01*
X145562802Y-95042790D01*
X145553079Y-94640153D01*
X145521946Y-94271246D01*
X145487379Y-94048834D01*
X145313061Y-93365896D01*
X145066356Y-92722714D01*
X144750418Y-92123377D01*
X144368406Y-91571973D01*
X143923474Y-91072591D01*
X143418780Y-90629319D01*
X142857481Y-90246246D01*
X142339885Y-89971793D01*
X141720347Y-89727948D01*
X141076390Y-89561038D01*
X140417371Y-89470958D01*
X139752646Y-89457602D01*
X139091572Y-89520863D01*
G36*
X139506778Y-90489860D02*
X139175025Y-90522281D01*
X138892271Y-90569755D01*
X138806621Y-90590573D01*
X138221234Y-90791022D01*
X137674556Y-91062122D01*
X137172185Y-91398029D01*
X136719715Y-91792902D01*
X136322743Y-92240899D01*
X135986864Y-92736178D01*
X135717674Y-93272895D01*
X135520769Y-93845210D01*
X135464030Y-94080303D01*
X135417991Y-94371657D01*
X135389578Y-94712616D01*
X135379137Y-95074838D01*
X135387017Y-95429979D01*
X135413563Y-95749695D01*
X135441436Y-95927333D01*
X135601977Y-96527998D01*
X135833815Y-97089700D01*
X136131400Y-97607894D01*
X136489182Y-98078035D01*
X136901612Y-98495576D01*
X137363139Y-98855974D01*
X137868213Y-99154682D01*
X138411286Y-99387155D01*
X138986806Y-99548848D01*
X139589224Y-99635216D01*
X139985483Y-99648867D01*
X140223584Y-99641990D01*
X140468729Y-99626440D01*
X140687020Y-99604765D01*
X140806393Y-99587185D01*
X141387255Y-99440362D01*
X141940740Y-99218564D01*
X142459715Y-98928009D01*
X142937048Y-98574916D01*
X143365607Y-98165505D01*
X143738258Y-97705995D01*
X144047870Y-97202603D01*
X144287309Y-96661550D01*
X144340196Y-96506069D01*
X144491203Y-95901582D01*
X144561863Y-95300105D01*
X144558916Y-95018675D01*
X144351857Y-95018675D01*
X144319384Y-95583045D01*
X144210867Y-96148253D01*
X144023453Y-96707928D01*
X143890147Y-97002174D01*
X143590909Y-97513310D01*
X143230056Y-97972968D01*
X142815096Y-98377317D01*
X142353539Y-98722524D01*
X141852892Y-99004759D01*
X141320663Y-99220189D01*
X140764361Y-99364982D01*
X140191495Y-99435308D01*
X139609571Y-99427334D01*
X139232962Y-99378864D01*
X138648376Y-99234811D01*
X138097298Y-99016259D01*
X137585416Y-98728675D01*
X137118418Y-98377526D01*
X136701993Y-97968279D01*
X136341826Y-97506400D01*
X136043607Y-96997355D01*
X135813023Y-96446612D01*
X135676923Y-95961038D01*
X135619987Y-95605227D01*
X135592322Y-95207762D01*
X135594236Y-94801990D01*
X135626034Y-94421264D01*
X135660806Y-94212833D01*
X135825076Y-93625193D01*
X136062141Y-93075238D01*
X136366623Y-92568138D01*
X136733145Y-92109062D01*
X137156329Y-91703179D01*
X137630797Y-91355657D01*
X138151170Y-91071665D01*
X138712071Y-90856374D01*
X139298415Y-90716591D01*
X139584685Y-90686202D01*
X139922794Y-90679216D01*
X140283716Y-90693952D01*
X140638426Y-90728728D01*
X140957897Y-90781863D01*
X141121833Y-90822216D01*
X141692884Y-91027915D01*
X142216421Y-91298142D01*
X142689591Y-91626528D01*
X143109541Y-92006704D01*
X143473418Y-92432300D01*
X143778370Y-92896948D01*
X144021542Y-93394279D01*
X144200083Y-93917923D01*
X144311139Y-94461511D01*
X144351857Y-95018675D01*
X144558916Y-95018675D01*
X144555658Y-94707546D01*
X144476067Y-94129813D01*
X144326572Y-93572814D01*
X144110652Y-93042457D01*
X143831790Y-92544650D01*
X143493464Y-92085301D01*
X143099156Y-91670317D01*
X142652346Y-91305607D01*
X142156515Y-90997078D01*
X141615144Y-90750639D01*
X141031713Y-90572197D01*
X140817541Y-90526772D01*
X140542913Y-90490949D01*
X140216035Y-90473391D01*
X139862219Y-90473296D01*
X139506778Y-90489860D01*
X139506778Y-90489860D01*
G37*
X139506778Y-90489860D02*
X139175025Y-90522281D01*
X138892271Y-90569755D01*
X138806621Y-90590573D01*
X138221234Y-90791022D01*
X137674556Y-91062122D01*
X137172185Y-91398029D01*
X136719715Y-91792902D01*
X136322743Y-92240899D01*
X135986864Y-92736178D01*
X135717674Y-93272895D01*
X135520769Y-93845210D01*
X135464030Y-94080303D01*
X135417991Y-94371657D01*
X135389578Y-94712616D01*
X135379137Y-95074838D01*
X135387017Y-95429979D01*
X135413563Y-95749695D01*
X135441436Y-95927333D01*
X135601977Y-96527998D01*
X135833815Y-97089700D01*
X136131400Y-97607894D01*
X136489182Y-98078035D01*
X136901612Y-98495576D01*
X137363139Y-98855974D01*
X137868213Y-99154682D01*
X138411286Y-99387155D01*
X138986806Y-99548848D01*
X139589224Y-99635216D01*
X139985483Y-99648867D01*
X140223584Y-99641990D01*
X140468729Y-99626440D01*
X140687020Y-99604765D01*
X140806393Y-99587185D01*
X141387255Y-99440362D01*
X141940740Y-99218564D01*
X142459715Y-98928009D01*
X142937048Y-98574916D01*
X143365607Y-98165505D01*
X143738258Y-97705995D01*
X144047870Y-97202603D01*
X144287309Y-96661550D01*
X144340196Y-96506069D01*
X144491203Y-95901582D01*
X144561863Y-95300105D01*
X144558916Y-95018675D01*
X144351857Y-95018675D01*
X144319384Y-95583045D01*
X144210867Y-96148253D01*
X144023453Y-96707928D01*
X143890147Y-97002174D01*
X143590909Y-97513310D01*
X143230056Y-97972968D01*
X142815096Y-98377317D01*
X142353539Y-98722524D01*
X141852892Y-99004759D01*
X141320663Y-99220189D01*
X140764361Y-99364982D01*
X140191495Y-99435308D01*
X139609571Y-99427334D01*
X139232962Y-99378864D01*
X138648376Y-99234811D01*
X138097298Y-99016259D01*
X137585416Y-98728675D01*
X137118418Y-98377526D01*
X136701993Y-97968279D01*
X136341826Y-97506400D01*
X136043607Y-96997355D01*
X135813023Y-96446612D01*
X135676923Y-95961038D01*
X135619987Y-95605227D01*
X135592322Y-95207762D01*
X135594236Y-94801990D01*
X135626034Y-94421264D01*
X135660806Y-94212833D01*
X135825076Y-93625193D01*
X136062141Y-93075238D01*
X136366623Y-92568138D01*
X136733145Y-92109062D01*
X137156329Y-91703179D01*
X137630797Y-91355657D01*
X138151170Y-91071665D01*
X138712071Y-90856374D01*
X139298415Y-90716591D01*
X139584685Y-90686202D01*
X139922794Y-90679216D01*
X140283716Y-90693952D01*
X140638426Y-90728728D01*
X140957897Y-90781863D01*
X141121833Y-90822216D01*
X141692884Y-91027915D01*
X142216421Y-91298142D01*
X142689591Y-91626528D01*
X143109541Y-92006704D01*
X143473418Y-92432300D01*
X143778370Y-92896948D01*
X144021542Y-93394279D01*
X144200083Y-93917923D01*
X144311139Y-94461511D01*
X144351857Y-95018675D01*
X144558916Y-95018675D01*
X144555658Y-94707546D01*
X144476067Y-94129813D01*
X144326572Y-93572814D01*
X144110652Y-93042457D01*
X143831790Y-92544650D01*
X143493464Y-92085301D01*
X143099156Y-91670317D01*
X142652346Y-91305607D01*
X142156515Y-90997078D01*
X141615144Y-90750639D01*
X141031713Y-90572197D01*
X140817541Y-90526772D01*
X140542913Y-90490949D01*
X140216035Y-90473391D01*
X139862219Y-90473296D01*
X139506778Y-90489860D01*
G36*
X139503665Y-91490034D02*
X139036787Y-91568704D01*
X138603866Y-91708004D01*
X138188232Y-91912560D01*
X138001505Y-92027715D01*
X137562738Y-92363755D01*
X137186463Y-92754262D01*
X136876448Y-93192711D01*
X136636459Y-93672577D01*
X136470263Y-94187337D01*
X136381626Y-94730467D01*
X136373201Y-94847833D01*
X136382710Y-95393729D01*
X136469929Y-95917696D01*
X136629523Y-96413720D01*
X136856154Y-96875786D01*
X137144483Y-97297879D01*
X137489173Y-97673984D01*
X137884887Y-97998086D01*
X138326286Y-98264170D01*
X138808033Y-98466222D01*
X139324791Y-98598227D01*
X139746000Y-98648527D01*
X139957927Y-98655030D01*
X140179888Y-98651386D01*
X140366855Y-98638430D01*
X140381000Y-98636765D01*
X140931795Y-98527567D01*
X141448762Y-98342126D01*
X141926480Y-98083961D01*
X142359529Y-97756587D01*
X142742489Y-97363520D01*
X143069938Y-96908279D01*
X143086077Y-96881760D01*
X143163060Y-96735846D01*
X143251368Y-96540342D01*
X143337322Y-96326547D01*
X143379099Y-96211170D01*
X143440491Y-96026841D01*
X143483240Y-95874817D01*
X143511436Y-95730092D01*
X143529168Y-95567660D01*
X143540526Y-95362517D01*
X143546676Y-95186500D01*
X143549486Y-95059500D01*
X143343302Y-95059500D01*
X143303194Y-95586877D01*
X143184970Y-96090519D01*
X142993450Y-96563725D01*
X142733453Y-96999793D01*
X142409800Y-97392022D01*
X142027309Y-97733712D01*
X141590801Y-98018162D01*
X141105095Y-98238671D01*
X141040084Y-98261776D01*
X140568872Y-98388581D01*
X140098166Y-98440824D01*
X139611895Y-98419311D01*
X139216833Y-98353008D01*
X138964367Y-98280948D01*
X138677255Y-98171061D01*
X138387683Y-98037505D01*
X138127832Y-97894440D01*
X138028228Y-97830082D01*
X137645612Y-97517553D01*
X137313258Y-97146392D01*
X137036445Y-96728259D01*
X136820456Y-96274813D01*
X136670571Y-95797715D01*
X136592071Y-95308625D01*
X136590238Y-94819203D01*
X136603959Y-94685451D01*
X136712409Y-94150346D01*
X136894823Y-93652114D01*
X137146613Y-93196044D01*
X137463188Y-92787423D01*
X137839961Y-92431539D01*
X138272342Y-92133678D01*
X138755741Y-91899128D01*
X139132167Y-91772601D01*
X139441491Y-91710929D01*
X139796993Y-91679676D01*
X140165685Y-91679241D01*
X140514578Y-91710022D01*
X140740833Y-91753185D01*
X141121780Y-91877923D01*
X141509630Y-92057565D01*
X141875254Y-92276431D01*
X142189525Y-92518847D01*
X142226962Y-92553020D01*
X142607253Y-92957115D01*
X142906924Y-93385145D01*
X143127501Y-93840533D01*
X143270508Y-94326704D01*
X143337470Y-94847081D01*
X143343302Y-95059500D01*
X143549486Y-95059500D01*
X143552518Y-94922556D01*
X143550030Y-94718222D01*
X143537417Y-94548693D01*
X143512883Y-94389163D01*
X143477106Y-94225141D01*
X143308692Y-93693315D01*
X143070057Y-93206607D01*
X142764935Y-92768911D01*
X142397058Y-92384118D01*
X141970159Y-92056122D01*
X141487971Y-91788817D01*
X140954226Y-91586096D01*
X140943889Y-91582978D01*
X140764621Y-91533208D01*
X140603439Y-91500124D01*
X140433238Y-91480329D01*
X140226917Y-91470427D01*
X140021167Y-91467372D01*
X139503665Y-91490034D01*
X139503665Y-91490034D01*
G37*
X139503665Y-91490034D02*
X139036787Y-91568704D01*
X138603866Y-91708004D01*
X138188232Y-91912560D01*
X138001505Y-92027715D01*
X137562738Y-92363755D01*
X137186463Y-92754262D01*
X136876448Y-93192711D01*
X136636459Y-93672577D01*
X136470263Y-94187337D01*
X136381626Y-94730467D01*
X136373201Y-94847833D01*
X136382710Y-95393729D01*
X136469929Y-95917696D01*
X136629523Y-96413720D01*
X136856154Y-96875786D01*
X137144483Y-97297879D01*
X137489173Y-97673984D01*
X137884887Y-97998086D01*
X138326286Y-98264170D01*
X138808033Y-98466222D01*
X139324791Y-98598227D01*
X139746000Y-98648527D01*
X139957927Y-98655030D01*
X140179888Y-98651386D01*
X140366855Y-98638430D01*
X140381000Y-98636765D01*
X140931795Y-98527567D01*
X141448762Y-98342126D01*
X141926480Y-98083961D01*
X142359529Y-97756587D01*
X142742489Y-97363520D01*
X143069938Y-96908279D01*
X143086077Y-96881760D01*
X143163060Y-96735846D01*
X143251368Y-96540342D01*
X143337322Y-96326547D01*
X143379099Y-96211170D01*
X143440491Y-96026841D01*
X143483240Y-95874817D01*
X143511436Y-95730092D01*
X143529168Y-95567660D01*
X143540526Y-95362517D01*
X143546676Y-95186500D01*
X143549486Y-95059500D01*
X143343302Y-95059500D01*
X143303194Y-95586877D01*
X143184970Y-96090519D01*
X142993450Y-96563725D01*
X142733453Y-96999793D01*
X142409800Y-97392022D01*
X142027309Y-97733712D01*
X141590801Y-98018162D01*
X141105095Y-98238671D01*
X141040084Y-98261776D01*
X140568872Y-98388581D01*
X140098166Y-98440824D01*
X139611895Y-98419311D01*
X139216833Y-98353008D01*
X138964367Y-98280948D01*
X138677255Y-98171061D01*
X138387683Y-98037505D01*
X138127832Y-97894440D01*
X138028228Y-97830082D01*
X137645612Y-97517553D01*
X137313258Y-97146392D01*
X137036445Y-96728259D01*
X136820456Y-96274813D01*
X136670571Y-95797715D01*
X136592071Y-95308625D01*
X136590238Y-94819203D01*
X136603959Y-94685451D01*
X136712409Y-94150346D01*
X136894823Y-93652114D01*
X137146613Y-93196044D01*
X137463188Y-92787423D01*
X137839961Y-92431539D01*
X138272342Y-92133678D01*
X138755741Y-91899128D01*
X139132167Y-91772601D01*
X139441491Y-91710929D01*
X139796993Y-91679676D01*
X140165685Y-91679241D01*
X140514578Y-91710022D01*
X140740833Y-91753185D01*
X141121780Y-91877923D01*
X141509630Y-92057565D01*
X141875254Y-92276431D01*
X142189525Y-92518847D01*
X142226962Y-92553020D01*
X142607253Y-92957115D01*
X142906924Y-93385145D01*
X143127501Y-93840533D01*
X143270508Y-94326704D01*
X143337470Y-94847081D01*
X143343302Y-95059500D01*
X143549486Y-95059500D01*
X143552518Y-94922556D01*
X143550030Y-94718222D01*
X143537417Y-94548693D01*
X143512883Y-94389163D01*
X143477106Y-94225141D01*
X143308692Y-93693315D01*
X143070057Y-93206607D01*
X142764935Y-92768911D01*
X142397058Y-92384118D01*
X141970159Y-92056122D01*
X141487971Y-91788817D01*
X140954226Y-91586096D01*
X140943889Y-91582978D01*
X140764621Y-91533208D01*
X140603439Y-91500124D01*
X140433238Y-91480329D01*
X140226917Y-91470427D01*
X140021167Y-91467372D01*
X139503665Y-91490034D01*
G36*
X139505806Y-92494008D02*
X139070153Y-92608673D01*
X138665382Y-92801728D01*
X138288816Y-93074281D01*
X138133077Y-93217990D01*
X137830267Y-93569293D01*
X137605727Y-93950022D01*
X137457709Y-94364427D01*
X137384463Y-94816759D01*
X137375333Y-95059500D01*
X137415168Y-95531956D01*
X137531652Y-95974252D01*
X137720257Y-96380279D01*
X137976457Y-96743931D01*
X138295722Y-97059101D01*
X138673524Y-97319681D01*
X139105336Y-97519566D01*
X139231232Y-97562538D01*
X139430168Y-97606298D01*
X139683065Y-97634224D01*
X139960558Y-97645490D01*
X140233281Y-97639264D01*
X140471869Y-97614719D01*
X140550333Y-97599774D01*
X140945693Y-97470603D01*
X141325754Y-97270822D01*
X141675245Y-97012489D01*
X141978896Y-96707661D01*
X142221435Y-96368398D01*
X142302509Y-96216239D01*
X142468988Y-95780006D01*
X142556569Y-95341929D01*
X142564453Y-95083149D01*
X142365452Y-95083149D01*
X142345526Y-95313576D01*
X142306704Y-95525166D01*
X142177297Y-95946875D01*
X141980431Y-96327475D01*
X141724508Y-96661429D01*
X141417930Y-96943195D01*
X141069099Y-97167235D01*
X140686418Y-97328008D01*
X140278289Y-97419974D01*
X139853113Y-97437595D01*
X139479856Y-97388982D01*
X139100793Y-97275491D01*
X138755843Y-97099146D01*
X138428757Y-96850883D01*
X138301882Y-96731974D01*
X138007035Y-96391635D01*
X137792420Y-96028495D01*
X137655082Y-95635532D01*
X137592071Y-95205723D01*
X137587000Y-95031776D01*
X137626807Y-94605901D01*
X137740941Y-94206336D01*
X137921476Y-93839331D01*
X138160485Y-93511134D01*
X138450040Y-93227994D01*
X138782214Y-92996160D01*
X139149079Y-92821880D01*
X139542708Y-92711404D01*
X139955174Y-92670978D01*
X140378549Y-92706854D01*
X140503635Y-92732751D01*
X140911884Y-92871216D01*
X141286688Y-93081562D01*
X141619196Y-93354656D01*
X141900557Y-93681364D01*
X142121921Y-94052551D01*
X142274437Y-94459084D01*
X142306981Y-94593833D01*
X142352600Y-94856952D01*
X142365452Y-95083149D01*
X142564453Y-95083149D01*
X142569751Y-94909279D01*
X142513034Y-94489322D01*
X142390918Y-94089327D01*
X142207903Y-93716564D01*
X141968489Y-93378301D01*
X141677175Y-93081807D01*
X141338461Y-92834350D01*
X140956847Y-92643198D01*
X140536833Y-92515621D01*
X140082919Y-92458888D01*
X139975022Y-92456625D01*
X139505806Y-92494008D01*
X139505806Y-92494008D01*
G37*
X139505806Y-92494008D02*
X139070153Y-92608673D01*
X138665382Y-92801728D01*
X138288816Y-93074281D01*
X138133077Y-93217990D01*
X137830267Y-93569293D01*
X137605727Y-93950022D01*
X137457709Y-94364427D01*
X137384463Y-94816759D01*
X137375333Y-95059500D01*
X137415168Y-95531956D01*
X137531652Y-95974252D01*
X137720257Y-96380279D01*
X137976457Y-96743931D01*
X138295722Y-97059101D01*
X138673524Y-97319681D01*
X139105336Y-97519566D01*
X139231232Y-97562538D01*
X139430168Y-97606298D01*
X139683065Y-97634224D01*
X139960558Y-97645490D01*
X140233281Y-97639264D01*
X140471869Y-97614719D01*
X140550333Y-97599774D01*
X140945693Y-97470603D01*
X141325754Y-97270822D01*
X141675245Y-97012489D01*
X141978896Y-96707661D01*
X142221435Y-96368398D01*
X142302509Y-96216239D01*
X142468988Y-95780006D01*
X142556569Y-95341929D01*
X142564453Y-95083149D01*
X142365452Y-95083149D01*
X142345526Y-95313576D01*
X142306704Y-95525166D01*
X142177297Y-95946875D01*
X141980431Y-96327475D01*
X141724508Y-96661429D01*
X141417930Y-96943195D01*
X141069099Y-97167235D01*
X140686418Y-97328008D01*
X140278289Y-97419974D01*
X139853113Y-97437595D01*
X139479856Y-97388982D01*
X139100793Y-97275491D01*
X138755843Y-97099146D01*
X138428757Y-96850883D01*
X138301882Y-96731974D01*
X138007035Y-96391635D01*
X137792420Y-96028495D01*
X137655082Y-95635532D01*
X137592071Y-95205723D01*
X137587000Y-95031776D01*
X137626807Y-94605901D01*
X137740941Y-94206336D01*
X137921476Y-93839331D01*
X138160485Y-93511134D01*
X138450040Y-93227994D01*
X138782214Y-92996160D01*
X139149079Y-92821880D01*
X139542708Y-92711404D01*
X139955174Y-92670978D01*
X140378549Y-92706854D01*
X140503635Y-92732751D01*
X140911884Y-92871216D01*
X141286688Y-93081562D01*
X141619196Y-93354656D01*
X141900557Y-93681364D01*
X142121921Y-94052551D01*
X142274437Y-94459084D01*
X142306981Y-94593833D01*
X142352600Y-94856952D01*
X142365452Y-95083149D01*
X142564453Y-95083149D01*
X142569751Y-94909279D01*
X142513034Y-94489322D01*
X142390918Y-94089327D01*
X142207903Y-93716564D01*
X141968489Y-93378301D01*
X141677175Y-93081807D01*
X141338461Y-92834350D01*
X140956847Y-92643198D01*
X140536833Y-92515621D01*
X140082919Y-92458888D01*
X139975022Y-92456625D01*
X139505806Y-92494008D01*
G36*
X139674940Y-93484786D02*
X139342501Y-93580930D01*
X139040367Y-93743305D01*
X138840689Y-93909416D01*
X138615640Y-94189431D01*
X138463149Y-94498017D01*
X138381348Y-94823842D01*
X138368367Y-95155573D01*
X138422336Y-95481877D01*
X138541388Y-95791421D01*
X138723654Y-96072870D01*
X138967264Y-96314894D01*
X139268787Y-96505394D01*
X139404381Y-96565110D01*
X139533421Y-96602773D01*
X139685308Y-96624366D01*
X139889441Y-96635873D01*
X139913923Y-96636702D01*
X140119597Y-96640151D01*
X140269387Y-96632116D01*
X140391731Y-96608740D01*
X140515066Y-96566164D01*
X140554886Y-96549756D01*
X140876056Y-96381903D01*
X141130995Y-96172399D01*
X141332987Y-95908690D01*
X141435053Y-95717598D01*
X141487842Y-95593775D01*
X141520706Y-95478374D01*
X141538136Y-95344554D01*
X141544622Y-95165476D01*
X141545167Y-95059500D01*
X141545129Y-95056677D01*
X141353685Y-95056677D01*
X141316245Y-95367381D01*
X141267975Y-95523025D01*
X141118697Y-95806050D01*
X140904544Y-96056296D01*
X140643421Y-96256950D01*
X140353230Y-96391197D01*
X140338667Y-96395746D01*
X140146733Y-96428108D01*
X139913552Y-96429399D01*
X139675816Y-96401622D01*
X139475035Y-96348602D01*
X139219490Y-96213007D01*
X138984365Y-96013497D01*
X138791366Y-95770817D01*
X138704363Y-95612124D01*
X138605866Y-95302652D01*
X138585034Y-94990576D01*
X138635998Y-94687099D01*
X138752891Y-94403420D01*
X138929843Y-94150740D01*
X139160987Y-93940260D01*
X139440453Y-93783182D01*
X139705537Y-93701256D01*
X140026708Y-93674283D01*
X140330880Y-93721963D01*
X140610101Y-93835029D01*
X140856421Y-94004209D01*
X141061889Y-94220233D01*
X141218557Y-94473833D01*
X141318472Y-94755737D01*
X141353685Y-95056677D01*
X141545129Y-95056677D01*
X141542326Y-94851235D01*
X141530721Y-94700432D01*
X141505731Y-94579984D01*
X141462735Y-94462789D01*
X141431711Y-94394101D01*
X141279273Y-94138379D01*
X141078560Y-93902419D01*
X140852259Y-93710221D01*
X140698226Y-93618178D01*
X140368389Y-93500966D01*
X140022098Y-93457317D01*
X139674940Y-93484786D01*
X139674940Y-93484786D01*
G37*
X139674940Y-93484786D02*
X139342501Y-93580930D01*
X139040367Y-93743305D01*
X138840689Y-93909416D01*
X138615640Y-94189431D01*
X138463149Y-94498017D01*
X138381348Y-94823842D01*
X138368367Y-95155573D01*
X138422336Y-95481877D01*
X138541388Y-95791421D01*
X138723654Y-96072870D01*
X138967264Y-96314894D01*
X139268787Y-96505394D01*
X139404381Y-96565110D01*
X139533421Y-96602773D01*
X139685308Y-96624366D01*
X139889441Y-96635873D01*
X139913923Y-96636702D01*
X140119597Y-96640151D01*
X140269387Y-96632116D01*
X140391731Y-96608740D01*
X140515066Y-96566164D01*
X140554886Y-96549756D01*
X140876056Y-96381903D01*
X141130995Y-96172399D01*
X141332987Y-95908690D01*
X141435053Y-95717598D01*
X141487842Y-95593775D01*
X141520706Y-95478374D01*
X141538136Y-95344554D01*
X141544622Y-95165476D01*
X141545167Y-95059500D01*
X141545129Y-95056677D01*
X141353685Y-95056677D01*
X141316245Y-95367381D01*
X141267975Y-95523025D01*
X141118697Y-95806050D01*
X140904544Y-96056296D01*
X140643421Y-96256950D01*
X140353230Y-96391197D01*
X140338667Y-96395746D01*
X140146733Y-96428108D01*
X139913552Y-96429399D01*
X139675816Y-96401622D01*
X139475035Y-96348602D01*
X139219490Y-96213007D01*
X138984365Y-96013497D01*
X138791366Y-95770817D01*
X138704363Y-95612124D01*
X138605866Y-95302652D01*
X138585034Y-94990576D01*
X138635998Y-94687099D01*
X138752891Y-94403420D01*
X138929843Y-94150740D01*
X139160987Y-93940260D01*
X139440453Y-93783182D01*
X139705537Y-93701256D01*
X140026708Y-93674283D01*
X140330880Y-93721963D01*
X140610101Y-93835029D01*
X140856421Y-94004209D01*
X141061889Y-94220233D01*
X141218557Y-94473833D01*
X141318472Y-94755737D01*
X141353685Y-95056677D01*
X141545129Y-95056677D01*
X141542326Y-94851235D01*
X141530721Y-94700432D01*
X141505731Y-94579984D01*
X141462735Y-94462789D01*
X141431711Y-94394101D01*
X141279273Y-94138379D01*
X141078560Y-93902419D01*
X140852259Y-93710221D01*
X140698226Y-93618178D01*
X140368389Y-93500966D01*
X140022098Y-93457317D01*
X139674940Y-93484786D01*
G36*
X139800430Y-94477695D02*
X139622472Y-94564086D01*
X139483886Y-94701710D01*
X139394254Y-94875073D01*
X139363157Y-95068683D01*
X139400178Y-95267045D01*
X139447804Y-95364116D01*
X139596245Y-95534844D01*
X139782640Y-95634319D01*
X139993725Y-95658707D01*
X140216238Y-95604174D01*
X140240609Y-95593302D01*
X140415044Y-95469467D01*
X140527252Y-95298920D01*
X140571501Y-95098014D01*
X140554071Y-94970794D01*
X140348256Y-94970794D01*
X140341095Y-95124635D01*
X140272918Y-95266653D01*
X140161608Y-95377539D01*
X140025047Y-95437981D01*
X139915333Y-95438289D01*
X139817708Y-95393075D01*
X139712001Y-95309578D01*
X139693083Y-95290154D01*
X139618069Y-95188475D01*
X139578494Y-95095068D01*
X139576667Y-95077896D01*
X139615413Y-94916188D01*
X139717366Y-94778136D01*
X139861099Y-94685090D01*
X139998744Y-94657333D01*
X140099848Y-94690432D01*
X140211383Y-94772348D01*
X140304278Y-94877009D01*
X140348256Y-94970794D01*
X140554071Y-94970794D01*
X140542056Y-94883101D01*
X140514865Y-94811159D01*
X140403252Y-94629810D01*
X140252377Y-94516856D01*
X140047650Y-94462128D01*
X140008177Y-94458031D01*
X139800430Y-94477695D01*
X139800430Y-94477695D01*
G37*
X139800430Y-94477695D02*
X139622472Y-94564086D01*
X139483886Y-94701710D01*
X139394254Y-94875073D01*
X139363157Y-95068683D01*
X139400178Y-95267045D01*
X139447804Y-95364116D01*
X139596245Y-95534844D01*
X139782640Y-95634319D01*
X139993725Y-95658707D01*
X140216238Y-95604174D01*
X140240609Y-95593302D01*
X140415044Y-95469467D01*
X140527252Y-95298920D01*
X140571501Y-95098014D01*
X140554071Y-94970794D01*
X140348256Y-94970794D01*
X140341095Y-95124635D01*
X140272918Y-95266653D01*
X140161608Y-95377539D01*
X140025047Y-95437981D01*
X139915333Y-95438289D01*
X139817708Y-95393075D01*
X139712001Y-95309578D01*
X139693083Y-95290154D01*
X139618069Y-95188475D01*
X139578494Y-95095068D01*
X139576667Y-95077896D01*
X139615413Y-94916188D01*
X139717366Y-94778136D01*
X139861099Y-94685090D01*
X139998744Y-94657333D01*
X140099848Y-94690432D01*
X140211383Y-94772348D01*
X140304278Y-94877009D01*
X140348256Y-94970794D01*
X140554071Y-94970794D01*
X140542056Y-94883101D01*
X140514865Y-94811159D01*
X140403252Y-94629810D01*
X140252377Y-94516856D01*
X140047650Y-94462128D01*
X140008177Y-94458031D01*
X139800430Y-94477695D01*
D12*
X140000000Y-79000000D03*
X126143594Y-103000000D03*
X153856406Y-103000000D03*
M02*
