G04 #@! TF.FileFunction,Copper,L2,Bot,Signal*
%FSLAX46Y46*%
G04 Gerber Fmt 4.6, Leading zero omitted, Abs format (unit mm)*
G04 Created by KiCad (PCBNEW 4.0.4+e1-6308~48~ubuntu16.04.1-stable) date Sat Nov 26 13:58:56 2016*
%MOMM*%
%LPD*%
G01*
G04 APERTURE LIST*
%ADD10C,0.100000*%
%ADD11C,0.750000*%
%ADD12C,0.250000*%
G04 APERTURE END LIST*
D10*
D11*
X156650000Y-100200000D03*
X143825000Y-78025000D03*
D12*
G36*
X143910966Y-75947261D02*
X147537178Y-77069762D01*
X150876302Y-78875219D01*
X153801151Y-81294865D01*
X156200318Y-84236534D01*
X157982420Y-87588181D01*
X159079578Y-91222142D01*
X159450000Y-95000000D01*
X159442417Y-95543076D01*
X158966655Y-99309118D01*
X157768459Y-102911028D01*
X155893468Y-106211609D01*
X153413100Y-109085143D01*
X150421831Y-111422178D01*
X147033598Y-113133698D01*
X143377457Y-114154511D01*
X139592670Y-114445734D01*
X135823398Y-113996276D01*
X132213211Y-112823255D01*
X128899621Y-110971352D01*
X126008841Y-108511105D01*
X123650980Y-105536225D01*
X122437204Y-103174472D01*
X124065867Y-103174472D01*
X124139325Y-103574715D01*
X124289125Y-103953067D01*
X124509562Y-104295118D01*
X124792238Y-104587838D01*
X125126387Y-104820077D01*
X125499281Y-104982991D01*
X125896717Y-105070373D01*
X126303556Y-105078895D01*
X126704303Y-105008232D01*
X127083692Y-104861077D01*
X127427273Y-104643034D01*
X127721959Y-104362408D01*
X127956526Y-104029889D01*
X128122038Y-103658141D01*
X128212193Y-103261325D01*
X128213405Y-103174472D01*
X151778679Y-103174472D01*
X151852137Y-103574715D01*
X152001937Y-103953067D01*
X152222374Y-104295118D01*
X152505050Y-104587838D01*
X152839199Y-104820077D01*
X153212093Y-104982991D01*
X153609529Y-105070373D01*
X154016368Y-105078895D01*
X154417115Y-105008232D01*
X154796504Y-104861077D01*
X155140085Y-104643034D01*
X155434771Y-104362408D01*
X155669338Y-104029889D01*
X155834850Y-103658141D01*
X155925005Y-103261325D01*
X155931495Y-102796536D01*
X155852455Y-102397357D01*
X155697387Y-102021133D01*
X155472196Y-101682194D01*
X155185461Y-101393449D01*
X154848102Y-101165898D01*
X154472969Y-101008206D01*
X154074352Y-100926382D01*
X153667433Y-100923541D01*
X153267713Y-100999792D01*
X152890415Y-101152230D01*
X152549912Y-101375049D01*
X152259173Y-101659762D01*
X152029272Y-101995524D01*
X151868965Y-102369547D01*
X151784360Y-102767583D01*
X151778679Y-103174472D01*
X128213405Y-103174472D01*
X128218683Y-102796536D01*
X128139643Y-102397357D01*
X127984575Y-102021133D01*
X127759384Y-101682194D01*
X127472649Y-101393449D01*
X127135290Y-101165898D01*
X126760157Y-101008206D01*
X126361540Y-100926382D01*
X125954621Y-100923541D01*
X125554901Y-100999792D01*
X125177603Y-101152230D01*
X124837100Y-101375049D01*
X124546361Y-101659762D01*
X124316460Y-101995524D01*
X124156153Y-102369547D01*
X124071548Y-102767583D01*
X124065867Y-103174472D01*
X122437204Y-103174472D01*
X121915847Y-102160023D01*
X120869535Y-98511097D01*
X120551896Y-94728436D01*
X120975029Y-90956118D01*
X122122818Y-87337830D01*
X123951542Y-84011392D01*
X126391548Y-81103506D01*
X128790782Y-79174472D01*
X137922273Y-79174472D01*
X137995731Y-79574715D01*
X138145531Y-79953067D01*
X138365968Y-80295118D01*
X138648644Y-80587838D01*
X138982793Y-80820077D01*
X139355687Y-80982991D01*
X139753123Y-81070373D01*
X140159962Y-81078895D01*
X140560709Y-81008232D01*
X140940098Y-80861077D01*
X141283679Y-80643034D01*
X141578365Y-80362408D01*
X141812932Y-80029889D01*
X141978444Y-79658141D01*
X142068599Y-79261325D01*
X142075089Y-78796536D01*
X141996049Y-78397357D01*
X141840981Y-78021133D01*
X141615790Y-77682194D01*
X141329055Y-77393449D01*
X140991696Y-77165898D01*
X140616563Y-77008206D01*
X140217946Y-76926382D01*
X139811027Y-76923541D01*
X139411307Y-76999792D01*
X139034009Y-77152230D01*
X138693506Y-77375049D01*
X138402767Y-77659762D01*
X138172866Y-77995524D01*
X138012559Y-78369547D01*
X137927954Y-78767583D01*
X137922273Y-79174472D01*
X128790782Y-79174472D01*
X129349895Y-78724934D01*
X132713902Y-76966274D01*
X136355433Y-75894513D01*
X140135786Y-75550474D01*
X143910966Y-75947261D01*
X143910966Y-75947261D01*
G37*
X143910966Y-75947261D02*
X147537178Y-77069762D01*
X150876302Y-78875219D01*
X153801151Y-81294865D01*
X156200318Y-84236534D01*
X157982420Y-87588181D01*
X159079578Y-91222142D01*
X159450000Y-95000000D01*
X159442417Y-95543076D01*
X158966655Y-99309118D01*
X157768459Y-102911028D01*
X155893468Y-106211609D01*
X153413100Y-109085143D01*
X150421831Y-111422178D01*
X147033598Y-113133698D01*
X143377457Y-114154511D01*
X139592670Y-114445734D01*
X135823398Y-113996276D01*
X132213211Y-112823255D01*
X128899621Y-110971352D01*
X126008841Y-108511105D01*
X123650980Y-105536225D01*
X122437204Y-103174472D01*
X124065867Y-103174472D01*
X124139325Y-103574715D01*
X124289125Y-103953067D01*
X124509562Y-104295118D01*
X124792238Y-104587838D01*
X125126387Y-104820077D01*
X125499281Y-104982991D01*
X125896717Y-105070373D01*
X126303556Y-105078895D01*
X126704303Y-105008232D01*
X127083692Y-104861077D01*
X127427273Y-104643034D01*
X127721959Y-104362408D01*
X127956526Y-104029889D01*
X128122038Y-103658141D01*
X128212193Y-103261325D01*
X128213405Y-103174472D01*
X151778679Y-103174472D01*
X151852137Y-103574715D01*
X152001937Y-103953067D01*
X152222374Y-104295118D01*
X152505050Y-104587838D01*
X152839199Y-104820077D01*
X153212093Y-104982991D01*
X153609529Y-105070373D01*
X154016368Y-105078895D01*
X154417115Y-105008232D01*
X154796504Y-104861077D01*
X155140085Y-104643034D01*
X155434771Y-104362408D01*
X155669338Y-104029889D01*
X155834850Y-103658141D01*
X155925005Y-103261325D01*
X155931495Y-102796536D01*
X155852455Y-102397357D01*
X155697387Y-102021133D01*
X155472196Y-101682194D01*
X155185461Y-101393449D01*
X154848102Y-101165898D01*
X154472969Y-101008206D01*
X154074352Y-100926382D01*
X153667433Y-100923541D01*
X153267713Y-100999792D01*
X152890415Y-101152230D01*
X152549912Y-101375049D01*
X152259173Y-101659762D01*
X152029272Y-101995524D01*
X151868965Y-102369547D01*
X151784360Y-102767583D01*
X151778679Y-103174472D01*
X128213405Y-103174472D01*
X128218683Y-102796536D01*
X128139643Y-102397357D01*
X127984575Y-102021133D01*
X127759384Y-101682194D01*
X127472649Y-101393449D01*
X127135290Y-101165898D01*
X126760157Y-101008206D01*
X126361540Y-100926382D01*
X125954621Y-100923541D01*
X125554901Y-100999792D01*
X125177603Y-101152230D01*
X124837100Y-101375049D01*
X124546361Y-101659762D01*
X124316460Y-101995524D01*
X124156153Y-102369547D01*
X124071548Y-102767583D01*
X124065867Y-103174472D01*
X122437204Y-103174472D01*
X121915847Y-102160023D01*
X120869535Y-98511097D01*
X120551896Y-94728436D01*
X120975029Y-90956118D01*
X122122818Y-87337830D01*
X123951542Y-84011392D01*
X126391548Y-81103506D01*
X128790782Y-79174472D01*
X137922273Y-79174472D01*
X137995731Y-79574715D01*
X138145531Y-79953067D01*
X138365968Y-80295118D01*
X138648644Y-80587838D01*
X138982793Y-80820077D01*
X139355687Y-80982991D01*
X139753123Y-81070373D01*
X140159962Y-81078895D01*
X140560709Y-81008232D01*
X140940098Y-80861077D01*
X141283679Y-80643034D01*
X141578365Y-80362408D01*
X141812932Y-80029889D01*
X141978444Y-79658141D01*
X142068599Y-79261325D01*
X142075089Y-78796536D01*
X141996049Y-78397357D01*
X141840981Y-78021133D01*
X141615790Y-77682194D01*
X141329055Y-77393449D01*
X140991696Y-77165898D01*
X140616563Y-77008206D01*
X140217946Y-76926382D01*
X139811027Y-76923541D01*
X139411307Y-76999792D01*
X139034009Y-77152230D01*
X138693506Y-77375049D01*
X138402767Y-77659762D01*
X138172866Y-77995524D01*
X138012559Y-78369547D01*
X137927954Y-78767583D01*
X137922273Y-79174472D01*
X128790782Y-79174472D01*
X129349895Y-78724934D01*
X132713902Y-76966274D01*
X136355433Y-75894513D01*
X140135786Y-75550474D01*
X143910966Y-75947261D01*
M02*
