<?xml version="1.0" encoding="utf-8"?>
<!-- Generator: Adobe Illustrator 19.2.1, SVG Export Plug-In . SVG Version: 6.00 Build 0)  -->
<svg version="1.1" id="Layer_1" xmlns="http://www.w3.org/2000/svg" xmlns:xlink="http://www.w3.org/1999/xlink" x="0px" y="0px"
	 viewBox="0 0 113.4 113.4" style="enable-background:new 0 0 113.4 113.4;" xml:space="preserve">
<style type="text/css">
	.st0{display:none;fill:none;stroke:#000000;stroke-width:0.2835;stroke-miterlimit:10;}
	.st1{display:none;}
	.st2{display:inline;fill:none;stroke:#A7A9AC;stroke-width:0.2835;stroke-miterlimit:10;}
	.st3{display:inline;fill:none;stroke:#000000;stroke-width:0.2835;stroke-miterlimit:10;}
	.st4{fill:none;stroke:#000000;stroke-width:0.5669;stroke-miterlimit:10;}
</style>
<circle class="st0" cx="56.7" cy="56.7" r="56.7"/>
<g class="st1">
	<circle class="st2" cx="96" cy="79.4" r="8.1"/>
	<circle class="st3" cx="96" cy="79.4" r="4.5"/>
</g>
<g class="st1">
	<circle class="st2" cx="17.4" cy="79.4" r="8.1"/>
	<circle class="st3" cx="17.4" cy="79.4" r="4.5"/>
</g>
<g class="st1">
	<circle class="st2" cx="56.7" cy="11.3" r="8.1"/>
	<circle class="st3" cx="56.7" cy="11.3" r="4.5"/>
</g>
<circle class="st4" cx="56.7" cy="56.7" r="4.3"/>
<circle class="st4" cx="56.7" cy="56.7" r="7.1"/>
<circle class="st4" cx="56.7" cy="56.7" r="9.9"/>
<circle class="st4" cx="56.7" cy="56.7" r="12.8"/>
<circle class="st4" cx="56.7" cy="56.7" r="15.6"/>
<circle class="st4" cx="56.7" cy="56.7" r="18.4"/>
<circle class="st4" cx="56.7" cy="56.7" r="21.3"/>
<circle class="st4" cx="56.7" cy="56.7" r="24.1"/>
<circle class="st4" cx="56.7" cy="56.7" r="26.9"/>
<circle class="st4" cx="56.7" cy="56.7" r="29.8"/>
<circle class="st4" cx="56.7" cy="56.7" r="32.6"/>
<path class="st4" d="M89.5,70.1c1.7-4.1,2.6-8.6,2.6-13.4c0-17.9-13.3-32.7-30.6-35.1c-1.5,0.7-3.1,1.1-4.8,1.1
	c-1.7,0-3.3-0.4-4.8-1.1c-17.3,2.3-30.6,17.2-30.6,35.1c0,4.7,0.9,9.2,2.6,13.4c2.7,1.9,4.5,4.9,4.8,8.4c6.5,8.3,16.6,13.7,28,13.7
	s21.5-5.4,28-13.7C85,74.9,86.8,71.9,89.5,70.1z"/>
<path class="st4" d="M93.1,68.4c1.2-3.7,1.8-7.6,1.8-11.7C95,38.3,82,23,64.8,19.3c-2.1,2.1-4.9,3.4-8.1,3.4s-6-1.3-8.1-3.4
	c-17.3,3.7-30.2,19-30.2,37.4c0,4.1,0.6,8,1.8,11.7c4.9,1.3,8.5,5.7,8.5,11c0,1-0.2,2.1-0.4,3c7,7.7,17.1,12.6,28.4,12.6
	c11.2,0,21.4-4.9,28.4-12.6c-0.3-1-0.4-2-0.4-3C84.6,74.1,88.2,69.7,93.1,68.4z"/>
<path class="st4" d="M96,68c0.1,0,0.1,0,0.2,0c1-3.6,1.6-7.4,1.6-11.3c0-19.3-13.3-35.4-31.2-39.9c-1.9,3.5-5.7,5.9-9.9,5.9
	c-4.3,0-8-2.4-9.9-5.9c-17.9,4.4-31.2,20.6-31.2,39.9c0,3.9,0.6,7.7,1.6,11.3c0.1,0,0.1,0,0.2,0c6.3,0,11.3,5.1,11.3,11.3
	c0,2.1-0.6,4.1-1.6,5.8c7.5,7.7,18,12.6,29.6,12.6c11.6,0,22.1-4.8,29.6-12.6c-1-1.7-1.6-3.7-1.6-5.8C84.6,73.1,89.7,68,96,68z"/>
<path class="st4" d="M84.6,79.4C84.6,73.1,89.7,68,96,68c1.1,0,2.1,0.2,3.1,0.4c1-3.7,1.6-7.7,1.6-11.8c0-20.5-14-37.7-33-42.6
	c-1.2,4.9-5.7,8.5-11,8.5s-9.7-3.6-11-8.5c-19,4.9-33,22.1-33,42.6c0,4.1,0.6,8,1.6,11.8c1-0.3,2-0.4,3.1-0.4
	c6.3,0,11.3,5.1,11.3,11.3c0,3.2-1.3,6-3.4,8.1c8,8.1,19.1,13.2,31.3,13.2s23.4-5,31.3-13.2C85.9,85.4,84.6,82.5,84.6,79.4z"/>
<path class="st4" d="M84.6,79.4C84.6,73.1,89.7,68,96,68c2.1,0,4,0.6,5.7,1.5c1.2-4.1,1.8-8.4,1.8-12.9c0-21.9-15.1-40.3-35.4-45.4
	c0,0,0,0,0,0c0,6.3-5.1,11.3-11.3,11.3c-6.3,0-11.3-5.1-11.3-11.3c0,0,0,0,0,0C25,16.4,9.9,34.8,9.9,56.7c0,4.5,0.6,8.8,1.8,12.9
	c1.7-1,3.6-1.5,5.7-1.5c6.3,0,11.3,5.1,11.3,11.3c0,4.2-2.3,7.9-5.7,9.8c8.5,8.8,20.4,14.3,33.6,14.3S81.8,98,90.3,89.2
	C86.9,87.2,84.6,83.6,84.6,79.4z"/>
<path class="st4" d="M84.6,79.4C84.6,73.1,89.7,68,96,68c3.2,0,6,1.3,8.1,3.4c1.4-4.7,2.2-9.6,2.2-14.7c0-23.6-16.5-43.4-38.7-48.4
	c0.3,1,0.4,2,0.4,3c0,6.3-5.1,11.3-11.3,11.3c-6.3,0-11.3-5.1-11.3-11.3c0-1.1,0.2-2.1,0.4-3C23.6,13.3,7.1,33,7.1,56.7
	c0,5.1,0.8,10.1,2.2,14.7c2.1-2.1,4.9-3.4,8.1-3.4c6.3,0,11.3,5.1,11.3,11.3c0,5.3-3.6,9.7-8.5,11c9.1,9.8,22,16,36.4,16
	s27.4-6.2,36.4-16C88.2,89.1,84.6,84.7,84.6,79.4z"/>
<circle class="st4" cx="56.7" cy="56.7" r="1.4"/>
</svg>
